ISO-10303-21;
HEADER;
/* Generated by software containing ST-Developer
 * from STEP Tools, Inc. (www.steptools.com) 
 */

FILE_DESCRIPTION(
/* description */ (''),
/* implementation_level */ '2;1');

FILE_NAME(
/* name */ 'brace_arm.step',
/* time_stamp */ '2026-09-08T14:17:01-04:00',
/* author */ (''),
/* organization */ (''),
/* preprocessor_version */ 'ST-DEVELOPER v20.1',
/* originating_system */ 'Autodesk Translation Framework v14.24.0.0',
/* authorisation */ '');

FILE_SCHEMA (('AUTOMOTIVE_DESIGN { 1 0 10303 214 3 1 1 }'));
ENDSEC;

DATA;
#10=MECHANICAL_DESIGN_GEOMETRIC_PRESENTATION_REPRESENTATION('',(#13),#2048);
#11=SHAPE_REPRESENTATION_RELATIONSHIP('SRR','None',#2055,#12);
#12=ADVANCED_BREP_SHAPE_REPRESENTATION('',(#14),#2047);
#13=STYLED_ITEM('',(#2064),#14);
#14=MANIFOLD_SOLID_BREP('Body1',#1070);
#15=FACE_BOUND('',#314,.T.);
#16=FACE_BOUND('',#317,.T.);
#17=FACE_BOUND('',#326,.T.);
#18=FACE_BOUND('',#348,.T.);
#19=PLANE('',#1127);
#20=PLANE('',#1133);
#21=PLANE('',#1136);
#22=PLANE('',#1149);
#23=PLANE('',#1151);
#24=PLANE('',#1200);
#25=PLANE('',#1201);
#26=PLANE('',#1202);
#27=PLANE('',#1203);
#28=PLANE('',#1204);
#29=PLANE('',#1208);
#30=PLANE('',#1212);
#31=PLANE('',#1229);
#32=SPHERICAL_SURFACE('',#1111,1.);
#33=SPHERICAL_SURFACE('',#1116,1.);
#34=SPHERICAL_SURFACE('',#1121,1.);
#35=SPHERICAL_SURFACE('',#1123,1.);
#36=SPHERICAL_SURFACE('',#1219,1.);
#37=SPHERICAL_SURFACE('',#1220,1.);
#38=SPHERICAL_SURFACE('',#1224,1.);
#39=SPHERICAL_SURFACE('',#1226,1.);
#40=TOROIDAL_SURFACE('',#1093,11.,1.);
#41=TOROIDAL_SURFACE('',#1100,11.,1.);
#42=TOROIDAL_SURFACE('',#1137,2.50000000000005,0.5);
#43=TOROIDAL_SURFACE('',#1144,2.49999999999718,0.5);
#44=TOROIDAL_SURFACE('',#1152,4.,2.);
#45=TOROIDAL_SURFACE('',#1157,4.,2.);
#46=TOROIDAL_SURFACE('',#1162,4.,2.);
#47=TOROIDAL_SURFACE('',#1166,4.,2.);
#48=TOROIDAL_SURFACE('',#1171,4.,2.);
#49=TOROIDAL_SURFACE('',#1178,4.,2.);
#50=TOROIDAL_SURFACE('',#1183,4.,2.);
#51=TOROIDAL_SURFACE('',#1188,4.,2.);
#52=LINE('',#1764,#119);
#53=LINE('',#1765,#120);
#54=LINE('',#1777,#121);
#55=LINE('',#1785,#122);
#56=LINE('',#1791,#123);
#57=LINE('',#1794,#124);
#58=LINE('',#1799,#125);
#59=LINE('',#1802,#126);
#60=LINE('',#1809,#127);
#61=LINE('',#1812,#128);
#62=LINE('',#1819,#129);
#63=LINE('',#1821,#130);
#64=LINE('',#1828,#131);
#65=LINE('',#1831,#132);
#66=LINE('',#1833,#133);
#67=LINE('',#1834,#134);
#68=LINE('',#1836,#135);
#69=LINE('',#1837,#136);
#70=LINE('',#1842,#137);
#71=LINE('',#1846,#138);
#72=LINE('',#1850,#139);
#73=LINE('',#1853,#140);
#74=LINE('',#1855,#141);
#75=LINE('',#1857,#142);
#76=LINE('',#1860,#143);
#77=LINE('',#1864,#144);
#78=LINE('',#1880,#145);
#79=LINE('',#1881,#146);
#80=LINE('',#1889,#147);
#81=LINE('',#1890,#148);
#82=LINE('',#1892,#149);
#83=LINE('',#1893,#150);
#84=LINE('',#1895,#151);
#85=LINE('',#1898,#152);
#86=LINE('',#1899,#153);
#87=LINE('',#1943,#154);
#88=LINE('',#1944,#155);
#89=LINE('',#1946,#156);
#90=LINE('',#1947,#157);
#91=LINE('',#1955,#158);
#92=LINE('',#1956,#159);
#93=LINE('',#1964,#160);
#94=LINE('',#1972,#161);
#95=LINE('',#1973,#162);
#96=LINE('',#1975,#163);
#97=LINE('',#1977,#164);
#98=LINE('',#1979,#165);
#99=LINE('',#1980,#166);
#100=LINE('',#1982,#167);
#101=LINE('',#1984,#168);
#102=LINE('',#1985,#169);
#103=LINE('',#1987,#170);
#104=LINE('',#1988,#171);
#105=LINE('',#1990,#172);
#106=LINE('',#1991,#173);
#107=LINE('',#1994,#174);
#108=LINE('',#1996,#175);
#109=LINE('',#1997,#176);
#110=LINE('',#1998,#177);
#111=LINE('',#2006,#178);
#112=LINE('',#2012,#179);
#113=LINE('',#2013,#180);
#114=LINE('',#2014,#181);
#115=LINE('',#2019,#182);
#116=LINE('',#2032,#183);
#117=LINE('',#2039,#184);
#118=LINE('',#2041,#185);
#119=VECTOR('',#1253,10.);
#120=VECTOR('',#1254,10.);
#121=VECTOR('',#1269,10.);
#122=VECTOR('',#1280,10.);
#123=VECTOR('',#1285,10.);
#124=VECTOR('',#1288,10.);
#125=VECTOR('',#1293,10.);
#126=VECTOR('',#1296,10.);
#127=VECTOR('',#1305,10.);
#128=VECTOR('',#1308,10.);
#129=VECTOR('',#1317,10.);
#130=VECTOR('',#1320,10.);
#131=VECTOR('',#1331,10.);
#132=VECTOR('',#1334,10.);
#133=VECTOR('',#1337,10.);
#134=VECTOR('',#1338,10.);
#135=VECTOR('',#1339,10.);
#136=VECTOR('',#1340,10.);
#137=VECTOR('',#1343,10.);
#138=VECTOR('',#1346,10.);
#139=VECTOR('',#1349,10.);
#140=VECTOR('',#1352,10.);
#141=VECTOR('',#1355,10.);
#142=VECTOR('',#1358,10.);
#143=VECTOR('',#1359,10.);
#144=VECTOR('',#1362,10.);
#145=VECTOR('',#1381,10.);
#146=VECTOR('',#1382,10.);
#147=VECTOR('',#1393,10.);
#148=VECTOR('',#1394,10.);
#149=VECTOR('',#1397,10.);
#150=VECTOR('',#1398,10.);
#151=VECTOR('',#1401,10.);
#152=VECTOR('',#1404,10.);
#153=VECTOR('',#1405,10.);
#154=VECTOR('',#1456,10.);
#155=VECTOR('',#1457,10.);
#156=VECTOR('',#1460,10.);
#157=VECTOR('',#1461,10.);
#158=VECTOR('',#1472,10.);
#159=VECTOR('',#1473,10.);
#160=VECTOR('',#1484,10.);
#161=VECTOR('',#1495,10.);
#162=VECTOR('',#1496,10.);
#163=VECTOR('',#1499,10.);
#164=VECTOR('',#1502,10.);
#165=VECTOR('',#1505,10.);
#166=VECTOR('',#1506,10.);
#167=VECTOR('',#1509,10.);
#168=VECTOR('',#1512,10.);
#169=VECTOR('',#1513,10.);
#170=VECTOR('',#1516,10.);
#171=VECTOR('',#1517,10.);
#172=VECTOR('',#1520,10.);
#173=VECTOR('',#1521,10.);
#174=VECTOR('',#1524,10.);
#175=VECTOR('',#1525,10.);
#176=VECTOR('',#1526,10.);
#177=VECTOR('',#1527,10.);
#178=VECTOR('',#1538,10.);
#179=VECTOR('',#1545,10.);
#180=VECTOR('',#1546,10.);
#181=VECTOR('',#1547,10.);
#182=VECTOR('',#1556,10.);
#183=VECTOR('',#1577,10.);
#184=VECTOR('',#1590,10.);
#185=VECTOR('',#1593,10.);
#186=CYLINDRICAL_SURFACE('',#1092,2.);
#187=CYLINDRICAL_SURFACE('',#1098,12.);
#188=CYLINDRICAL_SURFACE('',#1104,1.);
#189=CYLINDRICAL_SURFACE('',#1105,1.);
#190=CYLINDRICAL_SURFACE('',#1108,1.);
#191=CYLINDRICAL_SURFACE('',#1113,1.);
#192=CYLINDRICAL_SURFACE('',#1118,1.);
#193=CYLINDRICAL_SURFACE('',#1125,1.);
#194=CYLINDRICAL_SURFACE('',#1132,1.);
#195=CYLINDRICAL_SURFACE('',#1142,0.5);
#196=CYLINDRICAL_SURFACE('',#1148,0.5);
#197=CYLINDRICAL_SURFACE('',#1150,2.00000000000005);
#198=CYLINDRICAL_SURFACE('',#1176,2.);
#199=CYLINDRICAL_SURFACE('',#1177,2.);
#200=CYLINDRICAL_SURFACE('',#1182,2.);
#201=CYLINDRICAL_SURFACE('',#1187,2.);
#202=CYLINDRICAL_SURFACE('',#1192,2.);
#203=CYLINDRICAL_SURFACE('',#1193,2.);
#204=CYLINDRICAL_SURFACE('',#1194,2.);
#205=CYLINDRICAL_SURFACE('',#1195,2.);
#206=CYLINDRICAL_SURFACE('',#1196,2.);
#207=CYLINDRICAL_SURFACE('',#1197,2.);
#208=CYLINDRICAL_SURFACE('',#1198,2.);
#209=CYLINDRICAL_SURFACE('',#1199,2.);
#210=CYLINDRICAL_SURFACE('',#1205,1.);
#211=CYLINDRICAL_SURFACE('',#1209,1.);
#212=CYLINDRICAL_SURFACE('',#1213,1.99999999999718);
#213=CYLINDRICAL_SURFACE('',#1214,1.);
#214=CYLINDRICAL_SURFACE('',#1216,1.);
#215=CYLINDRICAL_SURFACE('',#1221,1.);
#216=CYLINDRICAL_SURFACE('',#1228,1.);
#217=CYLINDRICAL_SURFACE('',#1230,1.);
#218=CYLINDRICAL_SURFACE('',#1231,1.);
#219=CYLINDRICAL_SURFACE('',#1232,1.);
#220=B_SPLINE_CURVE_WITH_KNOTS('',3,(#1666,#1667,#1668,#1669,#1670,#1671,
#1672,#1673),.UNSPECIFIED.,.F.,.F.,(4,1,1,1,1,4),(0.576801810278946,0.599675358850808,
0.622548907422671,0.668296004566397,0.759790198853848,0.897031490285024),
 .UNSPECIFIED.);
#221=B_SPLINE_CURVE_WITH_KNOTS('',3,(#1674,#1675,#1676,#1677,#1678,#1679,
#1680,#1681),.UNSPECIFIED.,.F.,.F.,(4,1,1,1,1,4),(-0.897031490285024,-0.759790198853848,
-0.668296004566397,-0.622548907422671,-0.599675358850808,-0.576801810278946),
 .UNSPECIFIED.);
#222=B_SPLINE_CURVE_WITH_KNOTS('',3,(#1747,#1748,#1749,#1750,#1751,#1752,
#1753,#1754),.UNSPECIFIED.,.F.,.F.,(4,1,1,1,1,4),(-0.320229680006077,-0.297356131434214,
-0.251609034290489,-0.182988388574901,-0.0914941942874505,-3.63327231302344E-17),
 .UNSPECIFIED.);
#223=B_SPLINE_CURVE_WITH_KNOTS('',3,(#1755,#1756,#1757,#1758,#1759,#1760,
#1761,#1762),.UNSPECIFIED.,.F.,.F.,(4,1,1,1,1,4),(3.63327231302344E-17,
0.0914941942874505,0.182988388574901,0.251609034290489,0.297356131434214,
0.320229680006077),.UNSPECIFIED.);
#224=FACE_OUTER_BOUND('',#295,.T.);
#225=FACE_OUTER_BOUND('',#296,.T.);
#226=FACE_OUTER_BOUND('',#297,.T.);
#227=FACE_OUTER_BOUND('',#298,.T.);
#228=FACE_OUTER_BOUND('',#299,.T.);
#229=FACE_OUTER_BOUND('',#300,.T.);
#230=FACE_OUTER_BOUND('',#301,.T.);
#231=FACE_OUTER_BOUND('',#302,.T.);
#232=FACE_OUTER_BOUND('',#303,.T.);
#233=FACE_OUTER_BOUND('',#304,.T.);
#234=FACE_OUTER_BOUND('',#305,.T.);
#235=FACE_OUTER_BOUND('',#306,.T.);
#236=FACE_OUTER_BOUND('',#307,.T.);
#237=FACE_OUTER_BOUND('',#308,.T.);
#238=FACE_OUTER_BOUND('',#309,.T.);
#239=FACE_OUTER_BOUND('',#310,.T.);
#240=FACE_OUTER_BOUND('',#311,.T.);
#241=FACE_OUTER_BOUND('',#312,.T.);
#242=FACE_OUTER_BOUND('',#313,.T.);
#243=FACE_OUTER_BOUND('',#315,.T.);
#244=FACE_OUTER_BOUND('',#316,.T.);
#245=FACE_OUTER_BOUND('',#318,.T.);
#246=FACE_OUTER_BOUND('',#319,.T.);
#247=FACE_OUTER_BOUND('',#320,.T.);
#248=FACE_OUTER_BOUND('',#321,.T.);
#249=FACE_OUTER_BOUND('',#322,.T.);
#250=FACE_OUTER_BOUND('',#323,.T.);
#251=FACE_OUTER_BOUND('',#324,.T.);
#252=FACE_OUTER_BOUND('',#325,.T.);
#253=FACE_OUTER_BOUND('',#327,.T.);
#254=FACE_OUTER_BOUND('',#328,.T.);
#255=FACE_OUTER_BOUND('',#329,.T.);
#256=FACE_OUTER_BOUND('',#330,.T.);
#257=FACE_OUTER_BOUND('',#331,.T.);
#258=FACE_OUTER_BOUND('',#332,.T.);
#259=FACE_OUTER_BOUND('',#333,.T.);
#260=FACE_OUTER_BOUND('',#334,.T.);
#261=FACE_OUTER_BOUND('',#335,.T.);
#262=FACE_OUTER_BOUND('',#336,.T.);
#263=FACE_OUTER_BOUND('',#337,.T.);
#264=FACE_OUTER_BOUND('',#338,.T.);
#265=FACE_OUTER_BOUND('',#339,.T.);
#266=FACE_OUTER_BOUND('',#340,.T.);
#267=FACE_OUTER_BOUND('',#341,.T.);
#268=FACE_OUTER_BOUND('',#342,.T.);
#269=FACE_OUTER_BOUND('',#343,.T.);
#270=FACE_OUTER_BOUND('',#344,.T.);
#271=FACE_OUTER_BOUND('',#345,.T.);
#272=FACE_OUTER_BOUND('',#346,.T.);
#273=FACE_OUTER_BOUND('',#347,.T.);
#274=FACE_OUTER_BOUND('',#349,.T.);
#275=FACE_OUTER_BOUND('',#350,.T.);
#276=FACE_OUTER_BOUND('',#351,.T.);
#277=FACE_OUTER_BOUND('',#352,.T.);
#278=FACE_OUTER_BOUND('',#353,.T.);
#279=FACE_OUTER_BOUND('',#354,.T.);
#280=FACE_OUTER_BOUND('',#355,.T.);
#281=FACE_OUTER_BOUND('',#356,.T.);
#282=FACE_OUTER_BOUND('',#357,.T.);
#283=FACE_OUTER_BOUND('',#358,.T.);
#284=FACE_OUTER_BOUND('',#359,.T.);
#285=FACE_OUTER_BOUND('',#360,.T.);
#286=FACE_OUTER_BOUND('',#361,.T.);
#287=FACE_OUTER_BOUND('',#362,.T.);
#288=FACE_OUTER_BOUND('',#363,.T.);
#289=FACE_OUTER_BOUND('',#364,.T.);
#290=FACE_OUTER_BOUND('',#365,.T.);
#291=FACE_OUTER_BOUND('',#366,.T.);
#292=FACE_OUTER_BOUND('',#367,.T.);
#293=FACE_OUTER_BOUND('',#368,.T.);
#294=FACE_OUTER_BOUND('',#369,.T.);
#295=EDGE_LOOP('',(#689,#690,#691));
#296=EDGE_LOOP('',(#692,#693,#694,#695));
#297=EDGE_LOOP('',(#696,#697,#698));
#298=EDGE_LOOP('',(#699,#700,#701,#702));
#299=EDGE_LOOP('',(#703,#704,#705,#706));
#300=EDGE_LOOP('',(#707,#708,#709,#710,#711));
#301=EDGE_LOOP('',(#712,#713,#714,#715));
#302=EDGE_LOOP('',(#716,#717,#718,#719,#720));
#303=EDGE_LOOP('',(#721,#722,#723));
#304=EDGE_LOOP('',(#724,#725,#726,#727));
#305=EDGE_LOOP('',(#728,#729,#730,#731));
#306=EDGE_LOOP('',(#732,#733,#734));
#307=EDGE_LOOP('',(#735,#736,#737,#738));
#308=EDGE_LOOP('',(#739,#740,#741));
#309=EDGE_LOOP('',(#742,#743,#744,#745));
#310=EDGE_LOOP('',(#746,#747,#748));
#311=EDGE_LOOP('',(#749,#750,#751));
#312=EDGE_LOOP('',(#752,#753,#754,#755));
#313=EDGE_LOOP('',(#756,#757,#758,#759,#760,#761,#762));
#314=EDGE_LOOP('',(#763,#764,#765,#766,#767,#768,#769,#770));
#315=EDGE_LOOP('',(#771,#772,#773,#774,#775));
#316=EDGE_LOOP('',(#776,#777,#778,#779));
#317=EDGE_LOOP('',(#780,#781,#782,#783));
#318=EDGE_LOOP('',(#784,#785,#786,#787));
#319=EDGE_LOOP('',(#788,#789,#790,#791));
#320=EDGE_LOOP('',(#792,#793,#794,#795));
#321=EDGE_LOOP('',(#796,#797,#798,#799));
#322=EDGE_LOOP('',(#800,#801,#802,#803));
#323=EDGE_LOOP('',(#804,#805,#806,#807));
#324=EDGE_LOOP('',(#808,#809,#810,#811));
#325=EDGE_LOOP('',(#812,#813,#814,#815));
#326=EDGE_LOOP('',(#816,#817,#818,#819));
#327=EDGE_LOOP('',(#820,#821,#822,#823));
#328=EDGE_LOOP('',(#824,#825,#826,#827));
#329=EDGE_LOOP('',(#828,#829,#830,#831));
#330=EDGE_LOOP('',(#832,#833,#834,#835));
#331=EDGE_LOOP('',(#836,#837,#838,#839));
#332=EDGE_LOOP('',(#840,#841,#842,#843));
#333=EDGE_LOOP('',(#844,#845,#846,#847));
#334=EDGE_LOOP('',(#848,#849,#850,#851));
#335=EDGE_LOOP('',(#852,#853,#854,#855));
#336=EDGE_LOOP('',(#856,#857,#858,#859));
#337=EDGE_LOOP('',(#860,#861,#862,#863));
#338=EDGE_LOOP('',(#864,#865,#866,#867));
#339=EDGE_LOOP('',(#868,#869,#870,#871));
#340=EDGE_LOOP('',(#872,#873,#874,#875));
#341=EDGE_LOOP('',(#876,#877,#878,#879));
#342=EDGE_LOOP('',(#880,#881,#882,#883));
#343=EDGE_LOOP('',(#884,#885,#886,#887));
#344=EDGE_LOOP('',(#888,#889,#890,#891));
#345=EDGE_LOOP('',(#892,#893,#894,#895));
#346=EDGE_LOOP('',(#896,#897,#898,#899));
#347=EDGE_LOOP('',(#900,#901,#902,#903,#904,#905,#906));
#348=EDGE_LOOP('',(#907,#908,#909,#910,#911,#912,#913,#914));
#349=EDGE_LOOP('',(#915,#916,#917,#918));
#350=EDGE_LOOP('',(#919,#920,#921,#922));
#351=EDGE_LOOP('',(#923,#924,#925,#926));
#352=EDGE_LOOP('',(#927,#928,#929,#930));
#353=EDGE_LOOP('',(#931,#932,#933,#934));
#354=EDGE_LOOP('',(#935,#936,#937,#938));
#355=EDGE_LOOP('',(#939,#940,#941,#942));
#356=EDGE_LOOP('',(#943,#944,#945,#946));
#357=EDGE_LOOP('',(#947,#948,#949,#950));
#358=EDGE_LOOP('',(#951,#952,#953,#954));
#359=EDGE_LOOP('',(#955,#956,#957,#958));
#360=EDGE_LOOP('',(#959,#960,#961));
#361=EDGE_LOOP('',(#962,#963,#964));
#362=EDGE_LOOP('',(#965,#966,#967,#968));
#363=EDGE_LOOP('',(#969,#970,#971));
#364=EDGE_LOOP('',(#972,#973,#974));
#365=EDGE_LOOP('',(#975,#976,#977,#978));
#366=EDGE_LOOP('',(#979,#980,#981,#982));
#367=EDGE_LOOP('',(#983,#984,#985,#986));
#368=EDGE_LOOP('',(#987,#988,#989));
#369=EDGE_LOOP('',(#990,#991,#992,#993,#994));
#370=ELLIPSE('',#1085,3.16227766016838,1.);
#371=ELLIPSE('',#1086,3.16227766016838,1.);
#372=ELLIPSE('',#1089,3.16227766016838,1.);
#373=ELLIPSE('',#1090,3.16227766016838,1.);
#374=CIRCLE('',#1084,2.);
#375=CIRCLE('',#1087,2.);
#376=CIRCLE('',#1088,2.);
#377=CIRCLE('',#1091,2.);
#378=CIRCLE('',#1094,12.);
#379=CIRCLE('',#1095,1.);
#380=CIRCLE('',#1096,11.);
#381=CIRCLE('',#1097,1.);
#382=CIRCLE('',#1099,12.);
#383=CIRCLE('',#1101,1.);
#384=CIRCLE('',#1102,11.);
#385=CIRCLE('',#1103,1.);
#386=CIRCLE('',#1106,0.999999999999996);
#387=CIRCLE('',#1107,1.);
#388=CIRCLE('',#1109,1.00000000000001);
#389=CIRCLE('',#1110,1.);
#390=CIRCLE('',#1112,1.);
#391=CIRCLE('',#1114,0.999999999999996);
#392=CIRCLE('',#1115,1.);
#393=CIRCLE('',#1117,1.);
#394=CIRCLE('',#1119,0.999999999999996);
#395=CIRCLE('',#1120,1.);
#396=CIRCLE('',#1122,1.);
#397=CIRCLE('',#1124,1.);
#398=CIRCLE('',#1126,1.);
#399=CIRCLE('',#1128,4.);
#400=CIRCLE('',#1129,4.);
#401=CIRCLE('',#1130,4.);
#402=CIRCLE('',#1131,4.);
#403=CIRCLE('',#1134,2.00000000000005);
#404=CIRCLE('',#1135,1.99999999999718);
#405=CIRCLE('',#1138,0.5);
#406=CIRCLE('',#1139,2.00000000000005);
#407=CIRCLE('',#1140,0.500000137836581);
#408=CIRCLE('',#1141,2.50000000000005);
#409=CIRCLE('',#1143,0.5);
#410=CIRCLE('',#1145,0.500000137830154);
#411=CIRCLE('',#1146,2.49999999999718);
#412=CIRCLE('',#1147,1.99999999999718);
#413=CIRCLE('',#1153,2.);
#414=CIRCLE('',#1154,2.);
#415=CIRCLE('',#1155,4.);
#416=CIRCLE('',#1156,2.);
#417=CIRCLE('',#1158,2.);
#418=CIRCLE('',#1159,2.);
#419=CIRCLE('',#1160,2.);
#420=CIRCLE('',#1161,4.);
#421=CIRCLE('',#1163,2.);
#422=CIRCLE('',#1164,2.);
#423=CIRCLE('',#1165,2.);
#424=CIRCLE('',#1167,2.);
#425=CIRCLE('',#1168,2.);
#426=CIRCLE('',#1169,4.);
#427=CIRCLE('',#1170,2.);
#428=CIRCLE('',#1172,2.);
#429=CIRCLE('',#1173,2.);
#430=CIRCLE('',#1174,4.);
#431=CIRCLE('',#1175,2.);
#432=CIRCLE('',#1179,2.);
#433=CIRCLE('',#1180,2.);
#434=CIRCLE('',#1181,2.);
#435=CIRCLE('',#1184,2.);
#436=CIRCLE('',#1185,2.);
#437=CIRCLE('',#1186,2.);
#438=CIRCLE('',#1189,2.);
#439=CIRCLE('',#1190,2.);
#440=CIRCLE('',#1191,2.);
#441=CIRCLE('',#1206,1.);
#442=CIRCLE('',#1207,1.);
#443=CIRCLE('',#1210,1.);
#444=CIRCLE('',#1211,1.);
#445=CIRCLE('',#1215,1.);
#446=CIRCLE('',#1217,1.);
#447=CIRCLE('',#1218,1.);
#448=CIRCLE('',#1222,1.);
#449=CIRCLE('',#1223,1.);
#450=CIRCLE('',#1225,1.);
#451=CIRCLE('',#1227,1.);
#452=VERTEX_POINT('',#1617);
#453=VERTEX_POINT('',#1618);
#454=VERTEX_POINT('',#1620);
#455=VERTEX_POINT('',#1663);
#456=VERTEX_POINT('',#1664);
#457=VERTEX_POINT('',#1698);
#458=VERTEX_POINT('',#1699);
#459=VERTEX_POINT('',#1701);
#460=VERTEX_POINT('',#1744);
#461=VERTEX_POINT('',#1745);
#462=VERTEX_POINT('',#1767);
#463=VERTEX_POINT('',#1769);
#464=VERTEX_POINT('',#1771);
#465=VERTEX_POINT('',#1775);
#466=VERTEX_POINT('',#1779);
#467=VERTEX_POINT('',#1781);
#468=VERTEX_POINT('',#1787);
#469=VERTEX_POINT('',#1788);
#470=VERTEX_POINT('',#1790);
#471=VERTEX_POINT('',#1792);
#472=VERTEX_POINT('',#1796);
#473=VERTEX_POINT('',#1798);
#474=VERTEX_POINT('',#1800);
#475=VERTEX_POINT('',#1806);
#476=VERTEX_POINT('',#1808);
#477=VERTEX_POINT('',#1810);
#478=VERTEX_POINT('',#1816);
#479=VERTEX_POINT('',#1818);
#480=VERTEX_POINT('',#1827);
#481=VERTEX_POINT('',#1829);
#482=VERTEX_POINT('',#1835);
#483=VERTEX_POINT('',#1838);
#484=VERTEX_POINT('',#1839);
#485=VERTEX_POINT('',#1841);
#486=VERTEX_POINT('',#1843);
#487=VERTEX_POINT('',#1845);
#488=VERTEX_POINT('',#1847);
#489=VERTEX_POINT('',#1849);
#490=VERTEX_POINT('',#1851);
#491=VERTEX_POINT('',#1858);
#492=VERTEX_POINT('',#1859);
#493=VERTEX_POINT('',#1861);
#494=VERTEX_POINT('',#1863);
#495=VERTEX_POINT('',#1868);
#496=VERTEX_POINT('',#1869);
#497=VERTEX_POINT('',#1871);
#498=VERTEX_POINT('',#1873);
#499=VERTEX_POINT('',#1877);
#500=VERTEX_POINT('',#1878);
#501=VERTEX_POINT('',#1883);
#502=VERTEX_POINT('',#1884);
#503=VERTEX_POINT('',#1897);
#504=VERTEX_POINT('',#1901);
#505=VERTEX_POINT('',#1902);
#506=VERTEX_POINT('',#1904);
#507=VERTEX_POINT('',#1906);
#508=VERTEX_POINT('',#1910);
#509=VERTEX_POINT('',#1911);
#510=VERTEX_POINT('',#1913);
#511=VERTEX_POINT('',#1915);
#512=VERTEX_POINT('',#1919);
#513=VERTEX_POINT('',#1920);
#514=VERTEX_POINT('',#1925);
#515=VERTEX_POINT('',#1926);
#516=VERTEX_POINT('',#1928);
#517=VERTEX_POINT('',#1930);
#518=VERTEX_POINT('',#1934);
#519=VERTEX_POINT('',#1935);
#520=VERTEX_POINT('',#1937);
#521=VERTEX_POINT('',#1939);
#522=VERTEX_POINT('',#1949);
#523=VERTEX_POINT('',#1951);
#524=VERTEX_POINT('',#1958);
#525=VERTEX_POINT('',#1959);
#526=VERTEX_POINT('',#1966);
#527=VERTEX_POINT('',#1968);
#528=VERTEX_POINT('',#1993);
#529=VERTEX_POINT('',#1995);
#530=VERTEX_POINT('',#2004);
#531=VERTEX_POINT('',#2005);
#532=VERTEX_POINT('',#2010);
#533=VERTEX_POINT('',#2011);
#534=VERTEX_POINT('',#2029);
#535=VERTEX_POINT('',#2031);
#536=EDGE_CURVE('',#452,#453,#374,.T.);
#537=EDGE_CURVE('',#453,#454,#370,.T.);
#538=EDGE_CURVE('',#454,#452,#371,.T.);
#539=EDGE_CURVE('',#455,#456,#375,.T.);
#540=EDGE_CURVE('',#456,#453,#220,.T.);
#541=EDGE_CURVE('',#452,#455,#221,.T.);
#542=EDGE_CURVE('',#457,#458,#376,.T.);
#543=EDGE_CURVE('',#458,#459,#372,.T.);
#544=EDGE_CURVE('',#459,#457,#373,.T.);
#545=EDGE_CURVE('',#460,#461,#377,.T.);
#546=EDGE_CURVE('',#461,#458,#222,.T.);
#547=EDGE_CURVE('',#457,#460,#223,.T.);
#548=EDGE_CURVE('',#460,#456,#52,.T.);
#549=EDGE_CURVE('',#455,#461,#53,.T.);
#550=EDGE_CURVE('',#456,#462,#378,.T.);
#551=EDGE_CURVE('',#463,#462,#379,.T.);
#552=EDGE_CURVE('',#463,#464,#380,.T.);
#553=EDGE_CURVE('',#464,#453,#381,.T.);
#554=EDGE_CURVE('',#465,#460,#382,.T.);
#555=EDGE_CURVE('',#465,#462,#54,.T.);
#556=EDGE_CURVE('',#457,#466,#383,.T.);
#557=EDGE_CURVE('',#466,#467,#384,.T.);
#558=EDGE_CURVE('',#467,#465,#385,.T.);
#559=EDGE_CURVE('',#459,#466,#55,.T.);
#560=EDGE_CURVE('',#468,#469,#386,.T.);
#561=EDGE_CURVE('',#469,#470,#56,.T.);
#562=EDGE_CURVE('',#470,#471,#387,.T.);
#563=EDGE_CURVE('',#471,#468,#57,.T.);
#564=EDGE_CURVE('',#471,#472,#388,.T.);
#565=EDGE_CURVE('',#472,#473,#58,.T.);
#566=EDGE_CURVE('',#473,#474,#389,.T.);
#567=EDGE_CURVE('',#474,#471,#59,.T.);
#568=EDGE_CURVE('',#470,#472,#390,.T.);
#569=EDGE_CURVE('',#474,#475,#391,.T.);
#570=EDGE_CURVE('',#475,#476,#60,.T.);
#571=EDGE_CURVE('',#476,#477,#392,.T.);
#572=EDGE_CURVE('',#477,#474,#61,.T.);
#573=EDGE_CURVE('',#473,#475,#393,.T.);
#574=EDGE_CURVE('',#477,#478,#394,.T.);
#575=EDGE_CURVE('',#478,#479,#62,.T.);
#576=EDGE_CURVE('',#479,#468,#395,.T.);
#577=EDGE_CURVE('',#468,#477,#63,.T.);
#578=EDGE_CURVE('',#476,#478,#396,.T.);
#579=EDGE_CURVE('',#479,#469,#397,.T.);
#580=EDGE_CURVE('',#480,#470,#64,.T.);
#581=EDGE_CURVE('',#480,#481,#398,.T.);
#582=EDGE_CURVE('',#481,#472,#65,.T.);
#583=EDGE_CURVE('',#454,#469,#66,.T.);
#584=EDGE_CURVE('',#464,#454,#67,.T.);
#585=EDGE_CURVE('',#482,#463,#68,.T.);
#586=EDGE_CURVE('',#480,#482,#69,.T.);
#587=EDGE_CURVE('',#483,#484,#399,.T.);
#588=EDGE_CURVE('',#485,#483,#70,.T.);
#589=EDGE_CURVE('',#486,#485,#400,.T.);
#590=EDGE_CURVE('',#487,#486,#71,.T.);
#591=EDGE_CURVE('',#488,#487,#401,.T.);
#592=EDGE_CURVE('',#489,#488,#72,.T.);
#593=EDGE_CURVE('',#490,#489,#402,.T.);
#594=EDGE_CURVE('',#484,#490,#73,.T.);
#595=EDGE_CURVE('',#455,#479,#74,.T.);
#596=EDGE_CURVE('',#461,#478,#75,.T.);
#597=EDGE_CURVE('',#491,#492,#76,.T.);
#598=EDGE_CURVE('',#492,#493,#403,.T.);
#599=EDGE_CURVE('',#493,#494,#77,.T.);
#600=EDGE_CURVE('',#494,#491,#404,.T.);
#601=EDGE_CURVE('',#495,#496,#405,.T.);
#602=EDGE_CURVE('',#496,#497,#406,.T.);
#603=EDGE_CURVE('',#497,#498,#407,.T.);
#604=EDGE_CURVE('',#498,#495,#408,.T.);
#605=EDGE_CURVE('',#499,#500,#409,.T.);
#606=EDGE_CURVE('',#500,#498,#78,.T.);
#607=EDGE_CURVE('',#497,#499,#79,.T.);
#608=EDGE_CURVE('',#501,#502,#410,.T.);
#609=EDGE_CURVE('',#502,#500,#411,.T.);
#610=EDGE_CURVE('',#499,#501,#412,.T.);
#611=EDGE_CURVE('',#495,#502,#80,.T.);
#612=EDGE_CURVE('',#501,#496,#81,.T.);
#613=EDGE_CURVE('',#492,#497,#82,.T.);
#614=EDGE_CURVE('',#491,#499,#83,.T.);
#615=EDGE_CURVE('',#493,#496,#84,.T.);
#616=EDGE_CURVE('',#503,#481,#85,.T.);
#617=EDGE_CURVE('',#473,#503,#86,.T.);
#618=EDGE_CURVE('',#504,#505,#413,.F.);
#619=EDGE_CURVE('',#506,#504,#414,.T.);
#620=EDGE_CURVE('',#506,#507,#415,.T.);
#621=EDGE_CURVE('',#505,#507,#416,.T.);
#622=EDGE_CURVE('',#508,#509,#417,.T.);
#623=EDGE_CURVE('',#510,#508,#418,.F.);
#624=EDGE_CURVE('',#511,#510,#419,.T.);
#625=EDGE_CURVE('',#511,#509,#420,.T.);
#626=EDGE_CURVE('',#512,#513,#421,.F.);
#627=EDGE_CURVE('',#488,#512,#422,.T.);
#628=EDGE_CURVE('',#513,#487,#423,.T.);
#629=EDGE_CURVE('',#514,#515,#424,.F.);
#630=EDGE_CURVE('',#516,#514,#425,.T.);
#631=EDGE_CURVE('',#516,#517,#426,.T.);
#632=EDGE_CURVE('',#515,#517,#427,.T.);
#633=EDGE_CURVE('',#518,#519,#428,.F.);
#634=EDGE_CURVE('',#520,#518,#429,.T.);
#635=EDGE_CURVE('',#520,#521,#430,.T.);
#636=EDGE_CURVE('',#519,#521,#431,.T.);
#637=EDGE_CURVE('',#509,#520,#87,.T.);
#638=EDGE_CURVE('',#518,#508,#88,.T.);
#639=EDGE_CURVE('',#514,#519,#89,.T.);
#640=EDGE_CURVE('',#521,#516,#90,.T.);
#641=EDGE_CURVE('',#522,#489,#432,.T.);
#642=EDGE_CURVE('',#523,#522,#433,.F.);
#643=EDGE_CURVE('',#490,#523,#434,.T.);
#644=EDGE_CURVE('',#522,#510,#91,.T.);
#645=EDGE_CURVE('',#508,#523,#92,.T.);
#646=EDGE_CURVE('',#524,#525,#435,.F.);
#647=EDGE_CURVE('',#486,#524,#436,.T.);
#648=EDGE_CURVE('',#525,#485,#437,.T.);
#649=EDGE_CURVE('',#524,#513,#93,.T.);
#650=EDGE_CURVE('',#526,#484,#438,.T.);
#651=EDGE_CURVE('',#527,#526,#439,.F.);
#652=EDGE_CURVE('',#483,#527,#440,.T.);
#653=EDGE_CURVE('',#526,#518,#94,.T.);
#654=EDGE_CURVE('',#519,#527,#95,.T.);
#655=EDGE_CURVE('',#527,#525,#96,.T.);
#656=EDGE_CURVE('',#523,#526,#97,.T.);
#657=EDGE_CURVE('',#525,#514,#98,.T.);
#658=EDGE_CURVE('',#515,#524,#99,.T.);
#659=EDGE_CURVE('',#512,#522,#100,.T.);
#660=EDGE_CURVE('',#504,#515,#101,.T.);
#661=EDGE_CURVE('',#517,#506,#102,.T.);
#662=EDGE_CURVE('',#505,#512,#103,.T.);
#663=EDGE_CURVE('',#513,#504,#104,.T.);
#664=EDGE_CURVE('',#507,#511,#105,.T.);
#665=EDGE_CURVE('',#510,#505,#106,.T.);
#666=EDGE_CURVE('',#528,#475,#107,.T.);
#667=EDGE_CURVE('',#529,#528,#108,.T.);
#668=EDGE_CURVE('',#467,#529,#109,.T.);
#669=EDGE_CURVE('',#476,#459,#110,.T.);
#670=EDGE_CURVE('',#530,#531,#111,.T.);
#671=EDGE_CURVE('',#531,#529,#441,.T.);
#672=EDGE_CURVE('',#530,#528,#442,.T.);
#673=EDGE_CURVE('',#532,#533,#112,.T.);
#674=EDGE_CURVE('',#531,#532,#113,.T.);
#675=EDGE_CURVE('',#533,#530,#114,.T.);
#676=EDGE_CURVE('',#482,#532,#443,.T.);
#677=EDGE_CURVE('',#480,#533,#444,.T.);
#678=EDGE_CURVE('',#494,#501,#115,.T.);
#679=EDGE_CURVE('',#503,#528,#445,.T.);
#680=EDGE_CURVE('',#530,#503,#446,.T.);
#681=EDGE_CURVE('',#481,#533,#447,.T.);
#682=EDGE_CURVE('',#532,#534,#448,.T.);
#683=EDGE_CURVE('',#534,#535,#116,.T.);
#684=EDGE_CURVE('',#535,#531,#449,.T.);
#685=EDGE_CURVE('',#482,#534,#450,.T.);
#686=EDGE_CURVE('',#535,#529,#451,.T.);
#687=EDGE_CURVE('',#535,#465,#117,.T.);
#688=EDGE_CURVE('',#462,#534,#118,.T.);
#689=ORIENTED_EDGE('',*,*,#536,.T.);
#690=ORIENTED_EDGE('',*,*,#537,.T.);
#691=ORIENTED_EDGE('',*,*,#538,.T.);
#692=ORIENTED_EDGE('',*,*,#539,.T.);
#693=ORIENTED_EDGE('',*,*,#540,.T.);
#694=ORIENTED_EDGE('',*,*,#536,.F.);
#695=ORIENTED_EDGE('',*,*,#541,.T.);
#696=ORIENTED_EDGE('',*,*,#542,.T.);
#697=ORIENTED_EDGE('',*,*,#543,.T.);
#698=ORIENTED_EDGE('',*,*,#544,.T.);
#699=ORIENTED_EDGE('',*,*,#545,.T.);
#700=ORIENTED_EDGE('',*,*,#546,.T.);
#701=ORIENTED_EDGE('',*,*,#542,.F.);
#702=ORIENTED_EDGE('',*,*,#547,.T.);
#703=ORIENTED_EDGE('',*,*,#545,.F.);
#704=ORIENTED_EDGE('',*,*,#548,.T.);
#705=ORIENTED_EDGE('',*,*,#539,.F.);
#706=ORIENTED_EDGE('',*,*,#549,.T.);
#707=ORIENTED_EDGE('',*,*,#540,.F.);
#708=ORIENTED_EDGE('',*,*,#550,.T.);
#709=ORIENTED_EDGE('',*,*,#551,.F.);
#710=ORIENTED_EDGE('',*,*,#552,.T.);
#711=ORIENTED_EDGE('',*,*,#553,.T.);
#712=ORIENTED_EDGE('',*,*,#548,.F.);
#713=ORIENTED_EDGE('',*,*,#554,.F.);
#714=ORIENTED_EDGE('',*,*,#555,.T.);
#715=ORIENTED_EDGE('',*,*,#550,.F.);
#716=ORIENTED_EDGE('',*,*,#547,.F.);
#717=ORIENTED_EDGE('',*,*,#556,.T.);
#718=ORIENTED_EDGE('',*,*,#557,.T.);
#719=ORIENTED_EDGE('',*,*,#558,.T.);
#720=ORIENTED_EDGE('',*,*,#554,.T.);
#721=ORIENTED_EDGE('',*,*,#544,.F.);
#722=ORIENTED_EDGE('',*,*,#559,.T.);
#723=ORIENTED_EDGE('',*,*,#556,.F.);
#724=ORIENTED_EDGE('',*,*,#560,.T.);
#725=ORIENTED_EDGE('',*,*,#561,.T.);
#726=ORIENTED_EDGE('',*,*,#562,.T.);
#727=ORIENTED_EDGE('',*,*,#563,.T.);
#728=ORIENTED_EDGE('',*,*,#564,.T.);
#729=ORIENTED_EDGE('',*,*,#565,.T.);
#730=ORIENTED_EDGE('',*,*,#566,.T.);
#731=ORIENTED_EDGE('',*,*,#567,.T.);
#732=ORIENTED_EDGE('',*,*,#564,.F.);
#733=ORIENTED_EDGE('',*,*,#562,.F.);
#734=ORIENTED_EDGE('',*,*,#568,.T.);
#735=ORIENTED_EDGE('',*,*,#569,.T.);
#736=ORIENTED_EDGE('',*,*,#570,.T.);
#737=ORIENTED_EDGE('',*,*,#571,.T.);
#738=ORIENTED_EDGE('',*,*,#572,.T.);
#739=ORIENTED_EDGE('',*,*,#569,.F.);
#740=ORIENTED_EDGE('',*,*,#566,.F.);
#741=ORIENTED_EDGE('',*,*,#573,.T.);
#742=ORIENTED_EDGE('',*,*,#574,.T.);
#743=ORIENTED_EDGE('',*,*,#575,.T.);
#744=ORIENTED_EDGE('',*,*,#576,.T.);
#745=ORIENTED_EDGE('',*,*,#577,.T.);
#746=ORIENTED_EDGE('',*,*,#574,.F.);
#747=ORIENTED_EDGE('',*,*,#571,.F.);
#748=ORIENTED_EDGE('',*,*,#578,.T.);
#749=ORIENTED_EDGE('',*,*,#560,.F.);
#750=ORIENTED_EDGE('',*,*,#576,.F.);
#751=ORIENTED_EDGE('',*,*,#579,.T.);
#752=ORIENTED_EDGE('',*,*,#568,.F.);
#753=ORIENTED_EDGE('',*,*,#580,.F.);
#754=ORIENTED_EDGE('',*,*,#581,.T.);
#755=ORIENTED_EDGE('',*,*,#582,.T.);
#756=ORIENTED_EDGE('',*,*,#561,.F.);
#757=ORIENTED_EDGE('',*,*,#583,.F.);
#758=ORIENTED_EDGE('',*,*,#584,.F.);
#759=ORIENTED_EDGE('',*,*,#552,.F.);
#760=ORIENTED_EDGE('',*,*,#585,.F.);
#761=ORIENTED_EDGE('',*,*,#586,.F.);
#762=ORIENTED_EDGE('',*,*,#580,.T.);
#763=ORIENTED_EDGE('',*,*,#587,.F.);
#764=ORIENTED_EDGE('',*,*,#588,.F.);
#765=ORIENTED_EDGE('',*,*,#589,.F.);
#766=ORIENTED_EDGE('',*,*,#590,.F.);
#767=ORIENTED_EDGE('',*,*,#591,.F.);
#768=ORIENTED_EDGE('',*,*,#592,.F.);
#769=ORIENTED_EDGE('',*,*,#593,.F.);
#770=ORIENTED_EDGE('',*,*,#594,.F.);
#771=ORIENTED_EDGE('',*,*,#538,.F.);
#772=ORIENTED_EDGE('',*,*,#583,.T.);
#773=ORIENTED_EDGE('',*,*,#579,.F.);
#774=ORIENTED_EDGE('',*,*,#595,.F.);
#775=ORIENTED_EDGE('',*,*,#541,.F.);
#776=ORIENTED_EDGE('',*,*,#549,.F.);
#777=ORIENTED_EDGE('',*,*,#595,.T.);
#778=ORIENTED_EDGE('',*,*,#575,.F.);
#779=ORIENTED_EDGE('',*,*,#596,.F.);
#780=ORIENTED_EDGE('',*,*,#597,.T.);
#781=ORIENTED_EDGE('',*,*,#598,.T.);
#782=ORIENTED_EDGE('',*,*,#599,.T.);
#783=ORIENTED_EDGE('',*,*,#600,.T.);
#784=ORIENTED_EDGE('',*,*,#563,.F.);
#785=ORIENTED_EDGE('',*,*,#567,.F.);
#786=ORIENTED_EDGE('',*,*,#572,.F.);
#787=ORIENTED_EDGE('',*,*,#577,.F.);
#788=ORIENTED_EDGE('',*,*,#601,.T.);
#789=ORIENTED_EDGE('',*,*,#602,.T.);
#790=ORIENTED_EDGE('',*,*,#603,.T.);
#791=ORIENTED_EDGE('',*,*,#604,.T.);
#792=ORIENTED_EDGE('',*,*,#605,.T.);
#793=ORIENTED_EDGE('',*,*,#606,.T.);
#794=ORIENTED_EDGE('',*,*,#603,.F.);
#795=ORIENTED_EDGE('',*,*,#607,.T.);
#796=ORIENTED_EDGE('',*,*,#608,.T.);
#797=ORIENTED_EDGE('',*,*,#609,.T.);
#798=ORIENTED_EDGE('',*,*,#605,.F.);
#799=ORIENTED_EDGE('',*,*,#610,.T.);
#800=ORIENTED_EDGE('',*,*,#601,.F.);
#801=ORIENTED_EDGE('',*,*,#611,.T.);
#802=ORIENTED_EDGE('',*,*,#608,.F.);
#803=ORIENTED_EDGE('',*,*,#612,.T.);
#804=ORIENTED_EDGE('',*,*,#607,.F.);
#805=ORIENTED_EDGE('',*,*,#613,.F.);
#806=ORIENTED_EDGE('',*,*,#597,.F.);
#807=ORIENTED_EDGE('',*,*,#614,.T.);
#808=ORIENTED_EDGE('',*,*,#602,.F.);
#809=ORIENTED_EDGE('',*,*,#615,.F.);
#810=ORIENTED_EDGE('',*,*,#598,.F.);
#811=ORIENTED_EDGE('',*,*,#613,.T.);
#812=ORIENTED_EDGE('',*,*,#565,.F.);
#813=ORIENTED_EDGE('',*,*,#582,.F.);
#814=ORIENTED_EDGE('',*,*,#616,.F.);
#815=ORIENTED_EDGE('',*,*,#617,.F.);
#816=ORIENTED_EDGE('',*,*,#604,.F.);
#817=ORIENTED_EDGE('',*,*,#606,.F.);
#818=ORIENTED_EDGE('',*,*,#609,.F.);
#819=ORIENTED_EDGE('',*,*,#611,.F.);
#820=ORIENTED_EDGE('',*,*,#618,.F.);
#821=ORIENTED_EDGE('',*,*,#619,.F.);
#822=ORIENTED_EDGE('',*,*,#620,.T.);
#823=ORIENTED_EDGE('',*,*,#621,.F.);
#824=ORIENTED_EDGE('',*,*,#622,.F.);
#825=ORIENTED_EDGE('',*,*,#623,.F.);
#826=ORIENTED_EDGE('',*,*,#624,.F.);
#827=ORIENTED_EDGE('',*,*,#625,.T.);
#828=ORIENTED_EDGE('',*,*,#626,.F.);
#829=ORIENTED_EDGE('',*,*,#627,.F.);
#830=ORIENTED_EDGE('',*,*,#591,.T.);
#831=ORIENTED_EDGE('',*,*,#628,.F.);
#832=ORIENTED_EDGE('',*,*,#629,.F.);
#833=ORIENTED_EDGE('',*,*,#630,.F.);
#834=ORIENTED_EDGE('',*,*,#631,.T.);
#835=ORIENTED_EDGE('',*,*,#632,.F.);
#836=ORIENTED_EDGE('',*,*,#633,.F.);
#837=ORIENTED_EDGE('',*,*,#634,.F.);
#838=ORIENTED_EDGE('',*,*,#635,.T.);
#839=ORIENTED_EDGE('',*,*,#636,.F.);
#840=ORIENTED_EDGE('',*,*,#622,.T.);
#841=ORIENTED_EDGE('',*,*,#637,.T.);
#842=ORIENTED_EDGE('',*,*,#634,.T.);
#843=ORIENTED_EDGE('',*,*,#638,.T.);
#844=ORIENTED_EDGE('',*,*,#630,.T.);
#845=ORIENTED_EDGE('',*,*,#639,.T.);
#846=ORIENTED_EDGE('',*,*,#636,.T.);
#847=ORIENTED_EDGE('',*,*,#640,.T.);
#848=ORIENTED_EDGE('',*,*,#641,.F.);
#849=ORIENTED_EDGE('',*,*,#642,.F.);
#850=ORIENTED_EDGE('',*,*,#643,.F.);
#851=ORIENTED_EDGE('',*,*,#593,.T.);
#852=ORIENTED_EDGE('',*,*,#642,.T.);
#853=ORIENTED_EDGE('',*,*,#644,.T.);
#854=ORIENTED_EDGE('',*,*,#623,.T.);
#855=ORIENTED_EDGE('',*,*,#645,.T.);
#856=ORIENTED_EDGE('',*,*,#646,.F.);
#857=ORIENTED_EDGE('',*,*,#647,.F.);
#858=ORIENTED_EDGE('',*,*,#589,.T.);
#859=ORIENTED_EDGE('',*,*,#648,.F.);
#860=ORIENTED_EDGE('',*,*,#647,.T.);
#861=ORIENTED_EDGE('',*,*,#649,.T.);
#862=ORIENTED_EDGE('',*,*,#628,.T.);
#863=ORIENTED_EDGE('',*,*,#590,.T.);
#864=ORIENTED_EDGE('',*,*,#650,.F.);
#865=ORIENTED_EDGE('',*,*,#651,.F.);
#866=ORIENTED_EDGE('',*,*,#652,.F.);
#867=ORIENTED_EDGE('',*,*,#587,.T.);
#868=ORIENTED_EDGE('',*,*,#651,.T.);
#869=ORIENTED_EDGE('',*,*,#653,.T.);
#870=ORIENTED_EDGE('',*,*,#633,.T.);
#871=ORIENTED_EDGE('',*,*,#654,.T.);
#872=ORIENTED_EDGE('',*,*,#648,.T.);
#873=ORIENTED_EDGE('',*,*,#588,.T.);
#874=ORIENTED_EDGE('',*,*,#652,.T.);
#875=ORIENTED_EDGE('',*,*,#655,.T.);
#876=ORIENTED_EDGE('',*,*,#643,.T.);
#877=ORIENTED_EDGE('',*,*,#656,.T.);
#878=ORIENTED_EDGE('',*,*,#650,.T.);
#879=ORIENTED_EDGE('',*,*,#594,.T.);
#880=ORIENTED_EDGE('',*,*,#646,.T.);
#881=ORIENTED_EDGE('',*,*,#657,.T.);
#882=ORIENTED_EDGE('',*,*,#629,.T.);
#883=ORIENTED_EDGE('',*,*,#658,.T.);
#884=ORIENTED_EDGE('',*,*,#627,.T.);
#885=ORIENTED_EDGE('',*,*,#659,.T.);
#886=ORIENTED_EDGE('',*,*,#641,.T.);
#887=ORIENTED_EDGE('',*,*,#592,.T.);
#888=ORIENTED_EDGE('',*,*,#619,.T.);
#889=ORIENTED_EDGE('',*,*,#660,.T.);
#890=ORIENTED_EDGE('',*,*,#632,.T.);
#891=ORIENTED_EDGE('',*,*,#661,.T.);
#892=ORIENTED_EDGE('',*,*,#618,.T.);
#893=ORIENTED_EDGE('',*,*,#662,.T.);
#894=ORIENTED_EDGE('',*,*,#626,.T.);
#895=ORIENTED_EDGE('',*,*,#663,.T.);
#896=ORIENTED_EDGE('',*,*,#621,.T.);
#897=ORIENTED_EDGE('',*,*,#664,.T.);
#898=ORIENTED_EDGE('',*,*,#624,.T.);
#899=ORIENTED_EDGE('',*,*,#665,.T.);
#900=ORIENTED_EDGE('',*,*,#570,.F.);
#901=ORIENTED_EDGE('',*,*,#666,.F.);
#902=ORIENTED_EDGE('',*,*,#667,.F.);
#903=ORIENTED_EDGE('',*,*,#668,.F.);
#904=ORIENTED_EDGE('',*,*,#557,.F.);
#905=ORIENTED_EDGE('',*,*,#559,.F.);
#906=ORIENTED_EDGE('',*,*,#669,.F.);
#907=ORIENTED_EDGE('',*,*,#635,.F.);
#908=ORIENTED_EDGE('',*,*,#637,.F.);
#909=ORIENTED_EDGE('',*,*,#625,.F.);
#910=ORIENTED_EDGE('',*,*,#664,.F.);
#911=ORIENTED_EDGE('',*,*,#620,.F.);
#912=ORIENTED_EDGE('',*,*,#661,.F.);
#913=ORIENTED_EDGE('',*,*,#631,.F.);
#914=ORIENTED_EDGE('',*,*,#640,.F.);
#915=ORIENTED_EDGE('',*,*,#638,.F.);
#916=ORIENTED_EDGE('',*,*,#653,.F.);
#917=ORIENTED_EDGE('',*,*,#656,.F.);
#918=ORIENTED_EDGE('',*,*,#645,.F.);
#919=ORIENTED_EDGE('',*,*,#639,.F.);
#920=ORIENTED_EDGE('',*,*,#657,.F.);
#921=ORIENTED_EDGE('',*,*,#655,.F.);
#922=ORIENTED_EDGE('',*,*,#654,.F.);
#923=ORIENTED_EDGE('',*,*,#644,.F.);
#924=ORIENTED_EDGE('',*,*,#659,.F.);
#925=ORIENTED_EDGE('',*,*,#662,.F.);
#926=ORIENTED_EDGE('',*,*,#665,.F.);
#927=ORIENTED_EDGE('',*,*,#649,.F.);
#928=ORIENTED_EDGE('',*,*,#658,.F.);
#929=ORIENTED_EDGE('',*,*,#660,.F.);
#930=ORIENTED_EDGE('',*,*,#663,.F.);
#931=ORIENTED_EDGE('',*,*,#670,.T.);
#932=ORIENTED_EDGE('',*,*,#671,.T.);
#933=ORIENTED_EDGE('',*,*,#667,.T.);
#934=ORIENTED_EDGE('',*,*,#672,.F.);
#935=ORIENTED_EDGE('',*,*,#673,.F.);
#936=ORIENTED_EDGE('',*,*,#674,.F.);
#937=ORIENTED_EDGE('',*,*,#670,.F.);
#938=ORIENTED_EDGE('',*,*,#675,.F.);
#939=ORIENTED_EDGE('',*,*,#586,.T.);
#940=ORIENTED_EDGE('',*,*,#676,.T.);
#941=ORIENTED_EDGE('',*,*,#673,.T.);
#942=ORIENTED_EDGE('',*,*,#677,.F.);
#943=ORIENTED_EDGE('',*,*,#612,.F.);
#944=ORIENTED_EDGE('',*,*,#678,.F.);
#945=ORIENTED_EDGE('',*,*,#599,.F.);
#946=ORIENTED_EDGE('',*,*,#615,.T.);
#947=ORIENTED_EDGE('',*,*,#610,.F.);
#948=ORIENTED_EDGE('',*,*,#614,.F.);
#949=ORIENTED_EDGE('',*,*,#600,.F.);
#950=ORIENTED_EDGE('',*,*,#678,.T.);
#951=ORIENTED_EDGE('',*,*,#573,.F.);
#952=ORIENTED_EDGE('',*,*,#617,.T.);
#953=ORIENTED_EDGE('',*,*,#679,.T.);
#954=ORIENTED_EDGE('',*,*,#666,.T.);
#955=ORIENTED_EDGE('',*,*,#680,.T.);
#956=ORIENTED_EDGE('',*,*,#616,.T.);
#957=ORIENTED_EDGE('',*,*,#681,.T.);
#958=ORIENTED_EDGE('',*,*,#675,.T.);
#959=ORIENTED_EDGE('',*,*,#581,.F.);
#960=ORIENTED_EDGE('',*,*,#677,.T.);
#961=ORIENTED_EDGE('',*,*,#681,.F.);
#962=ORIENTED_EDGE('',*,*,#680,.F.);
#963=ORIENTED_EDGE('',*,*,#672,.T.);
#964=ORIENTED_EDGE('',*,*,#679,.F.);
#965=ORIENTED_EDGE('',*,*,#682,.T.);
#966=ORIENTED_EDGE('',*,*,#683,.T.);
#967=ORIENTED_EDGE('',*,*,#684,.T.);
#968=ORIENTED_EDGE('',*,*,#674,.T.);
#969=ORIENTED_EDGE('',*,*,#682,.F.);
#970=ORIENTED_EDGE('',*,*,#676,.F.);
#971=ORIENTED_EDGE('',*,*,#685,.T.);
#972=ORIENTED_EDGE('',*,*,#671,.F.);
#973=ORIENTED_EDGE('',*,*,#684,.F.);
#974=ORIENTED_EDGE('',*,*,#686,.T.);
#975=ORIENTED_EDGE('',*,*,#686,.F.);
#976=ORIENTED_EDGE('',*,*,#687,.T.);
#977=ORIENTED_EDGE('',*,*,#558,.F.);
#978=ORIENTED_EDGE('',*,*,#668,.T.);
#979=ORIENTED_EDGE('',*,*,#683,.F.);
#980=ORIENTED_EDGE('',*,*,#688,.F.);
#981=ORIENTED_EDGE('',*,*,#555,.F.);
#982=ORIENTED_EDGE('',*,*,#687,.F.);
#983=ORIENTED_EDGE('',*,*,#685,.F.);
#984=ORIENTED_EDGE('',*,*,#585,.T.);
#985=ORIENTED_EDGE('',*,*,#551,.T.);
#986=ORIENTED_EDGE('',*,*,#688,.T.);
#987=ORIENTED_EDGE('',*,*,#537,.F.);
#988=ORIENTED_EDGE('',*,*,#553,.F.);
#989=ORIENTED_EDGE('',*,*,#584,.T.);
#990=ORIENTED_EDGE('',*,*,#546,.F.);
#991=ORIENTED_EDGE('',*,*,#596,.T.);
#992=ORIENTED_EDGE('',*,*,#578,.F.);
#993=ORIENTED_EDGE('',*,*,#669,.T.);
#994=ORIENTED_EDGE('',*,*,#543,.F.);
#995=B_SPLINE_SURFACE_WITH_KNOTS('',3,3,((#1601,#1602,#1603,#1604),(#1605,
#1606,#1607,#1608),(#1609,#1610,#1611,#1612),(#1613,#1614,#1615,#1616)),
 .UNSPECIFIED.,.F.,.F.,.F.,(4,4),(4,4),(0.,1.),(-1.5707963267949,-0.968341693409905),
 .UNSPECIFIED.);
#996=B_SPLINE_SURFACE_WITH_KNOTS('',3,3,((#1623,#1624,#1625,#1626,#1627,
#1628,#1629,#1630),(#1631,#1632,#1633,#1634,#1635,#1636,#1637,#1638),(#1639,
#1640,#1641,#1642,#1643,#1644,#1645,#1646),(#1647,#1648,#1649,#1650,#1651,
#1652,#1653,#1654),(#1655,#1656,#1657,#1658,#1659,#1660,#1661,#1662)),
 .UNSPECIFIED.,.F.,.F.,.F.,(4,1,4),(4,1,1,1,1,4),(0.,0.571428571428571,
1.),(-0.897031490285024,-0.759790198853848,-0.668296004566397,-0.622548907422671,
-0.599675358850808,-0.576801810278946),.UNSPECIFIED.);
#997=B_SPLINE_SURFACE_WITH_KNOTS('',3,3,((#1682,#1683,#1684,#1685),(#1686,
#1687,#1688,#1689),(#1690,#1691,#1692,#1693),(#1694,#1695,#1696,#1697)),
 .UNSPECIFIED.,.F.,.F.,.F.,(4,4),(4,4),(0.,1.),(-1.5707963267949,-0.968341693409905),
 .UNSPECIFIED.);
#998=B_SPLINE_SURFACE_WITH_KNOTS('',3,3,((#1704,#1705,#1706,#1707,#1708,
#1709,#1710,#1711),(#1712,#1713,#1714,#1715,#1716,#1717,#1718,#1719),(#1720,
#1721,#1722,#1723,#1724,#1725,#1726,#1727),(#1728,#1729,#1730,#1731,#1732,
#1733,#1734,#1735),(#1736,#1737,#1738,#1739,#1740,#1741,#1742,#1743)),
 .UNSPECIFIED.,.F.,.F.,.F.,(4,1,4),(4,1,1,1,1,4),(0.,0.571428571428571,
1.),(-0.320229680006077,-0.297356131434214,-0.251609034290489,-0.182988388574901,
-0.0914941942874505,-3.63327231302344E-17),.UNSPECIFIED.);
#999=ADVANCED_FACE('',(#224),#995,.T.);
#1000=ADVANCED_FACE('',(#225),#996,.T.);
#1001=ADVANCED_FACE('',(#226),#997,.T.);
#1002=ADVANCED_FACE('',(#227),#998,.T.);
#1003=ADVANCED_FACE('',(#228),#186,.F.);
#1004=ADVANCED_FACE('',(#229),#40,.T.);
#1005=ADVANCED_FACE('',(#230),#187,.T.);
#1006=ADVANCED_FACE('',(#231),#41,.T.);
#1007=ADVANCED_FACE('',(#232),#188,.T.);
#1008=ADVANCED_FACE('',(#233),#189,.T.);
#1009=ADVANCED_FACE('',(#234),#190,.T.);
#1010=ADVANCED_FACE('',(#235),#32,.T.);
#1011=ADVANCED_FACE('',(#236),#191,.T.);
#1012=ADVANCED_FACE('',(#237),#33,.T.);
#1013=ADVANCED_FACE('',(#238),#192,.T.);
#1014=ADVANCED_FACE('',(#239),#34,.T.);
#1015=ADVANCED_FACE('',(#240),#35,.T.);
#1016=ADVANCED_FACE('',(#241),#193,.T.);
#1017=ADVANCED_FACE('',(#242,#15),#19,.F.);
#1018=ADVANCED_FACE('',(#243),#194,.T.);
#1019=ADVANCED_FACE('',(#244,#16),#20,.T.);
#1020=ADVANCED_FACE('',(#245),#21,.T.);
#1021=ADVANCED_FACE('',(#246),#42,.T.);
#1022=ADVANCED_FACE('',(#247),#195,.T.);
#1023=ADVANCED_FACE('',(#248),#43,.T.);
#1024=ADVANCED_FACE('',(#249),#196,.T.);
#1025=ADVANCED_FACE('',(#250),#22,.F.);
#1026=ADVANCED_FACE('',(#251),#197,.F.);
#1027=ADVANCED_FACE('',(#252,#17),#23,.T.);
#1028=ADVANCED_FACE('',(#253),#44,.T.);
#1029=ADVANCED_FACE('',(#254),#45,.T.);
#1030=ADVANCED_FACE('',(#255),#46,.T.);
#1031=ADVANCED_FACE('',(#256),#47,.T.);
#1032=ADVANCED_FACE('',(#257),#48,.T.);
#1033=ADVANCED_FACE('',(#258),#198,.T.);
#1034=ADVANCED_FACE('',(#259),#199,.T.);
#1035=ADVANCED_FACE('',(#260),#49,.T.);
#1036=ADVANCED_FACE('',(#261),#200,.F.);
#1037=ADVANCED_FACE('',(#262),#50,.T.);
#1038=ADVANCED_FACE('',(#263),#201,.T.);
#1039=ADVANCED_FACE('',(#264),#51,.T.);
#1040=ADVANCED_FACE('',(#265),#202,.F.);
#1041=ADVANCED_FACE('',(#266),#203,.T.);
#1042=ADVANCED_FACE('',(#267),#204,.T.);
#1043=ADVANCED_FACE('',(#268),#205,.F.);
#1044=ADVANCED_FACE('',(#269),#206,.T.);
#1045=ADVANCED_FACE('',(#270),#207,.T.);
#1046=ADVANCED_FACE('',(#271),#208,.F.);
#1047=ADVANCED_FACE('',(#272),#209,.T.);
#1048=ADVANCED_FACE('',(#273,#18),#24,.T.);
#1049=ADVANCED_FACE('',(#274),#25,.T.);
#1050=ADVANCED_FACE('',(#275),#26,.T.);
#1051=ADVANCED_FACE('',(#276),#27,.T.);
#1052=ADVANCED_FACE('',(#277),#28,.T.);
#1053=ADVANCED_FACE('',(#278),#210,.T.);
#1054=ADVANCED_FACE('',(#279),#29,.T.);
#1055=ADVANCED_FACE('',(#280),#211,.T.);
#1056=ADVANCED_FACE('',(#281),#30,.F.);
#1057=ADVANCED_FACE('',(#282),#212,.F.);
#1058=ADVANCED_FACE('',(#283),#213,.T.);
#1059=ADVANCED_FACE('',(#284),#214,.T.);
#1060=ADVANCED_FACE('',(#285),#36,.T.);
#1061=ADVANCED_FACE('',(#286),#37,.T.);
#1062=ADVANCED_FACE('',(#287),#215,.T.);
#1063=ADVANCED_FACE('',(#288),#38,.T.);
#1064=ADVANCED_FACE('',(#289),#39,.T.);
#1065=ADVANCED_FACE('',(#290),#216,.T.);
#1066=ADVANCED_FACE('',(#291),#31,.T.);
#1067=ADVANCED_FACE('',(#292),#217,.T.);
#1068=ADVANCED_FACE('',(#293),#218,.T.);
#1069=ADVANCED_FACE('',(#294),#219,.T.);
#1070=CLOSED_SHELL('',(#999,#1000,#1001,#1002,#1003,#1004,#1005,#1006,#1007,
#1008,#1009,#1010,#1011,#1012,#1013,#1014,#1015,#1016,#1017,#1018,#1019,
#1020,#1021,#1022,#1023,#1024,#1025,#1026,#1027,#1028,#1029,#1030,#1031,
#1032,#1033,#1034,#1035,#1036,#1037,#1038,#1039,#1040,#1041,#1042,#1043,
#1044,#1045,#1046,#1047,#1048,#1049,#1050,#1051,#1052,#1053,#1054,#1055,
#1056,#1057,#1058,#1059,#1060,#1061,#1062,#1063,#1064,#1065,#1066,#1067,
#1068,#1069));
#1071=DERIVED_UNIT_ELEMENT(#1073,1.);
#1072=DERIVED_UNIT_ELEMENT(#2050,-3.);
#1073=(
MASS_UNIT()
NAMED_UNIT(*)
SI_UNIT(.KILO.,.GRAM.)
);
#1074=DERIVED_UNIT((#1071,#1072));
#1075=MEASURE_REPRESENTATION_ITEM('density measure',
POSITIVE_RATIO_MEASURE(7850.),#1074);
#1076=PROPERTY_DEFINITION_REPRESENTATION(#1081,#1078);
#1077=PROPERTY_DEFINITION_REPRESENTATION(#1082,#1079);
#1078=REPRESENTATION('material name',(#1080),#2047);
#1079=REPRESENTATION('density',(#1075),#2047);
#1080=DESCRIPTIVE_REPRESENTATION_ITEM('Steel','Steel');
#1081=PROPERTY_DEFINITION('material property','material name',#2057);
#1082=PROPERTY_DEFINITION('material property','density of part',#2057);
#1083=AXIS2_PLACEMENT_3D('',#1600,#1233,#1234);
#1084=AXIS2_PLACEMENT_3D('',#1619,#1235,#1236);
#1085=AXIS2_PLACEMENT_3D('',#1621,#1237,#1238);
#1086=AXIS2_PLACEMENT_3D('',#1622,#1239,#1240);
#1087=AXIS2_PLACEMENT_3D('',#1665,#1241,#1242);
#1088=AXIS2_PLACEMENT_3D('',#1700,#1243,#1244);
#1089=AXIS2_PLACEMENT_3D('',#1702,#1245,#1246);
#1090=AXIS2_PLACEMENT_3D('',#1703,#1247,#1248);
#1091=AXIS2_PLACEMENT_3D('',#1746,#1249,#1250);
#1092=AXIS2_PLACEMENT_3D('',#1763,#1251,#1252);
#1093=AXIS2_PLACEMENT_3D('',#1766,#1255,#1256);
#1094=AXIS2_PLACEMENT_3D('',#1768,#1257,#1258);
#1095=AXIS2_PLACEMENT_3D('',#1770,#1259,#1260);
#1096=AXIS2_PLACEMENT_3D('',#1772,#1261,#1262);
#1097=AXIS2_PLACEMENT_3D('',#1773,#1263,#1264);
#1098=AXIS2_PLACEMENT_3D('',#1774,#1265,#1266);
#1099=AXIS2_PLACEMENT_3D('',#1776,#1267,#1268);
#1100=AXIS2_PLACEMENT_3D('',#1778,#1270,#1271);
#1101=AXIS2_PLACEMENT_3D('',#1780,#1272,#1273);
#1102=AXIS2_PLACEMENT_3D('',#1782,#1274,#1275);
#1103=AXIS2_PLACEMENT_3D('',#1783,#1276,#1277);
#1104=AXIS2_PLACEMENT_3D('',#1784,#1278,#1279);
#1105=AXIS2_PLACEMENT_3D('',#1786,#1281,#1282);
#1106=AXIS2_PLACEMENT_3D('',#1789,#1283,#1284);
#1107=AXIS2_PLACEMENT_3D('',#1793,#1286,#1287);
#1108=AXIS2_PLACEMENT_3D('',#1795,#1289,#1290);
#1109=AXIS2_PLACEMENT_3D('',#1797,#1291,#1292);
#1110=AXIS2_PLACEMENT_3D('',#1801,#1294,#1295);
#1111=AXIS2_PLACEMENT_3D('',#1803,#1297,#1298);
#1112=AXIS2_PLACEMENT_3D('',#1804,#1299,#1300);
#1113=AXIS2_PLACEMENT_3D('',#1805,#1301,#1302);
#1114=AXIS2_PLACEMENT_3D('',#1807,#1303,#1304);
#1115=AXIS2_PLACEMENT_3D('',#1811,#1306,#1307);
#1116=AXIS2_PLACEMENT_3D('',#1813,#1309,#1310);
#1117=AXIS2_PLACEMENT_3D('',#1814,#1311,#1312);
#1118=AXIS2_PLACEMENT_3D('',#1815,#1313,#1314);
#1119=AXIS2_PLACEMENT_3D('',#1817,#1315,#1316);
#1120=AXIS2_PLACEMENT_3D('',#1820,#1318,#1319);
#1121=AXIS2_PLACEMENT_3D('',#1822,#1321,#1322);
#1122=AXIS2_PLACEMENT_3D('',#1823,#1323,#1324);
#1123=AXIS2_PLACEMENT_3D('',#1824,#1325,#1326);
#1124=AXIS2_PLACEMENT_3D('',#1825,#1327,#1328);
#1125=AXIS2_PLACEMENT_3D('',#1826,#1329,#1330);
#1126=AXIS2_PLACEMENT_3D('',#1830,#1332,#1333);
#1127=AXIS2_PLACEMENT_3D('',#1832,#1335,#1336);
#1128=AXIS2_PLACEMENT_3D('',#1840,#1341,#1342);
#1129=AXIS2_PLACEMENT_3D('',#1844,#1344,#1345);
#1130=AXIS2_PLACEMENT_3D('',#1848,#1347,#1348);
#1131=AXIS2_PLACEMENT_3D('',#1852,#1350,#1351);
#1132=AXIS2_PLACEMENT_3D('',#1854,#1353,#1354);
#1133=AXIS2_PLACEMENT_3D('',#1856,#1356,#1357);
#1134=AXIS2_PLACEMENT_3D('',#1862,#1360,#1361);
#1135=AXIS2_PLACEMENT_3D('',#1865,#1363,#1364);
#1136=AXIS2_PLACEMENT_3D('',#1866,#1365,#1366);
#1137=AXIS2_PLACEMENT_3D('',#1867,#1367,#1368);
#1138=AXIS2_PLACEMENT_3D('',#1870,#1369,#1370);
#1139=AXIS2_PLACEMENT_3D('',#1872,#1371,#1372);
#1140=AXIS2_PLACEMENT_3D('',#1874,#1373,#1374);
#1141=AXIS2_PLACEMENT_3D('',#1875,#1375,#1376);
#1142=AXIS2_PLACEMENT_3D('',#1876,#1377,#1378);
#1143=AXIS2_PLACEMENT_3D('',#1879,#1379,#1380);
#1144=AXIS2_PLACEMENT_3D('',#1882,#1383,#1384);
#1145=AXIS2_PLACEMENT_3D('',#1885,#1385,#1386);
#1146=AXIS2_PLACEMENT_3D('',#1886,#1387,#1388);
#1147=AXIS2_PLACEMENT_3D('',#1887,#1389,#1390);
#1148=AXIS2_PLACEMENT_3D('',#1888,#1391,#1392);
#1149=AXIS2_PLACEMENT_3D('',#1891,#1395,#1396);
#1150=AXIS2_PLACEMENT_3D('',#1894,#1399,#1400);
#1151=AXIS2_PLACEMENT_3D('',#1896,#1402,#1403);
#1152=AXIS2_PLACEMENT_3D('',#1900,#1406,#1407);
#1153=AXIS2_PLACEMENT_3D('',#1903,#1408,#1409);
#1154=AXIS2_PLACEMENT_3D('',#1905,#1410,#1411);
#1155=AXIS2_PLACEMENT_3D('',#1907,#1412,#1413);
#1156=AXIS2_PLACEMENT_3D('',#1908,#1414,#1415);
#1157=AXIS2_PLACEMENT_3D('',#1909,#1416,#1417);
#1158=AXIS2_PLACEMENT_3D('',#1912,#1418,#1419);
#1159=AXIS2_PLACEMENT_3D('',#1914,#1420,#1421);
#1160=AXIS2_PLACEMENT_3D('',#1916,#1422,#1423);
#1161=AXIS2_PLACEMENT_3D('',#1917,#1424,#1425);
#1162=AXIS2_PLACEMENT_3D('',#1918,#1426,#1427);
#1163=AXIS2_PLACEMENT_3D('',#1921,#1428,#1429);
#1164=AXIS2_PLACEMENT_3D('',#1922,#1430,#1431);
#1165=AXIS2_PLACEMENT_3D('',#1923,#1432,#1433);
#1166=AXIS2_PLACEMENT_3D('',#1924,#1434,#1435);
#1167=AXIS2_PLACEMENT_3D('',#1927,#1436,#1437);
#1168=AXIS2_PLACEMENT_3D('',#1929,#1438,#1439);
#1169=AXIS2_PLACEMENT_3D('',#1931,#1440,#1441);
#1170=AXIS2_PLACEMENT_3D('',#1932,#1442,#1443);
#1171=AXIS2_PLACEMENT_3D('',#1933,#1444,#1445);
#1172=AXIS2_PLACEMENT_3D('',#1936,#1446,#1447);
#1173=AXIS2_PLACEMENT_3D('',#1938,#1448,#1449);
#1174=AXIS2_PLACEMENT_3D('',#1940,#1450,#1451);
#1175=AXIS2_PLACEMENT_3D('',#1941,#1452,#1453);
#1176=AXIS2_PLACEMENT_3D('',#1942,#1454,#1455);
#1177=AXIS2_PLACEMENT_3D('',#1945,#1458,#1459);
#1178=AXIS2_PLACEMENT_3D('',#1948,#1462,#1463);
#1179=AXIS2_PLACEMENT_3D('',#1950,#1464,#1465);
#1180=AXIS2_PLACEMENT_3D('',#1952,#1466,#1467);
#1181=AXIS2_PLACEMENT_3D('',#1953,#1468,#1469);
#1182=AXIS2_PLACEMENT_3D('',#1954,#1470,#1471);
#1183=AXIS2_PLACEMENT_3D('',#1957,#1474,#1475);
#1184=AXIS2_PLACEMENT_3D('',#1960,#1476,#1477);
#1185=AXIS2_PLACEMENT_3D('',#1961,#1478,#1479);
#1186=AXIS2_PLACEMENT_3D('',#1962,#1480,#1481);
#1187=AXIS2_PLACEMENT_3D('',#1963,#1482,#1483);
#1188=AXIS2_PLACEMENT_3D('',#1965,#1485,#1486);
#1189=AXIS2_PLACEMENT_3D('',#1967,#1487,#1488);
#1190=AXIS2_PLACEMENT_3D('',#1969,#1489,#1490);
#1191=AXIS2_PLACEMENT_3D('',#1970,#1491,#1492);
#1192=AXIS2_PLACEMENT_3D('',#1971,#1493,#1494);
#1193=AXIS2_PLACEMENT_3D('',#1974,#1497,#1498);
#1194=AXIS2_PLACEMENT_3D('',#1976,#1500,#1501);
#1195=AXIS2_PLACEMENT_3D('',#1978,#1503,#1504);
#1196=AXIS2_PLACEMENT_3D('',#1981,#1507,#1508);
#1197=AXIS2_PLACEMENT_3D('',#1983,#1510,#1511);
#1198=AXIS2_PLACEMENT_3D('',#1986,#1514,#1515);
#1199=AXIS2_PLACEMENT_3D('',#1989,#1518,#1519);
#1200=AXIS2_PLACEMENT_3D('',#1992,#1522,#1523);
#1201=AXIS2_PLACEMENT_3D('',#1999,#1528,#1529);
#1202=AXIS2_PLACEMENT_3D('',#2000,#1530,#1531);
#1203=AXIS2_PLACEMENT_3D('',#2001,#1532,#1533);
#1204=AXIS2_PLACEMENT_3D('',#2002,#1534,#1535);
#1205=AXIS2_PLACEMENT_3D('',#2003,#1536,#1537);
#1206=AXIS2_PLACEMENT_3D('',#2007,#1539,#1540);
#1207=AXIS2_PLACEMENT_3D('',#2008,#1541,#1542);
#1208=AXIS2_PLACEMENT_3D('',#2009,#1543,#1544);
#1209=AXIS2_PLACEMENT_3D('',#2015,#1548,#1549);
#1210=AXIS2_PLACEMENT_3D('',#2016,#1550,#1551);
#1211=AXIS2_PLACEMENT_3D('',#2017,#1552,#1553);
#1212=AXIS2_PLACEMENT_3D('',#2018,#1554,#1555);
#1213=AXIS2_PLACEMENT_3D('',#2020,#1557,#1558);
#1214=AXIS2_PLACEMENT_3D('',#2021,#1559,#1560);
#1215=AXIS2_PLACEMENT_3D('',#2022,#1561,#1562);
#1216=AXIS2_PLACEMENT_3D('',#2023,#1563,#1564);
#1217=AXIS2_PLACEMENT_3D('',#2024,#1565,#1566);
#1218=AXIS2_PLACEMENT_3D('',#2025,#1567,#1568);
#1219=AXIS2_PLACEMENT_3D('',#2026,#1569,#1570);
#1220=AXIS2_PLACEMENT_3D('',#2027,#1571,#1572);
#1221=AXIS2_PLACEMENT_3D('',#2028,#1573,#1574);
#1222=AXIS2_PLACEMENT_3D('',#2030,#1575,#1576);
#1223=AXIS2_PLACEMENT_3D('',#2033,#1578,#1579);
#1224=AXIS2_PLACEMENT_3D('',#2034,#1580,#1581);
#1225=AXIS2_PLACEMENT_3D('',#2035,#1582,#1583);
#1226=AXIS2_PLACEMENT_3D('',#2036,#1584,#1585);
#1227=AXIS2_PLACEMENT_3D('',#2037,#1586,#1587);
#1228=AXIS2_PLACEMENT_3D('',#2038,#1588,#1589);
#1229=AXIS2_PLACEMENT_3D('',#2040,#1591,#1592);
#1230=AXIS2_PLACEMENT_3D('',#2042,#1594,#1595);
#1231=AXIS2_PLACEMENT_3D('',#2043,#1596,#1597);
#1232=AXIS2_PLACEMENT_3D('',#2044,#1598,#1599);
#1233=DIRECTION('axis',(0.,0.,1.));
#1234=DIRECTION('refdir',(1.,0.,0.));
#1235=DIRECTION('center_axis',(0.635899338129047,0.437337470992463,0.635899338129044));
#1236=DIRECTION('ref_axis',(0.,0.823947139620551,-0.566666666666668));
#1237=DIRECTION('center_axis',(0.948683298050514,0.,-0.316227766016838));
#1238=DIRECTION('ref_axis',(0.316227766016838,4.38854183572087E-17,0.948683298050514));
#1239=DIRECTION('center_axis',(-0.316227766016838,0.,0.948683298050514));
#1240=DIRECTION('ref_axis',(0.948683298050514,4.38854183572088E-17,0.316227766016838));
#1241=DIRECTION('center_axis',(5.18693003821806E-16,1.,4.16333634234434E-16));
#1242=DIRECTION('ref_axis',(0.,4.16333634234434E-16,-1.));
#1243=DIRECTION('center_axis',(0.635899338129046,-0.437337470992463,0.635899338129045));
#1244=DIRECTION('ref_axis',(-0.566666666666666,-0.823947139620552,0.));
#1245=DIRECTION('center_axis',(-0.316227766016838,0.,0.948683298050514));
#1246=DIRECTION('ref_axis',(0.948683298050514,0.,0.316227766016838));
#1247=DIRECTION('center_axis',(0.948683298050514,0.,-0.316227766016838));
#1248=DIRECTION('ref_axis',(0.316227766016838,0.,0.948683298050514));
#1249=DIRECTION('center_axis',(0.,-1.,0.));
#1250=DIRECTION('ref_axis',(-0.995679441899052,0.,-0.0928571428571429));
#1251=DIRECTION('center_axis',(0.,1.,0.));
#1252=DIRECTION('ref_axis',(-0.673477118075609,0.,-0.739208070456873));
#1253=DIRECTION('',(0.,-1.,0.));
#1254=DIRECTION('',(0.,1.,0.));
#1255=DIRECTION('center_axis',(0.,1.,0.));
#1256=DIRECTION('ref_axis',(0.,0.,1.));
#1257=DIRECTION('center_axis',(0.,-1.,0.));
#1258=DIRECTION('ref_axis',(0.707106781186548,0.,0.707106781186547));
#1259=DIRECTION('center_axis',(-1.,0.,0.));
#1260=DIRECTION('ref_axis',(0.,-1.,0.));
#1261=DIRECTION('center_axis',(0.,1.,0.));
#1262=DIRECTION('ref_axis',(0.707106781186548,0.,0.707106781186547));
#1263=DIRECTION('center_axis',(1.11022302462516E-15,0.,1.));
#1264=DIRECTION('ref_axis',(0.,-1.,0.));
#1265=DIRECTION('center_axis',(0.,1.,0.));
#1266=DIRECTION('ref_axis',(0.707106781186548,0.,0.707106781186548));
#1267=DIRECTION('center_axis',(0.,1.,0.));
#1268=DIRECTION('ref_axis',(0.707106781186548,0.,0.707106781186547));
#1269=DIRECTION('',(0.,-1.,0.));
#1270=DIRECTION('center_axis',(0.,-1.,0.));
#1271=DIRECTION('ref_axis',(0.,0.,-1.));
#1272=DIRECTION('center_axis',(0.,0.,1.));
#1273=DIRECTION('ref_axis',(1.,0.,0.));
#1274=DIRECTION('center_axis',(0.,-1.,0.));
#1275=DIRECTION('ref_axis',(0.707106781186548,0.,0.707106781186547));
#1276=DIRECTION('center_axis',(1.,0.,1.11022302462516E-15));
#1277=DIRECTION('ref_axis',(0.,1.,0.));
#1278=DIRECTION('center_axis',(0.,0.,-1.));
#1279=DIRECTION('ref_axis',(0.707106781186548,0.707106781186548,0.));
#1280=DIRECTION('',(0.,0.,1.));
#1281=DIRECTION('center_axis',(0.,0.,-1.));
#1282=DIRECTION('ref_axis',(0.70710678118654,-0.707106781186555,0.));
#1283=DIRECTION('center_axis',(0.,0.,-1.));
#1284=DIRECTION('ref_axis',(1.,0.,0.));
#1285=DIRECTION('',(0.,0.,-1.));
#1286=DIRECTION('center_axis',(0.,-1.11022302462516E-15,1.));
#1287=DIRECTION('ref_axis',(0.,-1.,-1.11022302462516E-15));
#1288=DIRECTION('',(0.,0.,1.));
#1289=DIRECTION('center_axis',(0.,1.,0.));
#1290=DIRECTION('ref_axis',(0.707106781186553,0.,-0.707106781186543));
#1291=DIRECTION('center_axis',(0.,1.,0.));
#1292=DIRECTION('ref_axis',(1.,0.,0.));
#1293=DIRECTION('',(0.,1.,0.));
#1294=DIRECTION('center_axis',(0.,-1.,0.));
#1295=DIRECTION('ref_axis',(0.,0.,-1.));
#1296=DIRECTION('',(0.,-1.,0.));
#1297=DIRECTION('center_axis',(-0.816496580927732,-0.408248290463857,-0.408248290463857));
#1298=DIRECTION('ref_axis',(0.577350269189621,-0.577350269189629,-0.577350269189628));
#1299=DIRECTION('center_axis',(1.,0.,2.46519032881566E-33));
#1300=DIRECTION('ref_axis',(0.,-0.707106781186548,-0.707106781186547));
#1301=DIRECTION('center_axis',(0.,0.,1.));
#1302=DIRECTION('ref_axis',(0.70710678118654,0.707106781186555,0.));
#1303=DIRECTION('center_axis',(0.,1.11022302462516E-15,1.));
#1304=DIRECTION('ref_axis',(1.,0.,0.));
#1305=DIRECTION('',(0.,0.,1.));
#1306=DIRECTION('center_axis',(0.,0.,-1.));
#1307=DIRECTION('ref_axis',(1.77635683940025E-14,1.,0.));
#1308=DIRECTION('',(0.,0.,-1.));
#1309=DIRECTION('center_axis',(-0.40824829046386,-0.408248290463853,-0.816496580927732));
#1310=DIRECTION('ref_axis',(0.577350269189637,0.57735026918962,-0.57735026918962));
#1311=DIRECTION('center_axis',(1.,0.,2.46519032881566E-33));
#1312=DIRECTION('ref_axis',(0.,0.707106781186548,-0.707106781186547));
#1313=DIRECTION('center_axis',(0.,-1.,0.));
#1314=DIRECTION('ref_axis',(0.70710678118654,0.,0.707106781186555));
#1315=DIRECTION('center_axis',(0.,-1.,0.));
#1316=DIRECTION('ref_axis',(1.,0.,0.));
#1317=DIRECTION('',(0.,-1.,0.));
#1318=DIRECTION('center_axis',(0.,1.,0.));
#1319=DIRECTION('ref_axis',(0.,0.,1.));
#1320=DIRECTION('',(0.,1.,0.));
#1321=DIRECTION('center_axis',(0.40824829046386,-0.816496580927721,0.408248290463877));
#1322=DIRECTION('ref_axis',(0.577350269189609,0.577350269189634,0.577350269189634));
#1323=DIRECTION('center_axis',(1.,0.,0.));
#1324=DIRECTION('ref_axis',(0.,0.707106781186548,0.707106781186548));
#1325=DIRECTION('center_axis',(-0.40824829046386,-0.816496580927721,-0.408248290463877));
#1326=DIRECTION('ref_axis',(0.577350269189609,-0.577350269189634,0.577350269189635));
#1327=DIRECTION('center_axis',(1.,0.,0.));
#1328=DIRECTION('ref_axis',(0.,-0.707106781186547,0.707106781186548));
#1329=DIRECTION('center_axis',(1.,0.,2.46519032881566E-33));
#1330=DIRECTION('ref_axis',(0.,-0.707106781186548,-0.707106781186547));
#1331=DIRECTION('',(1.,0.,0.));
#1332=DIRECTION('center_axis',(1.,-3.33066907387547E-15,0.));
#1333=DIRECTION('ref_axis',(-3.33066907387547E-15,-1.,0.));
#1334=DIRECTION('',(1.,0.,2.46519032881566E-33));
#1335=DIRECTION('center_axis',(0.,1.,0.));
#1336=DIRECTION('ref_axis',(1.,0.,0.));
#1337=DIRECTION('',(1.,0.,0.));
#1338=DIRECTION('',(0.,0.,-1.));
#1339=DIRECTION('',(1.,0.,0.));
#1340=DIRECTION('',(0.,0.,1.));
#1341=DIRECTION('center_axis',(0.,-1.,0.));
#1342=DIRECTION('ref_axis',(0.707106781186547,0.,-0.707106781186548));
#1343=DIRECTION('',(1.,0.,0.));
#1344=DIRECTION('center_axis',(0.,-1.,0.));
#1345=DIRECTION('ref_axis',(-0.707106781186547,0.,-0.707106781186548));
#1346=DIRECTION('',(0.,0.,-1.));
#1347=DIRECTION('center_axis',(0.,-1.,0.));
#1348=DIRECTION('ref_axis',(-0.707106781186547,0.,0.707106781186548));
#1349=DIRECTION('',(-1.,0.,0.));
#1350=DIRECTION('center_axis',(0.,-1.,0.));
#1351=DIRECTION('ref_axis',(0.707106781186548,0.,0.707106781186548));
#1352=DIRECTION('',(0.,0.,1.));
#1353=DIRECTION('center_axis',(1.,0.,0.));
#1354=DIRECTION('ref_axis',(0.,-0.707106781186547,0.707106781186548));
#1355=DIRECTION('',(1.,0.,0.));
#1356=DIRECTION('center_axis',(0.,0.,1.));
#1357=DIRECTION('ref_axis',(1.,0.,0.));
#1358=DIRECTION('',(1.,0.,0.));
#1359=DIRECTION('',(1.,0.,0.));
#1360=DIRECTION('center_axis',(0.,0.,-1.));
#1361=DIRECTION('ref_axis',(0.,-1.,0.));
#1362=DIRECTION('',(-1.,7.59789500092635E-16,0.));
#1363=DIRECTION('center_axis',(0.,0.,-1.));
#1364=DIRECTION('ref_axis',(0.,1.,0.));
#1365=DIRECTION('center_axis',(1.,0.,0.));
#1366=DIRECTION('ref_axis',(0.,0.,-1.));
#1367=DIRECTION('center_axis',(-2.46519032881566E-33,0.,1.));
#1368=DIRECTION('ref_axis',(1.,0.,0.));
#1369=DIRECTION('center_axis',(1.,0.,0.));
#1370=DIRECTION('ref_axis',(0.,0.,-1.));
#1371=DIRECTION('center_axis',(-2.46519032881566E-33,0.,1.));
#1372=DIRECTION('ref_axis',(1.,-3.46389583683041E-13,0.));
#1373=DIRECTION('center_axis',(1.,-7.10542539882591E-13,0.));
#1374=DIRECTION('ref_axis',(-7.10542539882591E-13,-1.,0.));
#1375=DIRECTION('center_axis',(2.46519032881566E-33,0.,-1.));
#1376=DIRECTION('ref_axis',(1.,-3.46389583683041E-13,2.46519032881566E-33));
#1377=DIRECTION('center_axis',(-1.,0.,-2.46519032881566E-33));
#1378=DIRECTION('ref_axis',(0.,-0.707106781186548,-0.707106781186548));
#1379=DIRECTION('center_axis',(1.,0.,0.));
#1380=DIRECTION('ref_axis',(0.,-1.,0.));
#1381=DIRECTION('',(1.,0.,2.46519032881566E-33));
#1382=DIRECTION('',(-1.,0.,-2.46519032881566E-33));
#1383=DIRECTION('center_axis',(-2.46519032881566E-33,0.,1.));
#1384=DIRECTION('ref_axis',(-1.,-6.77200517885193E-11,0.));
#1385=DIRECTION('center_axis',(-1.,-1.35438289885111E-10,0.));
#1386=DIRECTION('ref_axis',(-1.35438289885111E-10,1.,0.));
#1387=DIRECTION('center_axis',(2.46519032881566E-33,0.,-1.));
#1388=DIRECTION('ref_axis',(-1.,-6.77202738331561E-11,-2.46519032881566E-33));
#1389=DIRECTION('center_axis',(-2.46519032881566E-33,0.,1.));
#1390=DIRECTION('ref_axis',(-1.,-6.77202738331561E-11,0.));
#1391=DIRECTION('center_axis',(1.,-7.59789500092636E-16,2.46519032881566E-33));
#1392=DIRECTION('ref_axis',(0.,0.707106781186547,-0.707106781186548));
#1393=DIRECTION('',(-1.,7.59789500092635E-16,-2.46519032881566E-33));
#1394=DIRECTION('',(1.,-7.59789500092635E-16,2.46519032881566E-33));
#1395=DIRECTION('center_axis',(0.,1.,0.));
#1396=DIRECTION('ref_axis',(1.,0.,0.));
#1397=DIRECTION('',(0.,0.,-1.));
#1398=DIRECTION('',(0.,0.,-1.));
#1399=DIRECTION('center_axis',(0.,0.,-1.));
#1400=DIRECTION('ref_axis',(0.,-1.,0.));
#1401=DIRECTION('',(0.,0.,-1.));
#1402=DIRECTION('center_axis',(2.46519032881566E-33,0.,-1.));
#1403=DIRECTION('ref_axis',(-1.,0.,-2.46519032881566E-33));
#1404=DIRECTION('',(0.,-1.,0.));
#1405=DIRECTION('',(-1.,0.,-2.46519032881566E-33));
#1406=DIRECTION('center_axis',(0.,-1.,0.));
#1407=DIRECTION('ref_axis',(0.,0.,-1.));
#1408=DIRECTION('center_axis',(0.,-1.,0.));
#1409=DIRECTION('ref_axis',(-1.,0.,0.));
#1410=DIRECTION('center_axis',(0.,0.,-1.));
#1411=DIRECTION('ref_axis',(0.,1.,0.));
#1412=DIRECTION('center_axis',(0.,1.,0.));
#1413=DIRECTION('ref_axis',(-0.707106781186547,0.,0.707106781186548));
#1414=DIRECTION('center_axis',(1.,0.,0.));
#1415=DIRECTION('ref_axis',(0.,0.,-1.));
#1416=DIRECTION('center_axis',(0.,-1.,0.));
#1417=DIRECTION('ref_axis',(0.,0.,-1.));
#1418=DIRECTION('center_axis',(0.,0.,-1.));
#1419=DIRECTION('ref_axis',(-1.,0.,0.));
#1420=DIRECTION('center_axis',(0.,-1.,0.));
#1421=DIRECTION('ref_axis',(0.,0.,1.));
#1422=DIRECTION('center_axis',(-1.,0.,0.));
#1423=DIRECTION('ref_axis',(0.,1.,0.));
#1424=DIRECTION('center_axis',(0.,1.,0.));
#1425=DIRECTION('ref_axis',(0.707106781186548,0.,0.707106781186548));
#1426=DIRECTION('center_axis',(0.,1.,0.));
#1427=DIRECTION('ref_axis',(0.,0.,1.));
#1428=DIRECTION('center_axis',(0.,1.,0.));
#1429=DIRECTION('ref_axis',(0.,0.,1.));
#1430=DIRECTION('center_axis',(1.,0.,0.));
#1431=DIRECTION('ref_axis',(0.,-1.,0.));
#1432=DIRECTION('center_axis',(0.,0.,-1.));
#1433=DIRECTION('ref_axis',(1.,0.,0.));
#1434=DIRECTION('center_axis',(0.,-1.,0.));
#1435=DIRECTION('ref_axis',(0.,0.,-1.));
#1436=DIRECTION('center_axis',(0.,-1.,0.));
#1437=DIRECTION('ref_axis',(0.,0.,-1.));
#1438=DIRECTION('center_axis',(1.,0.,0.));
#1439=DIRECTION('ref_axis',(0.,1.,0.));
#1440=DIRECTION('center_axis',(0.,1.,0.));
#1441=DIRECTION('ref_axis',(-0.707106781186547,0.,-0.707106781186548));
#1442=DIRECTION('center_axis',(0.,0.,1.));
#1443=DIRECTION('ref_axis',(1.,0.,0.));
#1444=DIRECTION('center_axis',(0.,-1.,0.));
#1445=DIRECTION('ref_axis',(0.,0.,-1.));
#1446=DIRECTION('center_axis',(0.,-1.,0.));
#1447=DIRECTION('ref_axis',(1.,0.,0.));
#1448=DIRECTION('center_axis',(0.,0.,1.));
#1449=DIRECTION('ref_axis',(0.,1.,0.));
#1450=DIRECTION('center_axis',(0.,1.,0.));
#1451=DIRECTION('ref_axis',(0.707106781186547,0.,-0.707106781186548));
#1452=DIRECTION('center_axis',(-1.,0.,0.));
#1453=DIRECTION('ref_axis',(0.,0.,1.));
#1454=DIRECTION('center_axis',(0.,0.,1.));
#1455=DIRECTION('ref_axis',(-0.707106781186547,0.707106781186548,0.));
#1456=DIRECTION('',(0.,0.,-1.));
#1457=DIRECTION('',(0.,0.,1.));
#1458=DIRECTION('center_axis',(-1.,0.,0.));
#1459=DIRECTION('ref_axis',(0.,0.707106781186548,0.707106781186547));
#1460=DIRECTION('',(1.,0.,0.));
#1461=DIRECTION('',(-1.,0.,0.));
#1462=DIRECTION('center_axis',(0.,1.,0.));
#1463=DIRECTION('ref_axis',(0.,0.,1.));
#1464=DIRECTION('center_axis',(-1.,0.,0.));
#1465=DIRECTION('ref_axis',(0.,0.,-1.));
#1466=DIRECTION('center_axis',(0.,1.,0.));
#1467=DIRECTION('ref_axis',(1.,0.,0.));
#1468=DIRECTION('center_axis',(0.,0.,-1.));
#1469=DIRECTION('ref_axis',(0.,-1.,0.));
#1470=DIRECTION('center_axis',(0.,-1.,0.));
#1471=DIRECTION('ref_axis',(0.707106781186548,0.,0.707106781186548));
#1472=DIRECTION('',(0.,1.,0.));
#1473=DIRECTION('',(0.,-1.,0.));
#1474=DIRECTION('center_axis',(0.,1.,0.));
#1475=DIRECTION('ref_axis',(0.,0.,1.));
#1476=DIRECTION('center_axis',(0.,1.,0.));
#1477=DIRECTION('ref_axis',(-1.,0.,0.));
#1478=DIRECTION('center_axis',(0.,0.,1.));
#1479=DIRECTION('ref_axis',(0.,-1.,0.));
#1480=DIRECTION('center_axis',(1.,0.,0.));
#1481=DIRECTION('ref_axis',(0.,0.,1.));
#1482=DIRECTION('center_axis',(0.,0.,-1.));
#1483=DIRECTION('ref_axis',(0.707106781186547,-0.707106781186548,0.));
#1484=DIRECTION('',(0.,0.,1.));
#1485=DIRECTION('center_axis',(0.,1.,0.));
#1486=DIRECTION('ref_axis',(0.,0.,1.));
#1487=DIRECTION('center_axis',(0.,0.,1.));
#1488=DIRECTION('ref_axis',(-1.,0.,0.));
#1489=DIRECTION('center_axis',(0.,1.,0.));
#1490=DIRECTION('ref_axis',(0.,0.,-1.));
#1491=DIRECTION('center_axis',(-1.,0.,0.));
#1492=DIRECTION('ref_axis',(0.,-1.,0.));
#1493=DIRECTION('center_axis',(0.,-1.,0.));
#1494=DIRECTION('ref_axis',(0.707106781186547,0.,-0.707106781186548));
#1495=DIRECTION('',(0.,1.,0.));
#1496=DIRECTION('',(0.,-1.,0.));
#1497=DIRECTION('center_axis',(-1.,0.,0.));
#1498=DIRECTION('ref_axis',(0.,-0.707106781186547,0.707106781186548));
#1499=DIRECTION('',(-1.,0.,0.));
#1500=DIRECTION('center_axis',(0.,0.,1.));
#1501=DIRECTION('ref_axis',(-0.707106781186547,-0.707106781186548,0.));
#1502=DIRECTION('',(0.,0.,-1.));
#1503=DIRECTION('center_axis',(0.,-1.,0.));
#1504=DIRECTION('ref_axis',(-0.707106781186547,0.,-0.707106781186548));
#1505=DIRECTION('',(0.,1.,0.));
#1506=DIRECTION('',(0.,-1.,0.));
#1507=DIRECTION('center_axis',(-1.,0.,0.));
#1508=DIRECTION('ref_axis',(0.,-0.707106781186548,-0.707106781186547));
#1509=DIRECTION('',(1.,0.,0.));
#1510=DIRECTION('center_axis',(0.,0.,1.));
#1511=DIRECTION('ref_axis',(0.707106781186547,0.707106781186548,0.));
#1512=DIRECTION('',(0.,0.,-1.));
#1513=DIRECTION('',(0.,0.,1.));
#1514=DIRECTION('center_axis',(0.,1.,0.));
#1515=DIRECTION('ref_axis',(-0.707106781186547,0.,0.707106781186548));
#1516=DIRECTION('',(0.,-1.,0.));
#1517=DIRECTION('',(0.,1.,0.));
#1518=DIRECTION('center_axis',(-1.,0.,0.));
#1519=DIRECTION('ref_axis',(0.,0.707106781186548,-0.707106781186547));
#1520=DIRECTION('',(1.,0.,0.));
#1521=DIRECTION('',(-1.,0.,0.));
#1522=DIRECTION('center_axis',(0.,1.,0.));
#1523=DIRECTION('ref_axis',(0.,0.,1.));
#1524=DIRECTION('',(1.,0.,2.46519032881566E-33));
#1525=DIRECTION('',(0.,0.,-1.));
#1526=DIRECTION('',(-1.,0.,0.));
#1527=DIRECTION('',(-1.,0.,0.));
#1528=DIRECTION('center_axis',(-1.,0.,0.));
#1529=DIRECTION('ref_axis',(0.,0.,1.));
#1530=DIRECTION('center_axis',(0.,0.,1.));
#1531=DIRECTION('ref_axis',(1.,0.,0.));
#1532=DIRECTION('center_axis',(0.,0.,-1.));
#1533=DIRECTION('ref_axis',(-1.,0.,0.));
#1534=DIRECTION('center_axis',(1.,0.,0.));
#1535=DIRECTION('ref_axis',(0.,0.,-1.));
#1536=DIRECTION('center_axis',(-3.43125449862094E-33,0.,-1.));
#1537=DIRECTION('ref_axis',(-0.707106781186547,0.707106781186548,0.));
#1538=DIRECTION('',(0.,0.,1.));
#1539=DIRECTION('center_axis',(0.,0.,-1.));
#1540=DIRECTION('ref_axis',(-1.,0.,0.));
#1541=DIRECTION('center_axis',(0.,0.,-1.));
#1542=DIRECTION('ref_axis',(-0.707106781186547,0.707106781186548,0.));
#1543=DIRECTION('center_axis',(-1.,0.,3.43125449862094E-33));
#1544=DIRECTION('ref_axis',(3.43125449862094E-33,0.,1.));
#1545=DIRECTION('',(-3.43125449862094E-33,0.,-1.));
#1546=DIRECTION('',(0.,-1.,0.));
#1547=DIRECTION('',(0.,1.,0.));
#1548=DIRECTION('center_axis',(3.43125449862094E-33,0.,1.));
#1549=DIRECTION('ref_axis',(-0.707106781186548,-0.707106781186547,0.));
#1550=DIRECTION('center_axis',(0.,0.,-1.));
#1551=DIRECTION('ref_axis',(0.,-1.,0.));
#1552=DIRECTION('center_axis',(0.,0.,-1.));
#1553=DIRECTION('ref_axis',(-0.707106781186548,-0.707106781186547,0.));
#1554=DIRECTION('center_axis',(-7.59789500092636E-16,-1.,0.));
#1555=DIRECTION('ref_axis',(-1.,7.59789500092635E-16,0.));
#1556=DIRECTION('',(0.,0.,-1.));
#1557=DIRECTION('center_axis',(0.,0.,-1.));
#1558=DIRECTION('ref_axis',(-1.,-6.77202354854756E-11,0.));
#1559=DIRECTION('center_axis',(-1.,0.,-2.46519032881566E-33));
#1560=DIRECTION('ref_axis',(0.,0.707106781186548,-0.707106781186547));
#1561=DIRECTION('center_axis',(1.,3.33066907387547E-15,0.));
#1562=DIRECTION('ref_axis',(0.,0.,-1.));
#1563=DIRECTION('center_axis',(0.,-1.,0.));
#1564=DIRECTION('ref_axis',(-0.707106781186549,0.,-0.707106781186546));
#1565=DIRECTION('center_axis',(0.,-1.,0.));
#1566=DIRECTION('ref_axis',(-1.,0.,-2.77555756156288E-16));
#1567=DIRECTION('center_axis',(0.,1.,0.));
#1568=DIRECTION('ref_axis',(0.,0.,-1.));
#1569=DIRECTION('center_axis',(-0.816496580927727,0.408248290463862,0.408248290463862));
#1570=DIRECTION('ref_axis',(-0.577350269189625,-0.577350269189626,-0.577350269189626));
#1571=DIRECTION('center_axis',(-0.408248290463863,-0.816496580927726,-0.408248290463864));
#1572=DIRECTION('ref_axis',(-0.577350269189625,0.577350269189626,-0.577350269189626));
#1573=DIRECTION('center_axis',(0.,1.,0.));
#1574=DIRECTION('ref_axis',(-0.707106781186546,0.,0.707106781186549));
#1575=DIRECTION('center_axis',(0.,1.,0.));
#1576=DIRECTION('ref_axis',(-1.,0.,0.));
#1577=DIRECTION('',(0.,1.,0.));
#1578=DIRECTION('center_axis',(0.,-1.,0.));
#1579=DIRECTION('ref_axis',(2.77555756156289E-16,0.,1.));
#1580=DIRECTION('center_axis',(0.408248290463863,-0.816496580927726,-0.408248290463863));
#1581=DIRECTION('ref_axis',(-0.577350269189626,-0.577350269189626,0.577350269189626));
#1582=DIRECTION('center_axis',(-1.,0.,0.));
#1583=DIRECTION('ref_axis',(0.,-0.707106781186545,0.70710678118655));
#1584=DIRECTION('center_axis',(-0.408248290463863,-0.816496580927726,0.408248290463863));
#1585=DIRECTION('ref_axis',(-0.577350269189626,0.577350269189626,0.577350269189626));
#1586=DIRECTION('center_axis',(-1.,0.,0.));
#1587=DIRECTION('ref_axis',(0.,0.707106781186545,0.70710678118655));
#1588=DIRECTION('center_axis',(1.,0.,0.));
#1589=DIRECTION('ref_axis',(0.,0.707106781186546,0.707106781186549));
#1590=DIRECTION('',(1.,0.,0.));
#1591=DIRECTION('center_axis',(0.,0.,1.));
#1592=DIRECTION('ref_axis',(1.,0.,0.));
#1593=DIRECTION('',(-1.,0.,0.));
#1594=DIRECTION('center_axis',(1.,0.,0.));
#1595=DIRECTION('ref_axis',(0.,-0.707106781186546,0.707106781186549));
#1596=DIRECTION('center_axis',(0.,0.,-1.));
#1597=DIRECTION('ref_axis',(0.707106781186549,-0.707106781186546,0.));
#1598=DIRECTION('center_axis',(-1.,0.,0.));
#1599=DIRECTION('ref_axis',(0.,0.707106781186548,0.707106781186548));
#1600=CARTESIAN_POINT('',(0.,0.,0.));
#1601=CARTESIAN_POINT('Ctrl Pts',(18.4,2.77555756156289E-16,7.));
#1602=CARTESIAN_POINT('Ctrl Pts',(18.6008182111283,2.91490318766208E-16,
7.60245463338499));
#1603=CARTESIAN_POINT('Ctrl Pts',(18.8012030760238,0.0622558740733954,8.20360922807129));
#1604=CARTESIAN_POINT('Ctrl Pts',(18.9666666666667,0.17605286037945,8.70000000000001));
#1605=CARTESIAN_POINT('Ctrl Pts',(18.4,2.77555756156289E-16,7.));
#1606=CARTESIAN_POINT('Ctrl Pts',(18.7346970185472,2.91490318766208E-16,
7.4685758259661));
#1607=CARTESIAN_POINT('Ctrl Pts',(19.0650000012391,0.154624317242218,7.93560334419882));
#1608=CARTESIAN_POINT('Ctrl Pts',(19.254679887188,0.374132911611764,8.27575794031227));
#1609=CARTESIAN_POINT('Ctrl Pts',(18.4,2.77555756156289E-16,7.));
#1610=CARTESIAN_POINT('Ctrl Pts',(18.8685758259661,2.91490318766208E-16,
7.33469701854722));
#1611=CARTESIAN_POINT('Ctrl Pts',(19.3356033441988,0.154624317242217,7.66500000123915));
#1612=CARTESIAN_POINT('Ctrl Pts',(19.6757579403123,0.374132911611764,7.85467988718801));
#1613=CARTESIAN_POINT('Ctrl Pts',(18.4,2.77555756156289E-16,7.));
#1614=CARTESIAN_POINT('Ctrl Pts',(19.002454633385,2.91490318766208E-16,
7.20081821112833));
#1615=CARTESIAN_POINT('Ctrl Pts',(19.6036092280713,0.0622558740733953,7.40120307602376));
#1616=CARTESIAN_POINT('Ctrl Pts',(20.1,0.17605286037945,7.56666666666667));
#1617=CARTESIAN_POINT('',(20.1,0.176052860379449,7.56666666666667));
#1618=CARTESIAN_POINT('',(18.9666666666667,0.176052860379448,8.7));
#1619=CARTESIAN_POINT('Origin',(20.1,-1.47184141886165,8.7));
#1620=CARTESIAN_POINT('',(18.4,0.,7.));
#1621=CARTESIAN_POINT('Origin',(18.4,1.,7.));
#1622=CARTESIAN_POINT('Origin',(18.4,1.,7.));
#1623=CARTESIAN_POINT('Ctrl Pts',(18.9666666666667,0.176052860379448,8.7));
#1624=CARTESIAN_POINT('Ctrl Pts',(19.0636351626501,0.242742592946393,8.96494541815937));
#1625=CARTESIAN_POINT('Ctrl Pts',(19.2028075881502,0.391386455286205,9.3680533622379));
#1626=CARTESIAN_POINT('Ctrl Pts',(19.3058897186516,0.650557907634013,9.68313385931537));
#1627=CARTESIAN_POINT('Ctrl Pts',(19.3374136252287,0.821530917284603,9.78084810928484));
#1628=CARTESIAN_POINT('Ctrl Pts',(19.3466239347979,0.923231938695244,9.80952658129242));
#1629=CARTESIAN_POINT('Ctrl Pts',(19.3481533027886,0.974470346978299,9.81428571428571));
#1630=CARTESIAN_POINT('Ctrl Pts',(19.3481533027886,1.,9.81428571428571));
#1631=CARTESIAN_POINT('Ctrl Pts',(19.1312456498217,0.289241461083627,8.45757596589273));
#1632=CARTESIAN_POINT('Ctrl Pts',(19.237934955247,0.387759866234461,8.67497233818477));
#1633=CARTESIAN_POINT('Ctrl Pts',(19.3654806530409,0.591453685285085,8.98741682397545));
#1634=CARTESIAN_POINT('Ctrl Pts',(19.3990487127235,0.812977612836577,9.18313184965135));
#1635=CARTESIAN_POINT('Ctrl Pts',(19.4005307437401,0.911579717830661,9.23613277311095));
#1636=CARTESIAN_POINT('Ctrl Pts',(19.4002987599083,0.963163903011504,9.25119449137191));
#1637=CARTESIAN_POINT('Ctrl Pts',(19.4004294058384,0.98774185407433,9.25374465618582));
#1638=CARTESIAN_POINT('Ctrl Pts',(19.4004294058384,1.,9.25374465618582));
#1639=CARTESIAN_POINT('Ctrl Pts',(19.4938304873817,0.378412970004239,8.03366374543176));
#1640=CARTESIAN_POINT('Ctrl Pts',(19.6566140152404,0.502846871072917,8.17011084168977));
#1641=CARTESIAN_POINT('Ctrl Pts',(19.859062941763,0.754153513767569,8.32974520338181));
#1642=CARTESIAN_POINT('Ctrl Pts',(19.9243677446647,0.949400249152869,8.34259323269807));
#1643=CARTESIAN_POINT('Ctrl Pts',(19.9295688944828,0.987745663676227,8.32803063228148));
#1644=CARTESIAN_POINT('Ctrl Pts',(19.9302377428991,0.997065577762819,8.32270374989988));
#1645=CARTESIAN_POINT('Ctrl Pts',(19.9301555026835,0.998969459446395,8.32161496277964));
#1646=CARTESIAN_POINT('Ctrl Pts',(19.9301555026835,1.,8.32161496277964));
#1647=CARTESIAN_POINT('Ctrl Pts',(19.9181819744195,0.260944310907582,7.69010090403295));
#1648=CARTESIAN_POINT('Ctrl Pts',(20.170694682882,0.351306385202891,7.79029629295597));
#1649=CARTESIAN_POINT('Ctrl Pts',(20.5445685998572,0.540507200691753,7.92489801414011));
#1650=CARTESIAN_POINT('Ctrl Pts',(20.8120311470803,0.771134552357668,7.98497925189947));
#1651=CARTESIAN_POINT('Ctrl Pts',(20.8907012312535,0.888301434764766,7.9965555198649));
#1652=CARTESIAN_POINT('Ctrl Pts',(20.9135625228738,0.9528403441593,7.99951150267192));
#1653=CARTESIAN_POINT('Ctrl Pts',(20.9172821234922,0.984299913337435,8.));
#1654=CARTESIAN_POINT('Ctrl Pts',(20.9172821234922,1.,8.));
#1655=CARTESIAN_POINT('Ctrl Pts',(20.1,0.176052860379448,7.56666666666667));
#1656=CARTESIAN_POINT('Ctrl Pts',(20.3909054879501,0.242742592946358,7.66363516265002));
#1657=CARTESIAN_POINT('Ctrl Pts',(20.8382667555838,0.391386455286222,7.81866408996145));
#1658=CARTESIAN_POINT('Ctrl Pts',(21.1918637042118,0.650557907633998,7.9461608964102));
#1659=CARTESIAN_POINT('Ctrl Pts',(21.3018425030446,0.821530917284603,7.98623111637033));
#1660=CARTESIAN_POINT('Ctrl Pts',(21.3341519218957,0.923231938695242,7.99804190710153));
#1661=CARTESIAN_POINT('Ctrl Pts',(21.3395121865867,0.974470346978299,8.));
#1662=CARTESIAN_POINT('Ctrl Pts',(21.3395121865867,1.,8.));
#1663=CARTESIAN_POINT('',(21.3395121865867,1.,8.));
#1664=CARTESIAN_POINT('',(19.3481533027886,1.,9.81428571428571));
#1665=CARTESIAN_POINT('Origin',(21.3395121865867,0.999999999999999,10.));
#1666=CARTESIAN_POINT('Ctrl Pts',(19.3481533027886,1.,9.81428571428571));
#1667=CARTESIAN_POINT('Ctrl Pts',(19.3481533027886,0.974470346978299,9.81428571428571));
#1668=CARTESIAN_POINT('Ctrl Pts',(19.3466239347979,0.923231938695244,9.80952658129242));
#1669=CARTESIAN_POINT('Ctrl Pts',(19.3374136252287,0.821530917284603,9.78084810928484));
#1670=CARTESIAN_POINT('Ctrl Pts',(19.3058897186516,0.650557907634013,9.68313385931537));
#1671=CARTESIAN_POINT('Ctrl Pts',(19.2028075881502,0.391386455286205,9.3680533622379));
#1672=CARTESIAN_POINT('Ctrl Pts',(19.0636351626501,0.242742592946393,8.96494541815937));
#1673=CARTESIAN_POINT('Ctrl Pts',(18.9666666666667,0.176052860379448,8.7));
#1674=CARTESIAN_POINT('Ctrl Pts',(20.1,0.176052860379448,7.56666666666667));
#1675=CARTESIAN_POINT('Ctrl Pts',(20.3909054879501,0.242742592946358,7.66363516265002));
#1676=CARTESIAN_POINT('Ctrl Pts',(20.8382667555838,0.391386455286222,7.81866408996145));
#1677=CARTESIAN_POINT('Ctrl Pts',(21.1918637042118,0.650557907633998,7.9461608964102));
#1678=CARTESIAN_POINT('Ctrl Pts',(21.3018425030446,0.821530917284603,7.98623111637033));
#1679=CARTESIAN_POINT('Ctrl Pts',(21.3341519218957,0.923231938695242,7.99804190710153));
#1680=CARTESIAN_POINT('Ctrl Pts',(21.3395121865867,0.974470346978299,8.));
#1681=CARTESIAN_POINT('Ctrl Pts',(21.3395121865867,1.,8.));
#1682=CARTESIAN_POINT('Ctrl Pts',(18.4,9.,7.));
#1683=CARTESIAN_POINT('Ctrl Pts',(19.002454633385,9.,7.20081821112833));
#1684=CARTESIAN_POINT('Ctrl Pts',(19.6036092280713,8.93774412592661,7.40120307602376));
#1685=CARTESIAN_POINT('Ctrl Pts',(20.1,8.82394713962055,7.56666666666667));
#1686=CARTESIAN_POINT('Ctrl Pts',(18.4,9.,7.));
#1687=CARTESIAN_POINT('Ctrl Pts',(18.8685758259661,9.,7.33469701854722));
#1688=CARTESIAN_POINT('Ctrl Pts',(19.3356033441988,8.84537568275778,7.66500000123914));
#1689=CARTESIAN_POINT('Ctrl Pts',(19.6757579403123,8.62586708838824,7.854679887188));
#1690=CARTESIAN_POINT('Ctrl Pts',(18.4,9.,7.));
#1691=CARTESIAN_POINT('Ctrl Pts',(18.7346970185472,9.,7.4685758259661));
#1692=CARTESIAN_POINT('Ctrl Pts',(19.0650000012391,8.84537568275779,7.93560334419882));
#1693=CARTESIAN_POINT('Ctrl Pts',(19.254679887188,8.62586708838824,8.27575794031227));
#1694=CARTESIAN_POINT('Ctrl Pts',(18.4,9.,7.));
#1695=CARTESIAN_POINT('Ctrl Pts',(18.6008182111283,9.,7.60245463338499));
#1696=CARTESIAN_POINT('Ctrl Pts',(18.8012030760238,8.93774412592661,8.20360922807129));
#1697=CARTESIAN_POINT('Ctrl Pts',(18.9666666666667,8.82394713962055,8.7));
#1698=CARTESIAN_POINT('',(18.9666666666667,8.82394713962055,8.7));
#1699=CARTESIAN_POINT('',(20.1,8.82394713962055,7.56666666666667));
#1700=CARTESIAN_POINT('Origin',(20.1,10.4718414188617,8.7));
#1701=CARTESIAN_POINT('',(18.4,9.,7.));
#1702=CARTESIAN_POINT('Origin',(18.4,8.,7.));
#1703=CARTESIAN_POINT('Origin',(18.4,8.,7.));
#1704=CARTESIAN_POINT('Ctrl Pts',(19.3481533027886,8.,9.81428571428571));
#1705=CARTESIAN_POINT('Ctrl Pts',(19.3481533027886,8.0255296530217,9.81428571428571));
#1706=CARTESIAN_POINT('Ctrl Pts',(19.3457944383385,8.10268036496447,9.80694464100677));
#1707=CARTESIAN_POINT('Ctrl Pts',(19.3276368177973,8.25340824080784,9.7503945622187));
#1708=CARTESIAN_POINT('Ctrl Pts',(19.26769718438,8.46262387505876,9.56566305807465));
#1709=CARTESIAN_POINT('Ctrl Pts',(19.1489543391155,8.67028456354929,9.21016092533913));
#1710=CARTESIAN_POINT('Ctrl Pts',(19.0313123306556,8.77948731790925,8.87663027877292));
#1711=CARTESIAN_POINT('Ctrl Pts',(18.9666666666667,8.82394713962055,8.7));
#1712=CARTESIAN_POINT('Ctrl Pts',(19.4004294058384,8.,9.25374465618581));
#1713=CARTESIAN_POINT('Ctrl Pts',(19.4004294058384,8.01225814592567,9.25374465618581));
#1714=CARTESIAN_POINT('Ctrl Pts',(19.4001919417576,8.04943708103254,9.24976222379282));
#1715=CARTESIAN_POINT('Ctrl Pts',(19.4008057842894,8.12746575349244,9.22028770761559));
#1716=CARTESIAN_POINT('Ctrl Pts',(19.3907767579744,8.27437305327565,9.113714350153));
#1717=CARTESIAN_POINT('Ctrl Pts',(19.3203087061581,8.49332247666114,8.8679257304164));
#1718=CARTESIAN_POINT('Ctrl Pts',(19.2023718534386,8.64507960214914,8.60250688075411));
#1719=CARTESIAN_POINT('Ctrl Pts',(19.1312456498217,8.71075853891637,8.45757596589273));
#1720=CARTESIAN_POINT('Ctrl Pts',(19.9302377718928,8.,8.32169115037493));
#1721=CARTESIAN_POINT('Ctrl Pts',(19.9302377718928,8.00103054055361,8.32169115037493));
#1722=CARTESIAN_POINT('Ctrl Pts',(19.930263196525,8.00425295285083,8.32324361491533));
#1723=CARTESIAN_POINT('Ctrl Pts',(19.9295457600858,8.02101778517299,8.33448184507967));
#1724=CARTESIAN_POINT('Ctrl Pts',(19.9071386319167,8.11824695914795,8.34651068956058));
#1725=CARTESIAN_POINT('Ctrl Pts',(19.7853726480631,8.35120851567893,8.27365129437469));
#1726=CARTESIAN_POINT('Ctrl Pts',(19.6023567798598,8.53864147261522,8.1246316722122));
#1727=CARTESIAN_POINT('Ctrl Pts',(19.493834427954,8.62159740666104,8.03366694137348));
#1728=CARTESIAN_POINT('Ctrl Pts',(20.9172821234922,8.,8.));
#1729=CARTESIAN_POINT('Ctrl Pts',(20.9172821234922,8.01570008666257,8.));
#1730=CARTESIAN_POINT('Ctrl Pts',(20.9115147930595,8.06319928970031,7.99920859936183));
#1731=CARTESIAN_POINT('Ctrl Pts',(20.86662592778,8.15997866025152,7.9936057588452));
#1732=CARTESIAN_POINT('Ctrl Pts',(20.7143060897977,8.32264316930407,7.9659043393981));
#1733=CARTESIAN_POINT('Ctrl Pts',(20.399462940781,8.53814376584472,7.87489618694699));
#1734=CARTESIAN_POINT('Ctrl Pts',(20.0865237800612,8.67881430622883,7.7568978299817));
#1735=CARTESIAN_POINT('Ctrl Pts',(19.9181819744196,8.73905568909242,7.69010090403295));
#1736=CARTESIAN_POINT('Ctrl Pts',(21.3395121865867,8.,8.));
#1737=CARTESIAN_POINT('Ctrl Pts',(21.3395121865867,8.0255296530217,8.));
#1738=CARTESIAN_POINT('Ctrl Pts',(21.3312421735384,8.10268036496447,7.99697714538873));
#1739=CARTESIAN_POINT('Ctrl Pts',(21.2675305007239,8.25340824080783,7.97368387819904));
#1740=CARTESIAN_POINT('Ctrl Pts',(21.0598542192283,8.46262387505877,7.89833221390913));
#1741=CARTESIAN_POINT('Ctrl Pts',(20.6626150227814,8.6702845635493,7.75726673217532));
#1742=CARTESIAN_POINT('Ctrl Pts',(20.2939369919669,8.77948731790922,7.63131233065565));
#1743=CARTESIAN_POINT('Ctrl Pts',(20.1,8.82394713962055,7.56666666666667));
#1744=CARTESIAN_POINT('',(19.3481533027886,8.,9.81428571428571));
#1745=CARTESIAN_POINT('',(21.3395121865867,8.,8.));
#1746=CARTESIAN_POINT('Origin',(21.3395121865867,8.,10.));
#1747=CARTESIAN_POINT('Ctrl Pts',(21.3395121865867,8.,8.));
#1748=CARTESIAN_POINT('Ctrl Pts',(21.3395121865867,8.0255296530217,8.));
#1749=CARTESIAN_POINT('Ctrl Pts',(21.3312421735384,8.10268036496447,7.99697714538873));
#1750=CARTESIAN_POINT('Ctrl Pts',(21.2675305007239,8.25340824080783,7.97368387819904));
#1751=CARTESIAN_POINT('Ctrl Pts',(21.0598542192283,8.46262387505877,7.89833221390913));
#1752=CARTESIAN_POINT('Ctrl Pts',(20.6626150227814,8.6702845635493,7.75726673217532));
#1753=CARTESIAN_POINT('Ctrl Pts',(20.2939369919669,8.77948731790922,7.63131233065565));
#1754=CARTESIAN_POINT('Ctrl Pts',(20.1,8.82394713962055,7.56666666666667));
#1755=CARTESIAN_POINT('Ctrl Pts',(18.9666666666667,8.82394713962055,8.7));
#1756=CARTESIAN_POINT('Ctrl Pts',(19.0313123306556,8.77948731790925,8.87663027877292));
#1757=CARTESIAN_POINT('Ctrl Pts',(19.1489543391155,8.67028456354929,9.21016092533913));
#1758=CARTESIAN_POINT('Ctrl Pts',(19.26769718438,8.46262387505876,9.56566305807465));
#1759=CARTESIAN_POINT('Ctrl Pts',(19.3276368177973,8.25340824080784,9.7503945622187));
#1760=CARTESIAN_POINT('Ctrl Pts',(19.3457944383385,8.10268036496447,9.80694464100677));
#1761=CARTESIAN_POINT('Ctrl Pts',(19.3481533027886,8.0255296530217,9.81428571428571));
#1762=CARTESIAN_POINT('Ctrl Pts',(19.3481533027886,8.,9.81428571428571));
#1763=CARTESIAN_POINT('Origin',(21.3395121865867,0.,10.));
#1764=CARTESIAN_POINT('',(19.3481533027886,0.,9.81428571428571));
#1765=CARTESIAN_POINT('',(21.3395121865867,0.,8.));
#1766=CARTESIAN_POINT('Origin',(7.4,1.,8.7));
#1767=CARTESIAN_POINT('',(7.4,1.,20.7));
#1768=CARTESIAN_POINT('Origin',(7.4,1.,8.7));
#1769=CARTESIAN_POINT('',(7.4,0.,19.7));
#1770=CARTESIAN_POINT('Origin',(7.4,1.,19.7));
#1771=CARTESIAN_POINT('',(18.4,0.,8.7));
#1772=CARTESIAN_POINT('Origin',(7.4,0.,8.7));
#1773=CARTESIAN_POINT('Origin',(18.4,1.,8.7));
#1774=CARTESIAN_POINT('Origin',(7.4,0.,8.7));
#1775=CARTESIAN_POINT('',(7.4,8.,20.7));
#1776=CARTESIAN_POINT('Origin',(7.4,8.,8.7));
#1777=CARTESIAN_POINT('',(7.4,0.,20.7));
#1778=CARTESIAN_POINT('Origin',(7.4,8.,8.7));
#1779=CARTESIAN_POINT('',(18.4,9.,8.7));
#1780=CARTESIAN_POINT('Origin',(18.4,8.,8.7));
#1781=CARTESIAN_POINT('',(7.4,9.,19.7));
#1782=CARTESIAN_POINT('Origin',(7.4,9.,8.7));
#1783=CARTESIAN_POINT('Origin',(7.4,8.,19.7));
#1784=CARTESIAN_POINT('Origin',(18.4,8.,19.7));
#1785=CARTESIAN_POINT('',(18.4,9.,19.7));
#1786=CARTESIAN_POINT('Origin',(104.,1.,11.35));
#1787=CARTESIAN_POINT('',(105.,1.,7.));
#1788=CARTESIAN_POINT('',(104.,0.,7.));
#1789=CARTESIAN_POINT('Origin',(104.,1.,7.));
#1790=CARTESIAN_POINT('',(104.,0.,1.));
#1791=CARTESIAN_POINT('',(104.,0.,11.35));
#1792=CARTESIAN_POINT('',(105.,1.,1.));
#1793=CARTESIAN_POINT('Origin',(104.,1.,1.));
#1794=CARTESIAN_POINT('',(105.,1.,11.35));
#1795=CARTESIAN_POINT('Origin',(104.,0.,1.));
#1796=CARTESIAN_POINT('',(104.,1.,1.23660109869216E-31));
#1797=CARTESIAN_POINT('Origin',(104.,1.,1.));
#1798=CARTESIAN_POINT('',(104.,8.,1.23660109869216E-31));
#1799=CARTESIAN_POINT('',(104.,0.,0.));
#1800=CARTESIAN_POINT('',(105.,8.,1.));
#1801=CARTESIAN_POINT('Origin',(104.,8.,1.));
#1802=CARTESIAN_POINT('',(105.,0.,1.));
#1803=CARTESIAN_POINT('Origin',(104.,1.,1.));
#1804=CARTESIAN_POINT('Origin',(104.,1.,1.));
#1805=CARTESIAN_POINT('Origin',(104.,8.,11.35));
#1806=CARTESIAN_POINT('',(104.,9.,1.));
#1807=CARTESIAN_POINT('Origin',(104.,8.,1.));
#1808=CARTESIAN_POINT('',(104.,9.,7.));
#1809=CARTESIAN_POINT('',(104.,9.,11.35));
#1810=CARTESIAN_POINT('',(105.,8.,7.));
#1811=CARTESIAN_POINT('Origin',(104.,8.,7.));
#1812=CARTESIAN_POINT('',(105.,8.,11.35));
#1813=CARTESIAN_POINT('Origin',(104.,8.,1.));
#1814=CARTESIAN_POINT('Origin',(104.,8.,1.));
#1815=CARTESIAN_POINT('Origin',(104.,0.,7.));
#1816=CARTESIAN_POINT('',(104.,8.,8.));
#1817=CARTESIAN_POINT('Origin',(104.,8.,7.));
#1818=CARTESIAN_POINT('',(104.,1.,8.));
#1819=CARTESIAN_POINT('',(104.,0.,8.));
#1820=CARTESIAN_POINT('Origin',(104.,1.,7.));
#1821=CARTESIAN_POINT('',(105.,0.,7.));
#1822=CARTESIAN_POINT('Origin',(104.,8.,7.));
#1823=CARTESIAN_POINT('Origin',(104.,8.,7.));
#1824=CARTESIAN_POINT('Origin',(104.,1.,7.));
#1825=CARTESIAN_POINT('Origin',(104.,1.,7.));
#1826=CARTESIAN_POINT('Origin',(53.8375,1.,1.));
#1827=CARTESIAN_POINT('',(-1.,0.,1.));
#1828=CARTESIAN_POINT('',(100.,0.,1.));
#1829=CARTESIAN_POINT('',(-0.999999999999996,1.,0.));
#1830=CARTESIAN_POINT('Origin',(-0.999999999999996,1.,1.));
#1831=CARTESIAN_POINT('',(53.8375,1.,0.));
#1832=CARTESIAN_POINT('Origin',(7.675,0.,18.7));
#1833=CARTESIAN_POINT('',(13.5375,0.,7.));
#1834=CARTESIAN_POINT('',(18.4,0.,19.7));
#1835=CARTESIAN_POINT('',(-1.,0.,19.7));
#1836=CARTESIAN_POINT('',(3.8375,0.,19.7));
#1837=CARTESIAN_POINT('',(-1.,0.,9.35));
#1838=CARTESIAN_POINT('',(9.4,0.,2.));
#1839=CARTESIAN_POINT('',(13.4,0.,6.));
#1840=CARTESIAN_POINT('Origin',(9.4,0.,6.));
#1841=CARTESIAN_POINT('',(6.15,0.,2.));
#1842=CARTESIAN_POINT('',(5.8125,0.,2.));
#1843=CARTESIAN_POINT('',(2.15,0.,6.));
#1844=CARTESIAN_POINT('Origin',(6.15,0.,6.));
#1845=CARTESIAN_POINT('',(2.15,0.,14.7));
#1846=CARTESIAN_POINT('',(2.15,0.,17.7));
#1847=CARTESIAN_POINT('',(6.15,0.,18.7));
#1848=CARTESIAN_POINT('Origin',(6.15,0.,14.7));
#1849=CARTESIAN_POINT('',(9.4,0.,18.7));
#1850=CARTESIAN_POINT('',(9.5375,0.,18.7));
#1851=CARTESIAN_POINT('',(13.4,0.,14.7));
#1852=CARTESIAN_POINT('Origin',(9.4,0.,14.7));
#1853=CARTESIAN_POINT('',(13.4,0.,11.35));
#1854=CARTESIAN_POINT('Origin',(13.5375,1.,7.));
#1855=CARTESIAN_POINT('',(100.,1.,8.));
#1856=CARTESIAN_POINT('Origin',(19.4,0.,8.));
#1857=CARTESIAN_POINT('',(100.,8.,8.));
#1858=CARTESIAN_POINT('',(26.3999999997291,6.49999989941637,8.));
#1859=CARTESIAN_POINT('',(98.0000000000013,6.49999989941637,8.));
#1860=CARTESIAN_POINT('',(22.8999999998646,6.49999989941637,8.));
#1861=CARTESIAN_POINT('',(98.,2.50000003725285,8.));
#1862=CARTESIAN_POINT('Origin',(98.,4.5000000372529,8.));
#1863=CARTESIAN_POINT('',(26.4,2.50000003725216,8.));
#1864=CARTESIAN_POINT('',(58.7,2.50000003725288,8.));
#1865=CARTESIAN_POINT('Origin',(26.3999999997291,4.49999989941919,8.));
#1866=CARTESIAN_POINT('Origin',(105.,0.,4.));
#1867=CARTESIAN_POINT('Origin',(98.,4.5000000372529,0.5));
#1868=CARTESIAN_POINT('',(98.,2.00000003725285,3.77373430733456E-49));
#1869=CARTESIAN_POINT('',(98.,2.50000003725285,0.5));
#1870=CARTESIAN_POINT('Origin',(98.,2.00000003725285,0.5));
#1871=CARTESIAN_POINT('',(98.0000000000013,6.49999989941637,0.5));
#1872=CARTESIAN_POINT('Origin',(98.,4.5000000372529,0.5));
#1873=CARTESIAN_POINT('',(98.0000000000017,7.00000003725295,4.2699586319204E-45));
#1874=CARTESIAN_POINT('Origin',(98.0000000000017,7.00000003725295,0.5));
#1875=CARTESIAN_POINT('Origin',(98.,4.5000000372529,0.));
#1876=CARTESIAN_POINT('Origin',(63.1999999998646,6.99999989941637,0.5));
#1877=CARTESIAN_POINT('',(26.3999999997291,6.49999989941637,0.5));
#1878=CARTESIAN_POINT('',(26.3999999997291,6.99999989941637,-9.07190041007502E-32));
#1879=CARTESIAN_POINT('Origin',(26.3999999997291,6.99999989941637,0.5));
#1880=CARTESIAN_POINT('',(63.1999999998646,6.99999989941637,0.));
#1881=CARTESIAN_POINT('',(63.1999999998646,6.49999989941637,0.5));
#1882=CARTESIAN_POINT('Origin',(26.3999999997291,4.49999989941919,0.5));
#1883=CARTESIAN_POINT('',(26.4,2.50000003725216,0.5));
#1884=CARTESIAN_POINT('',(26.4000000000677,1.99999989942201,8.34716443216265E-43));
#1885=CARTESIAN_POINT('Origin',(26.4000000000677,1.99999989942201,0.5));
#1886=CARTESIAN_POINT('Origin',(26.3999999997291,4.49999989941919,0.));
#1887=CARTESIAN_POINT('Origin',(26.3999999997291,4.49999989941919,0.5));
#1888=CARTESIAN_POINT('Origin',(99.,2.00000003725285,0.5));
#1889=CARTESIAN_POINT('',(99.,2.00000003725285,0.));
#1890=CARTESIAN_POINT('',(99.,2.50000003725285,0.5));
#1891=CARTESIAN_POINT('Origin',(26.3999999997291,6.49999989941637,8.));
#1892=CARTESIAN_POINT('',(98.0000000000013,6.49999989941637,8.));
#1893=CARTESIAN_POINT('',(26.3999999997291,6.49999989941637,8.));
#1894=CARTESIAN_POINT('Origin',(98.,4.5000000372529,8.));
#1895=CARTESIAN_POINT('',(98.,2.50000003725285,8.));
#1896=CARTESIAN_POINT('Origin',(100.,0.,2.46519032881566E-31));
#1897=CARTESIAN_POINT('',(-0.999999999999996,8.,-1.35184874656429E-31));
#1898=CARTESIAN_POINT('',(-0.999999999999996,0.,0.));
#1899=CARTESIAN_POINT('',(53.8375,8.,0.));
#1900=CARTESIAN_POINT('Origin',(6.15,7.,14.7));
#1901=CARTESIAN_POINT('',(4.15,7.,14.7));
#1902=CARTESIAN_POINT('',(6.15,7.,16.7));
#1903=CARTESIAN_POINT('Origin',(6.15,7.,14.7));
#1904=CARTESIAN_POINT('',(2.15,9.,14.7));
#1905=CARTESIAN_POINT('Origin',(2.15,7.,14.7));
#1906=CARTESIAN_POINT('',(6.15,9.,18.7));
#1907=CARTESIAN_POINT('Origin',(6.15,9.,14.7));
#1908=CARTESIAN_POINT('Origin',(6.15,7.,18.7));
#1909=CARTESIAN_POINT('Origin',(9.4,7.,14.7));
#1910=CARTESIAN_POINT('',(11.4,7.,14.7));
#1911=CARTESIAN_POINT('',(13.4,9.,14.7));
#1912=CARTESIAN_POINT('Origin',(13.4,7.,14.7));
#1913=CARTESIAN_POINT('',(9.4,7.,16.7));
#1914=CARTESIAN_POINT('Origin',(9.4,7.,14.7));
#1915=CARTESIAN_POINT('',(9.4,9.,18.7));
#1916=CARTESIAN_POINT('Origin',(9.4,7.,18.7));
#1917=CARTESIAN_POINT('Origin',(9.4,9.,14.7));
#1918=CARTESIAN_POINT('Origin',(6.15,2.,14.7));
#1919=CARTESIAN_POINT('',(6.15,2.,16.7));
#1920=CARTESIAN_POINT('',(4.15,2.,14.7));
#1921=CARTESIAN_POINT('Origin',(6.15,2.,14.7));
#1922=CARTESIAN_POINT('Origin',(6.15,2.,18.7));
#1923=CARTESIAN_POINT('Origin',(2.15,2.,14.7));
#1924=CARTESIAN_POINT('Origin',(6.15,7.,6.));
#1925=CARTESIAN_POINT('',(6.15,7.,4.));
#1926=CARTESIAN_POINT('',(4.15,7.,6.));
#1927=CARTESIAN_POINT('Origin',(6.15,7.,6.));
#1928=CARTESIAN_POINT('',(6.15,9.,2.));
#1929=CARTESIAN_POINT('Origin',(6.15,7.,2.));
#1930=CARTESIAN_POINT('',(2.15,9.,6.));
#1931=CARTESIAN_POINT('Origin',(6.15,9.,6.));
#1932=CARTESIAN_POINT('Origin',(2.15,7.,6.));
#1933=CARTESIAN_POINT('Origin',(9.4,7.,6.));
#1934=CARTESIAN_POINT('',(11.4,7.,6.));
#1935=CARTESIAN_POINT('',(9.4,7.,4.));
#1936=CARTESIAN_POINT('Origin',(9.4,7.,6.));
#1937=CARTESIAN_POINT('',(13.4,9.,6.));
#1938=CARTESIAN_POINT('Origin',(13.4,7.,6.));
#1939=CARTESIAN_POINT('',(9.4,9.,2.));
#1940=CARTESIAN_POINT('Origin',(9.4,9.,6.));
#1941=CARTESIAN_POINT('Origin',(9.4,7.,2.));
#1942=CARTESIAN_POINT('Origin',(13.4,7.,11.35));
#1943=CARTESIAN_POINT('',(13.4,9.,11.35));
#1944=CARTESIAN_POINT('',(11.4,7.,11.35));
#1945=CARTESIAN_POINT('Origin',(5.8125,7.,2.));
#1946=CARTESIAN_POINT('',(5.8125,7.,4.));
#1947=CARTESIAN_POINT('',(5.8125,9.,2.));
#1948=CARTESIAN_POINT('Origin',(9.4,2.,14.7));
#1949=CARTESIAN_POINT('',(9.4,2.,16.7));
#1950=CARTESIAN_POINT('Origin',(9.4,2.,18.7));
#1951=CARTESIAN_POINT('',(11.4,2.,14.7));
#1952=CARTESIAN_POINT('Origin',(9.4,2.,14.7));
#1953=CARTESIAN_POINT('Origin',(13.4,2.,14.7));
#1954=CARTESIAN_POINT('Origin',(9.4,0.,14.7));
#1955=CARTESIAN_POINT('',(9.4,0.,16.7));
#1956=CARTESIAN_POINT('',(11.4,0.,14.7));
#1957=CARTESIAN_POINT('Origin',(6.15,2.,6.));
#1958=CARTESIAN_POINT('',(4.15,2.,6.));
#1959=CARTESIAN_POINT('',(6.15,2.,4.));
#1960=CARTESIAN_POINT('Origin',(6.15,2.,6.));
#1961=CARTESIAN_POINT('Origin',(2.15,2.,6.));
#1962=CARTESIAN_POINT('Origin',(6.15,2.,2.));
#1963=CARTESIAN_POINT('Origin',(2.15,2.,17.7));
#1964=CARTESIAN_POINT('',(4.15,2.,17.7));
#1965=CARTESIAN_POINT('Origin',(9.4,2.,6.));
#1966=CARTESIAN_POINT('',(11.4,2.,6.));
#1967=CARTESIAN_POINT('Origin',(13.4,2.,6.));
#1968=CARTESIAN_POINT('',(9.4,2.,4.));
#1969=CARTESIAN_POINT('Origin',(9.4,2.,6.));
#1970=CARTESIAN_POINT('Origin',(9.4,2.,2.));
#1971=CARTESIAN_POINT('Origin',(9.4,0.,6.));
#1972=CARTESIAN_POINT('',(11.4,0.,6.));
#1973=CARTESIAN_POINT('',(9.4,0.,4.));
#1974=CARTESIAN_POINT('Origin',(5.8125,2.,2.));
#1975=CARTESIAN_POINT('',(5.8125,2.,4.));
#1976=CARTESIAN_POINT('Origin',(13.4,2.,11.35));
#1977=CARTESIAN_POINT('',(11.4,2.,11.35));
#1978=CARTESIAN_POINT('Origin',(6.15,0.,6.));
#1979=CARTESIAN_POINT('',(6.15,0.,4.));
#1980=CARTESIAN_POINT('',(4.15,0.,6.));
#1981=CARTESIAN_POINT('Origin',(9.5375,2.,18.7));
#1982=CARTESIAN_POINT('',(9.5375,2.,16.7));
#1983=CARTESIAN_POINT('Origin',(2.15,7.,17.7));
#1984=CARTESIAN_POINT('',(4.15,7.,17.7));
#1985=CARTESIAN_POINT('',(2.15,9.,17.7));
#1986=CARTESIAN_POINT('Origin',(6.15,0.,14.7));
#1987=CARTESIAN_POINT('',(6.15,0.,16.7));
#1988=CARTESIAN_POINT('',(4.15,0.,14.7));
#1989=CARTESIAN_POINT('Origin',(9.5375,7.,18.7));
#1990=CARTESIAN_POINT('',(9.5375,9.,18.7));
#1991=CARTESIAN_POINT('',(9.5375,7.,16.7));
#1992=CARTESIAN_POINT('Origin',(7.675,9.,18.7));
#1993=CARTESIAN_POINT('',(-1.,9.,1.));
#1994=CARTESIAN_POINT('',(53.8375,9.,1.));
#1995=CARTESIAN_POINT('',(-1.,9.,19.7));
#1996=CARTESIAN_POINT('',(-1.,9.,9.35));
#1997=CARTESIAN_POINT('',(0.,9.,19.7));
#1998=CARTESIAN_POINT('',(13.5375,9.,7.));
#1999=CARTESIAN_POINT('Origin',(11.4,0.,4.));
#2000=CARTESIAN_POINT('Origin',(3.95,0.,4.));
#2001=CARTESIAN_POINT('Origin',(11.4,0.,16.7));
#2002=CARTESIAN_POINT('Origin',(4.15,0.,16.7));
#2003=CARTESIAN_POINT('Origin',(-1.,8.,15.35));
#2004=CARTESIAN_POINT('',(-2.,8.,1.));
#2005=CARTESIAN_POINT('',(-2.,8.,19.7));
#2006=CARTESIAN_POINT('',(-2.,8.,9.35));
#2007=CARTESIAN_POINT('Origin',(-1.,8.,19.7));
#2008=CARTESIAN_POINT('Origin',(-1.,8.,1.));
#2009=CARTESIAN_POINT('Origin',(-2.,0.,12.));
#2010=CARTESIAN_POINT('',(-2.,1.,19.7));
#2011=CARTESIAN_POINT('',(-2.,1.,1.));
#2012=CARTESIAN_POINT('',(-2.,1.,15.35));
#2013=CARTESIAN_POINT('',(-2.,0.,19.7));
#2014=CARTESIAN_POINT('',(-2.,0.,1.));
#2015=CARTESIAN_POINT('Origin',(-1.,1.,15.35));
#2016=CARTESIAN_POINT('Origin',(-1.,1.,19.7));
#2017=CARTESIAN_POINT('Origin',(-1.,1.,1.));
#2018=CARTESIAN_POINT('Origin',(98.,2.50000003725285,8.));
#2019=CARTESIAN_POINT('',(26.4,2.50000003725216,8.));
#2020=CARTESIAN_POINT('Origin',(26.3999999997291,4.49999989941919,8.));
#2021=CARTESIAN_POINT('Origin',(53.8375,8.,1.));
#2022=CARTESIAN_POINT('Origin',(-0.999999999999996,8.,1.));
#2023=CARTESIAN_POINT('Origin',(-0.999999999999996,0.,1.));
#2024=CARTESIAN_POINT('Origin',(-0.999999999999996,8.,1.));
#2025=CARTESIAN_POINT('Origin',(-0.999999999999996,1.,1.));
#2026=CARTESIAN_POINT('Origin',(-1.,1.,1.));
#2027=CARTESIAN_POINT('Origin',(-1.,8.,1.));
#2028=CARTESIAN_POINT('Origin',(-1.,0.,19.7));
#2029=CARTESIAN_POINT('',(-1.,1.,20.7));
#2030=CARTESIAN_POINT('Origin',(-1.,1.,19.7));
#2031=CARTESIAN_POINT('',(-1.,8.,20.7));
#2032=CARTESIAN_POINT('',(-1.,0.,20.7));
#2033=CARTESIAN_POINT('Origin',(-1.,8.,19.7));
#2034=CARTESIAN_POINT('Origin',(-1.,1.,19.7));
#2035=CARTESIAN_POINT('Origin',(-1.,1.,19.7));
#2036=CARTESIAN_POINT('Origin',(-1.,8.,19.7));
#2037=CARTESIAN_POINT('Origin',(-1.,8.,19.7));
#2038=CARTESIAN_POINT('Origin',(3.8375,8.,19.7));
#2039=CARTESIAN_POINT('',(3.8375,8.,20.7));
#2040=CARTESIAN_POINT('Origin',(0.,0.,20.7));
#2041=CARTESIAN_POINT('',(3.8375,1.,20.7));
#2042=CARTESIAN_POINT('Origin',(3.8375,1.,19.7));
#2043=CARTESIAN_POINT('Origin',(18.4,1.,19.7));
#2044=CARTESIAN_POINT('Origin',(13.5375,8.,7.));
#2045=UNCERTAINTY_MEASURE_WITH_UNIT(LENGTH_MEASURE(0.01),#2049,
'DISTANCE_ACCURACY_VALUE',
'Maximum model space distance between geometric entities at asserted c
onnectivities');
#2046=UNCERTAINTY_MEASURE_WITH_UNIT(LENGTH_MEASURE(0.01),#2049,
'DISTANCE_ACCURACY_VALUE',
'Maximum model space distance between geometric entities at asserted c
onnectivities');
#2047=(
GEOMETRIC_REPRESENTATION_CONTEXT(3)
GLOBAL_UNCERTAINTY_ASSIGNED_CONTEXT((#2045))
GLOBAL_UNIT_ASSIGNED_CONTEXT((#2049,#2051,#2052))
REPRESENTATION_CONTEXT('','3D')
);
#2048=(
GEOMETRIC_REPRESENTATION_CONTEXT(3)
GLOBAL_UNCERTAINTY_ASSIGNED_CONTEXT((#2046))
GLOBAL_UNIT_ASSIGNED_CONTEXT((#2049,#2051,#2052))
REPRESENTATION_CONTEXT('','3D')
);
#2049=(
LENGTH_UNIT()
NAMED_UNIT(*)
SI_UNIT(.MILLI.,.METRE.)
);
#2050=(
LENGTH_UNIT()
NAMED_UNIT(*)
SI_UNIT($,.METRE.)
);
#2051=(
NAMED_UNIT(*)
PLANE_ANGLE_UNIT()
SI_UNIT($,.RADIAN.)
);
#2052=(
NAMED_UNIT(*)
SI_UNIT($,.STERADIAN.)
SOLID_ANGLE_UNIT()
);
#2053=SHAPE_DEFINITION_REPRESENTATION(#2054,#2055);
#2054=PRODUCT_DEFINITION_SHAPE('',$,#2057);
#2055=SHAPE_REPRESENTATION('',(#1083),#2047);
#2056=PRODUCT_DEFINITION_CONTEXT('part definition',#2061,'design');
#2057=PRODUCT_DEFINITION('2026-09-08-14-17-01-158','membner',#2058,#2056);
#2058=PRODUCT_DEFINITION_FORMATION('',$,#2063);
#2059=PRODUCT_RELATED_PRODUCT_CATEGORY('membner','membner',(#2063));
#2060=APPLICATION_PROTOCOL_DEFINITION('international standard',
'automotive_design',2009,#2061);
#2061=APPLICATION_CONTEXT(
'Core Data for Automotive Mechanical Design Process');
#2062=PRODUCT_CONTEXT('part definition',#2061,'mechanical');
#2063=PRODUCT('2026-09-08-14-17-01-158','membner',$,(#2062));
#2064=PRESENTATION_STYLE_ASSIGNMENT((#2065));
#2065=SURFACE_STYLE_USAGE(.BOTH.,#2066);
#2066=SURFACE_SIDE_STYLE('',(#2067));
#2067=SURFACE_STYLE_FILL_AREA(#2068);
#2068=FILL_AREA_STYLE('Steel - Satin',(#2069));
#2069=FILL_AREA_STYLE_COLOUR('Steel - Satin',#2070);
#2070=COLOUR_RGB('Steel - Satin',0.627450980392157,0.627450980392157,0.627450980392157);
ENDSEC;
END-ISO-10303-21;
