ISO-10303-21;
HEADER;
/* Generated by software containing ST-Developer
 * from STEP Tools, Inc. (www.steptools.com) 
 */

FILE_DESCRIPTION(
/* description */ (''),
/* implementation_level */ '2;1');

FILE_NAME(
/* name */ 'frame_brace.step',
/* time_stamp */ '2026-09-08T14:17:47-04:00',
/* author */ (''),
/* organization */ (''),
/* preprocessor_version */ 'ST-DEVELOPER v20.1',
/* originating_system */ 'Autodesk Translation Framework v14.24.0.0',
/* authorisation */ '');

FILE_SCHEMA (('AUTOMOTIVE_DESIGN { 1 0 10303 214 3 1 1 }'));
ENDSEC;

DATA;
#10=MECHANICAL_DESIGN_GEOMETRIC_PRESENTATION_REPRESENTATION('',(#13),#1488);
#11=SHAPE_REPRESENTATION_RELATIONSHIP('SRR','None',#1495,#12);
#12=ADVANCED_BREP_SHAPE_REPRESENTATION('',(#14),#1487);
#13=STYLED_ITEM('',(#1504),#14);
#14=MANIFOLD_SOLID_BREP('Body2',#677);
#15=TOROIDAL_SURFACE('',#710,1.99999999999999,1.);
#16=TOROIDAL_SURFACE('',#716,2.,1.);
#17=TOROIDAL_SURFACE('',#743,2.00000000000003,1.);
#18=TOROIDAL_SURFACE('',#751,2.,1.);
#19=CYLINDRICAL_SURFACE('',#704,1.);
#20=CYLINDRICAL_SURFACE('',#709,1.);
#21=CYLINDRICAL_SURFACE('',#715,1.);
#22=CYLINDRICAL_SURFACE('',#721,1.);
#23=CYLINDRICAL_SURFACE('',#726,1.);
#24=CYLINDRICAL_SURFACE('',#731,1.);
#25=CYLINDRICAL_SURFACE('',#740,1.);
#26=CYLINDRICAL_SURFACE('',#741,1.);
#27=CYLINDRICAL_SURFACE('',#748,1.);
#28=CYLINDRICAL_SURFACE('',#749,1.);
#29=CYLINDRICAL_SURFACE('',#754,1.);
#30=CYLINDRICAL_SURFACE('',#755,1.);
#31=CYLINDRICAL_SURFACE('',#757,1.);
#32=CYLINDRICAL_SURFACE('',#758,1.);
#33=CYLINDRICAL_SURFACE('',#759,1.);
#34=CYLINDRICAL_SURFACE('',#761,1.);
#35=CYLINDRICAL_SURFACE('',#762,1.);
#36=CYLINDRICAL_SURFACE('',#768,1.);
#37=CYLINDRICAL_SURFACE('',#772,1.);
#38=SPHERICAL_SURFACE('',#700,1.00000000000001);
#39=SPHERICAL_SURFACE('',#705,1.);
#40=SPHERICAL_SURFACE('',#722,0.999999999999996);
#41=SPHERICAL_SURFACE('',#727,1.);
#42=SPHERICAL_SURFACE('',#732,1.00000000000001);
#43=SPHERICAL_SURFACE('',#736,1.00000000000001);
#44=SPHERICAL_SURFACE('',#763,1.);
#45=ELLIPSE('',#697,3.99999999999999,2.);
#46=ELLIPSE('',#699,4.,2.);
#47=ELLIPSE('',#742,1.4142135623731,1.);
#48=(
BOUNDED_SURFACE()
B_SPLINE_SURFACE(1,2,((#1167,#1168,#1169,#1170,#1171,#1172,#1173,#1174,
#1175),(#1176,#1177,#1178,#1179,#1180,#1181,#1182,#1183,#1184)),
 .UNSPECIFIED.,.F.,.T.,.F.)
B_SPLINE_SURFACE_WITH_KNOTS((2,2),(3,2,2,2,3),(0.250000000000001,0.750000000000003),
(-3.14159265358979,-1.5707963267949,0.,1.5707963267949,3.14159265358979),
 .UNSPECIFIED.)
GEOMETRIC_REPRESENTATION_ITEM()
RATIONAL_B_SPLINE_SURFACE(((1.,0.707106781186548,1.,0.707106781186548,1.,
0.707106781186548,1.,0.707106781186548,1.),(1.,0.707106781186548,1.,0.707106781186548,
1.,0.707106781186548,1.,0.707106781186548,1.)))
REPRESENTATION_ITEM('')
SURFACE()
);
#49=(
BOUNDED_SURFACE()
B_SPLINE_SURFACE(1,2,((#1304,#1305,#1306,#1307,#1308,#1309,#1310,#1311,
#1312),(#1313,#1314,#1315,#1316,#1317,#1318,#1319,#1320,#1321)),
 .UNSPECIFIED.,.F.,.T.,.F.)
B_SPLINE_SURFACE_WITH_KNOTS((2,2),(3,2,2,2,3),(0.25,0.75),(-3.14159265358979,
-1.5707963267949,0.,1.5707963267949,3.14159265358979),.UNSPECIFIED.)
GEOMETRIC_REPRESENTATION_ITEM()
RATIONAL_B_SPLINE_SURFACE(((1.,0.707106781186548,1.,0.707106781186548,1.,
0.707106781186548,1.,0.707106781186548,1.),(1.,0.707106781186548,1.,0.707106781186548,
1.,0.707106781186548,1.,0.707106781186548,1.)))
REPRESENTATION_ITEM('')
SURFACE()
);
#50=FACE_BOUND('',#200,.T.);
#51=FACE_BOUND('',#201,.T.);
#52=FACE_BOUND('',#238,.T.);
#53=FACE_BOUND('',#243,.T.);
#54=LINE('',#1135,#99);
#55=LINE('',#1139,#100);
#56=LINE('',#1143,#101);
#57=LINE('',#1146,#102);
#58=LINE('',#1187,#103);
#59=LINE('',#1324,#104);
#60=LINE('',#1333,#105);
#61=LINE('',#1334,#106);
#62=LINE('',#1343,#107);
#63=LINE('',#1344,#108);
#64=LINE('',#1355,#109);
#65=LINE('',#1356,#110);
#66=LINE('',#1367,#111);
#67=LINE('',#1368,#112);
#68=LINE('',#1377,#113);
#69=LINE('',#1378,#114);
#70=LINE('',#1387,#115);
#71=LINE('',#1388,#116);
#72=LINE('',#1404,#117);
#73=LINE('',#1405,#118);
#74=LINE('',#1410,#119);
#75=LINE('',#1411,#120);
#76=LINE('',#1422,#121);
#77=LINE('',#1423,#122);
#78=LINE('',#1428,#123);
#79=LINE('',#1429,#124);
#80=LINE('',#1442,#125);
#81=LINE('',#1443,#126);
#82=LINE('',#1448,#127);
#83=LINE('',#1449,#128);
#84=LINE('',#1451,#129);
#85=LINE('',#1452,#130);
#86=LINE('',#1454,#131);
#87=LINE('',#1455,#132);
#88=LINE('',#1459,#133);
#89=LINE('',#1460,#134);
#90=LINE('',#1462,#135);
#91=LINE('',#1463,#136);
#92=LINE('',#1465,#137);
#93=LINE('',#1466,#138);
#94=LINE('',#1471,#139);
#95=LINE('',#1472,#140);
#96=LINE('',#1473,#141);
#97=LINE('',#1475,#142);
#98=LINE('',#1481,#143);
#99=VECTOR('',#784,10.);
#100=VECTOR('',#787,10.);
#101=VECTOR('',#790,10.);
#102=VECTOR('',#793,10.);
#103=VECTOR('',#796,3.99999999999999);
#104=VECTOR('',#801,4.);
#105=VECTOR('',#812,10.);
#106=VECTOR('',#813,10.);
#107=VECTOR('',#824,10.);
#108=VECTOR('',#825,10.);
#109=VECTOR('',#838,10.);
#110=VECTOR('',#839,10.);
#111=VECTOR('',#852,10.);
#112=VECTOR('',#853,10.);
#113=VECTOR('',#864,10.);
#114=VECTOR('',#865,10.);
#115=VECTOR('',#876,10.);
#116=VECTOR('',#877,10.);
#117=VECTOR('',#896,10.);
#118=VECTOR('',#897,10.);
#119=VECTOR('',#902,10.);
#120=VECTOR('',#903,10.);
#121=VECTOR('',#916,10.);
#122=VECTOR('',#917,10.);
#123=VECTOR('',#922,10.);
#124=VECTOR('',#923,10.);
#125=VECTOR('',#932,10.);
#126=VECTOR('',#933,10.);
#127=VECTOR('',#938,10.);
#128=VECTOR('',#939,10.);
#129=VECTOR('',#942,10.);
#130=VECTOR('',#943,10.);
#131=VECTOR('',#946,10.);
#132=VECTOR('',#947,10.);
#133=VECTOR('',#952,10.);
#134=VECTOR('',#953,10.);
#135=VECTOR('',#956,10.);
#136=VECTOR('',#957,10.);
#137=VECTOR('',#960,10.);
#138=VECTOR('',#961,10.);
#139=VECTOR('',#970,10.);
#140=VECTOR('',#971,10.);
#141=VECTOR('',#972,10.);
#142=VECTOR('',#975,10.);
#143=VECTOR('',#986,10.);
#144=PLANE('',#692);
#145=PLANE('',#765);
#146=PLANE('',#766);
#147=PLANE('',#767);
#148=PLANE('',#769);
#149=PLANE('',#770);
#150=PLANE('',#771);
#151=PLANE('',#773);
#152=PLANE('',#774);
#153=PLANE('',#775);
#154=FACE_OUTER_BOUND('',#198,.T.);
#155=FACE_OUTER_BOUND('',#199,.T.);
#156=FACE_OUTER_BOUND('',#202,.T.);
#157=FACE_OUTER_BOUND('',#203,.T.);
#158=FACE_OUTER_BOUND('',#204,.T.);
#159=FACE_OUTER_BOUND('',#205,.T.);
#160=FACE_OUTER_BOUND('',#206,.T.);
#161=FACE_OUTER_BOUND('',#207,.T.);
#162=FACE_OUTER_BOUND('',#208,.T.);
#163=FACE_OUTER_BOUND('',#209,.T.);
#164=FACE_OUTER_BOUND('',#210,.T.);
#165=FACE_OUTER_BOUND('',#211,.T.);
#166=FACE_OUTER_BOUND('',#212,.T.);
#167=FACE_OUTER_BOUND('',#213,.T.);
#168=FACE_OUTER_BOUND('',#214,.T.);
#169=FACE_OUTER_BOUND('',#215,.T.);
#170=FACE_OUTER_BOUND('',#216,.T.);
#171=FACE_OUTER_BOUND('',#217,.T.);
#172=FACE_OUTER_BOUND('',#218,.T.);
#173=FACE_OUTER_BOUND('',#219,.T.);
#174=FACE_OUTER_BOUND('',#220,.T.);
#175=FACE_OUTER_BOUND('',#221,.T.);
#176=FACE_OUTER_BOUND('',#222,.T.);
#177=FACE_OUTER_BOUND('',#223,.T.);
#178=FACE_OUTER_BOUND('',#224,.T.);
#179=FACE_OUTER_BOUND('',#225,.T.);
#180=FACE_OUTER_BOUND('',#226,.T.);
#181=FACE_OUTER_BOUND('',#227,.T.);
#182=FACE_OUTER_BOUND('',#228,.T.);
#183=FACE_OUTER_BOUND('',#229,.T.);
#184=FACE_OUTER_BOUND('',#230,.T.);
#185=FACE_OUTER_BOUND('',#231,.T.);
#186=FACE_OUTER_BOUND('',#232,.T.);
#187=FACE_OUTER_BOUND('',#233,.T.);
#188=FACE_OUTER_BOUND('',#234,.T.);
#189=FACE_OUTER_BOUND('',#235,.T.);
#190=FACE_OUTER_BOUND('',#236,.T.);
#191=FACE_OUTER_BOUND('',#237,.T.);
#192=FACE_OUTER_BOUND('',#239,.T.);
#193=FACE_OUTER_BOUND('',#240,.T.);
#194=FACE_OUTER_BOUND('',#241,.T.);
#195=FACE_OUTER_BOUND('',#242,.T.);
#196=FACE_OUTER_BOUND('',#244,.T.);
#197=FACE_OUTER_BOUND('',#245,.T.);
#198=EDGE_LOOP('',(#441,#442,#443,#444));
#199=EDGE_LOOP('',(#445,#446,#447,#448,#449,#450,#451,#452));
#200=EDGE_LOOP('',(#453));
#201=EDGE_LOOP('',(#454));
#202=EDGE_LOOP('',(#455,#456,#457,#458));
#203=EDGE_LOOP('',(#459,#460,#461,#462));
#204=EDGE_LOOP('',(#463,#464,#465,#466));
#205=EDGE_LOOP('',(#467,#468,#469));
#206=EDGE_LOOP('',(#470,#471,#472,#473));
#207=EDGE_LOOP('',(#474,#475,#476));
#208=EDGE_LOOP('',(#477,#478,#479,#480));
#209=EDGE_LOOP('',(#481,#482,#483,#484));
#210=EDGE_LOOP('',(#485,#486,#487,#488));
#211=EDGE_LOOP('',(#489,#490,#491,#492));
#212=EDGE_LOOP('',(#493,#494,#495,#496));
#213=EDGE_LOOP('',(#497,#498,#499));
#214=EDGE_LOOP('',(#500,#501,#502,#503));
#215=EDGE_LOOP('',(#504,#505,#506));
#216=EDGE_LOOP('',(#507,#508,#509,#510));
#217=EDGE_LOOP('',(#511,#512,#513));
#218=EDGE_LOOP('',(#514,#515,#516));
#219=EDGE_LOOP('',(#517,#518,#519,#520));
#220=EDGE_LOOP('',(#521,#522,#523,#524));
#221=EDGE_LOOP('',(#525,#526,#527,#528));
#222=EDGE_LOOP('',(#529,#530,#531,#532));
#223=EDGE_LOOP('',(#533,#534,#535,#536));
#224=EDGE_LOOP('',(#537,#538,#539,#540));
#225=EDGE_LOOP('',(#541,#542,#543,#544));
#226=EDGE_LOOP('',(#545,#546,#547,#548));
#227=EDGE_LOOP('',(#549,#550,#551,#552));
#228=EDGE_LOOP('',(#553,#554,#555,#556));
#229=EDGE_LOOP('',(#557,#558,#559,#560));
#230=EDGE_LOOP('',(#561,#562,#563,#564));
#231=EDGE_LOOP('',(#565,#566,#567,#568));
#232=EDGE_LOOP('',(#569,#570,#571));
#233=EDGE_LOOP('',(#572,#573,#574,#575));
#234=EDGE_LOOP('',(#576,#577,#578,#579,#580,#581,#582,#583,#584,#585));
#235=EDGE_LOOP('',(#586,#587,#588,#589));
#236=EDGE_LOOP('',(#590,#591,#592,#593));
#237=EDGE_LOOP('',(#594,#595,#596,#597));
#238=EDGE_LOOP('',(#598));
#239=EDGE_LOOP('',(#599,#600,#601,#602));
#240=EDGE_LOOP('',(#603,#604,#605,#606));
#241=EDGE_LOOP('',(#607,#608,#609,#610));
#242=EDGE_LOOP('',(#611,#612,#613,#614,#615));
#243=EDGE_LOOP('',(#616));
#244=EDGE_LOOP('',(#617,#618,#619,#620,#621,#622,#623,#624,#625,#626));
#245=EDGE_LOOP('',(#627,#628,#629,#630));
#246=B_SPLINE_CURVE_WITH_KNOTS('',3,(#1092,#1093,#1094,#1095,#1096,#1097,
#1098,#1099,#1100,#1101,#1102,#1103,#1104,#1105,#1106,#1107,#1108,#1109,
#1110),.UNSPECIFIED.,.T.,.F.,(4,1,1,1,1,1,1,1,1,1,1,1,1,1,1,1,4),(-3.14159265358979,
-2.91719317833338,-2.69279370307697,-2.24399475256414,-1.34639685153848,
-1.0471975511966,-0.747998250854713,-0.448798950512828,-0.149599650170943,
0.149599650170943,0.448798950512828,0.897597901025655,1.34639685153848,
2.24399475256414,2.69279370307697,2.91719317833338,3.14159265358979),
 .UNSPECIFIED.);
#247=B_SPLINE_CURVE_WITH_KNOTS('',3,(#1111,#1112,#1113,#1114,#1115,#1116,
#1117,#1118,#1119,#1120,#1121,#1122,#1123,#1124,#1125,#1126,#1127,#1128,
#1129),.UNSPECIFIED.,.T.,.F.,(4,1,1,1,1,1,1,1,1,1,1,1,1,1,1,1,4),(-3.14159265358979,
-2.91719317833338,-2.69279370307697,-2.24399475256414,-1.34639685153848,
-0.897597901025655,-0.448798950512828,-0.149599650170943,0.149599650170943,
0.448798950512828,0.747998250854713,1.0471975511966,1.34639685153848,2.24399475256414,
2.69279370307697,2.91719317833338,3.14159265358979),.UNSPECIFIED.);
#248=B_SPLINE_CURVE_WITH_KNOTS('',3,(#1148,#1149,#1150,#1151,#1152,#1153,
#1154,#1155,#1156,#1157,#1158,#1159,#1160,#1161,#1162,#1163,#1164,#1165,
#1166),.UNSPECIFIED.,.T.,.F.,(4,1,1,1,1,1,1,1,1,1,1,1,1,1,1,1,4),(-3.14159265358979,
-2.91719317833338,-2.69279370307697,-2.24399475256414,-1.34639685153848,
-1.0471975511966,-0.747998250854713,-0.448798950512828,-0.149599650170943,
0.149599650170943,0.448798950512828,0.897597901025655,1.34639685153848,
2.24399475256414,2.69279370307697,2.91719317833338,3.14159265358979),
 .UNSPECIFIED.);
#249=B_SPLINE_CURVE_WITH_KNOTS('',3,(#1285,#1286,#1287,#1288,#1289,#1290,
#1291,#1292,#1293,#1294,#1295,#1296,#1297,#1298,#1299,#1300,#1301,#1302,
#1303),.UNSPECIFIED.,.T.,.F.,(4,1,1,1,1,1,1,1,1,1,1,1,1,1,1,1,4),(-3.14159265358979,
-2.91719317833338,-2.69279370307697,-2.24399475256414,-1.34639685153848,
-0.897597901025655,-0.448798950512828,-0.149599650170943,0.149599650170943,
0.448798950512828,0.747998250854713,1.0471975511966,1.34639685153848,2.24399475256414,
2.69279370307697,2.91719317833338,3.14159265358979),.UNSPECIFIED.);
#250=B_SPLINE_CURVE_WITH_KNOTS('',3,(#1433,#1434,#1435,#1436,#1437,#1438),
 .UNSPECIFIED.,.F.,.F.,(4,2,4),(0.505532240038509,0.58199546660118,0.699558285734087),
 .UNSPECIFIED.);
#251=CIRCLE('',#691,0.999999999999979);
#252=CIRCLE('',#693,1.);
#253=CIRCLE('',#694,1.);
#254=CIRCLE('',#695,1.);
#255=CIRCLE('',#696,1.);
#256=CIRCLE('',#698,1.);
#257=CIRCLE('',#701,1.);
#258=CIRCLE('',#702,1.00000000000001);
#259=CIRCLE('',#703,1.);
#260=CIRCLE('',#706,0.999999999999998);
#261=CIRCLE('',#707,1.);
#262=CIRCLE('',#708,1.);
#263=CIRCLE('',#711,1.99999999999999);
#264=CIRCLE('',#712,1.);
#265=CIRCLE('',#713,0.999999999999996);
#266=CIRCLE('',#714,1.);
#267=CIRCLE('',#717,1.);
#268=CIRCLE('',#718,1.);
#269=CIRCLE('',#719,2.);
#270=CIRCLE('',#720,1.);
#271=CIRCLE('',#723,1.);
#272=CIRCLE('',#724,0.999999999999996);
#273=CIRCLE('',#725,1.);
#274=CIRCLE('',#728,1.00000000000001);
#275=CIRCLE('',#729,1.);
#276=CIRCLE('',#730,1.);
#277=CIRCLE('',#733,1.);
#278=CIRCLE('',#734,1.00000000000001);
#279=CIRCLE('',#735,1.);
#280=CIRCLE('',#737,1.);
#281=CIRCLE('',#738,1.00000000000001);
#282=CIRCLE('',#739,1.);
#283=CIRCLE('',#744,2.00000000000003);
#284=CIRCLE('',#745,1.);
#285=CIRCLE('',#746,1.00000000000001);
#286=CIRCLE('',#747,1.);
#287=CIRCLE('',#750,1.);
#288=CIRCLE('',#752,1.);
#289=CIRCLE('',#753,2.);
#290=CIRCLE('',#756,1.00000000000001);
#291=CIRCLE('',#760,1.);
#292=CIRCLE('',#764,0.999999999999996);
#293=VERTEX_POINT('',#1089);
#294=VERTEX_POINT('',#1090);
#295=VERTEX_POINT('',#1131);
#296=VERTEX_POINT('',#1132);
#297=VERTEX_POINT('',#1134);
#298=VERTEX_POINT('',#1136);
#299=VERTEX_POINT('',#1138);
#300=VERTEX_POINT('',#1140);
#301=VERTEX_POINT('',#1142);
#302=VERTEX_POINT('',#1144);
#303=VERTEX_POINT('',#1147);
#304=VERTEX_POINT('',#1185);
#305=VERTEX_POINT('',#1283);
#306=VERTEX_POINT('',#1322);
#307=VERTEX_POINT('',#1326);
#308=VERTEX_POINT('',#1327);
#309=VERTEX_POINT('',#1329);
#310=VERTEX_POINT('',#1336);
#311=VERTEX_POINT('',#1337);
#312=VERTEX_POINT('',#1339);
#313=VERTEX_POINT('',#1346);
#314=VERTEX_POINT('',#1347);
#315=VERTEX_POINT('',#1349);
#316=VERTEX_POINT('',#1351);
#317=VERTEX_POINT('',#1358);
#318=VERTEX_POINT('',#1359);
#319=VERTEX_POINT('',#1361);
#320=VERTEX_POINT('',#1363);
#321=VERTEX_POINT('',#1370);
#322=VERTEX_POINT('',#1371);
#323=VERTEX_POINT('',#1373);
#324=VERTEX_POINT('',#1380);
#325=VERTEX_POINT('',#1381);
#326=VERTEX_POINT('',#1383);
#327=VERTEX_POINT('',#1390);
#328=VERTEX_POINT('',#1391);
#329=VERTEX_POINT('',#1393);
#330=VERTEX_POINT('',#1397);
#331=VERTEX_POINT('',#1398);
#332=VERTEX_POINT('',#1400);
#333=VERTEX_POINT('',#1407);
#334=VERTEX_POINT('',#1408);
#335=VERTEX_POINT('',#1413);
#336=VERTEX_POINT('',#1414);
#337=VERTEX_POINT('',#1416);
#338=VERTEX_POINT('',#1418);
#339=VERTEX_POINT('',#1425);
#340=VERTEX_POINT('',#1426);
#341=VERTEX_POINT('',#1431);
#342=VERTEX_POINT('',#1432);
#343=VERTEX_POINT('',#1445);
#344=VERTEX_POINT('',#1446);
#345=VERTEX_POINT('',#1457);
#346=EDGE_CURVE('',#293,#294,#251,.T.);
#347=EDGE_CURVE('',#294,#294,#246,.T.);
#348=EDGE_CURVE('',#293,#293,#247,.T.);
#349=EDGE_CURVE('',#295,#296,#252,.T.);
#350=EDGE_CURVE('',#295,#297,#54,.T.);
#351=EDGE_CURVE('',#298,#297,#253,.T.);
#352=EDGE_CURVE('',#298,#299,#55,.T.);
#353=EDGE_CURVE('',#300,#299,#254,.T.);
#354=EDGE_CURVE('',#301,#300,#56,.T.);
#355=EDGE_CURVE('',#302,#301,#255,.T.);
#356=EDGE_CURVE('',#296,#302,#57,.T.);
#357=EDGE_CURVE('',#303,#303,#248,.T.);
#358=EDGE_CURVE('',#304,#304,#45,.T.);
#359=EDGE_CURVE('',#304,#293,#58,.T.);
#360=EDGE_CURVE('',#305,#303,#256,.T.);
#361=EDGE_CURVE('',#305,#305,#249,.T.);
#362=EDGE_CURVE('',#306,#306,#46,.T.);
#363=EDGE_CURVE('',#306,#305,#59,.T.);
#364=EDGE_CURVE('',#307,#308,#257,.F.);
#365=EDGE_CURVE('',#309,#307,#258,.F.);
#366=EDGE_CURVE('',#308,#309,#259,.F.);
#367=EDGE_CURVE('',#297,#309,#60,.T.);
#368=EDGE_CURVE('',#307,#298,#61,.T.);
#369=EDGE_CURVE('',#310,#311,#260,.F.);
#370=EDGE_CURVE('',#312,#310,#261,.F.);
#371=EDGE_CURVE('',#311,#312,#262,.F.);
#372=EDGE_CURVE('',#296,#312,#62,.T.);
#373=EDGE_CURVE('',#310,#295,#63,.T.);
#374=EDGE_CURVE('',#313,#314,#263,.T.);
#375=EDGE_CURVE('',#315,#314,#264,.T.);
#376=EDGE_CURVE('',#316,#315,#265,.F.);
#377=EDGE_CURVE('',#313,#316,#266,.T.);
#378=EDGE_CURVE('',#308,#315,#64,.T.);
#379=EDGE_CURVE('',#314,#307,#65,.T.);
#380=EDGE_CURVE('',#317,#318,#267,.F.);
#381=EDGE_CURVE('',#319,#317,#268,.T.);
#382=EDGE_CURVE('',#319,#320,#269,.T.);
#383=EDGE_CURVE('',#318,#320,#270,.T.);
#384=EDGE_CURVE('',#317,#311,#66,.T.);
#385=EDGE_CURVE('',#312,#319,#67,.T.);
#386=EDGE_CURVE('',#321,#322,#271,.F.);
#387=EDGE_CURVE('',#323,#321,#272,.F.);
#388=EDGE_CURVE('',#322,#323,#273,.F.);
#389=EDGE_CURVE('',#321,#313,#68,.T.);
#390=EDGE_CURVE('',#316,#323,#69,.T.);
#391=EDGE_CURVE('',#324,#325,#274,.F.);
#392=EDGE_CURVE('',#326,#324,#275,.F.);
#393=EDGE_CURVE('',#325,#326,#276,.F.);
#394=EDGE_CURVE('',#324,#318,#70,.T.);
#395=EDGE_CURVE('',#320,#326,#71,.T.);
#396=EDGE_CURVE('',#327,#328,#277,.F.);
#397=EDGE_CURVE('',#329,#327,#278,.F.);
#398=EDGE_CURVE('',#328,#329,#279,.F.);
#399=EDGE_CURVE('',#330,#331,#280,.F.);
#400=EDGE_CURVE('',#332,#330,#281,.F.);
#401=EDGE_CURVE('',#331,#332,#282,.F.);
#402=EDGE_CURVE('',#301,#332,#72,.T.);
#403=EDGE_CURVE('',#330,#302,#73,.T.);
#404=EDGE_CURVE('',#333,#334,#47,.T.);
#405=EDGE_CURVE('',#334,#331,#74,.T.);
#406=EDGE_CURVE('',#332,#333,#75,.T.);
#407=EDGE_CURVE('',#335,#336,#283,.T.);
#408=EDGE_CURVE('',#337,#336,#284,.T.);
#409=EDGE_CURVE('',#338,#337,#285,.F.);
#410=EDGE_CURVE('',#335,#338,#286,.T.);
#411=EDGE_CURVE('',#331,#337,#76,.T.);
#412=EDGE_CURVE('',#336,#330,#77,.T.);
#413=EDGE_CURVE('',#339,#340,#287,.T.);
#414=EDGE_CURVE('',#340,#338,#78,.T.);
#415=EDGE_CURVE('',#337,#339,#79,.T.);
#416=EDGE_CURVE('',#341,#342,#250,.T.);
#417=EDGE_CURVE('',#342,#340,#288,.T.);
#418=EDGE_CURVE('',#339,#341,#289,.T.);
#419=EDGE_CURVE('',#327,#335,#80,.T.);
#420=EDGE_CURVE('',#338,#329,#81,.T.);
#421=EDGE_CURVE('',#343,#344,#290,.T.);
#422=EDGE_CURVE('',#344,#328,#82,.T.);
#423=EDGE_CURVE('',#329,#343,#83,.T.);
#424=EDGE_CURVE('',#328,#325,#84,.T.);
#425=EDGE_CURVE('',#326,#327,#85,.T.);
#426=EDGE_CURVE('',#325,#322,#86,.T.);
#427=EDGE_CURVE('',#323,#324,#87,.T.);
#428=EDGE_CURVE('',#344,#345,#291,.T.);
#429=EDGE_CURVE('',#345,#321,#88,.T.);
#430=EDGE_CURVE('',#322,#344,#89,.T.);
#431=EDGE_CURVE('',#315,#317,#90,.T.);
#432=EDGE_CURVE('',#318,#316,#91,.T.);
#433=EDGE_CURVE('',#311,#308,#92,.T.);
#434=EDGE_CURVE('',#309,#310,#93,.T.);
#435=EDGE_CURVE('',#343,#345,#292,.T.);
#436=EDGE_CURVE('',#342,#345,#94,.T.);
#437=EDGE_CURVE('',#334,#341,#95,.T.);
#438=EDGE_CURVE('',#299,#334,#96,.T.);
#439=EDGE_CURVE('',#343,#340,#97,.T.);
#440=EDGE_CURVE('',#333,#300,#98,.T.);
#441=ORIENTED_EDGE('',*,*,#346,.T.);
#442=ORIENTED_EDGE('',*,*,#347,.T.);
#443=ORIENTED_EDGE('',*,*,#346,.F.);
#444=ORIENTED_EDGE('',*,*,#348,.T.);
#445=ORIENTED_EDGE('',*,*,#349,.F.);
#446=ORIENTED_EDGE('',*,*,#350,.T.);
#447=ORIENTED_EDGE('',*,*,#351,.F.);
#448=ORIENTED_EDGE('',*,*,#352,.T.);
#449=ORIENTED_EDGE('',*,*,#353,.F.);
#450=ORIENTED_EDGE('',*,*,#354,.F.);
#451=ORIENTED_EDGE('',*,*,#355,.F.);
#452=ORIENTED_EDGE('',*,*,#356,.F.);
#453=ORIENTED_EDGE('',*,*,#357,.F.);
#454=ORIENTED_EDGE('',*,*,#347,.F.);
#455=ORIENTED_EDGE('',*,*,#358,.F.);
#456=ORIENTED_EDGE('',*,*,#359,.T.);
#457=ORIENTED_EDGE('',*,*,#348,.F.);
#458=ORIENTED_EDGE('',*,*,#359,.F.);
#459=ORIENTED_EDGE('',*,*,#360,.T.);
#460=ORIENTED_EDGE('',*,*,#357,.T.);
#461=ORIENTED_EDGE('',*,*,#360,.F.);
#462=ORIENTED_EDGE('',*,*,#361,.T.);
#463=ORIENTED_EDGE('',*,*,#362,.F.);
#464=ORIENTED_EDGE('',*,*,#363,.T.);
#465=ORIENTED_EDGE('',*,*,#361,.F.);
#466=ORIENTED_EDGE('',*,*,#363,.F.);
#467=ORIENTED_EDGE('',*,*,#364,.F.);
#468=ORIENTED_EDGE('',*,*,#365,.F.);
#469=ORIENTED_EDGE('',*,*,#366,.F.);
#470=ORIENTED_EDGE('',*,*,#351,.T.);
#471=ORIENTED_EDGE('',*,*,#367,.T.);
#472=ORIENTED_EDGE('',*,*,#365,.T.);
#473=ORIENTED_EDGE('',*,*,#368,.T.);
#474=ORIENTED_EDGE('',*,*,#369,.F.);
#475=ORIENTED_EDGE('',*,*,#370,.F.);
#476=ORIENTED_EDGE('',*,*,#371,.F.);
#477=ORIENTED_EDGE('',*,*,#349,.T.);
#478=ORIENTED_EDGE('',*,*,#372,.T.);
#479=ORIENTED_EDGE('',*,*,#370,.T.);
#480=ORIENTED_EDGE('',*,*,#373,.T.);
#481=ORIENTED_EDGE('',*,*,#374,.T.);
#482=ORIENTED_EDGE('',*,*,#375,.F.);
#483=ORIENTED_EDGE('',*,*,#376,.F.);
#484=ORIENTED_EDGE('',*,*,#377,.F.);
#485=ORIENTED_EDGE('',*,*,#364,.T.);
#486=ORIENTED_EDGE('',*,*,#378,.T.);
#487=ORIENTED_EDGE('',*,*,#375,.T.);
#488=ORIENTED_EDGE('',*,*,#379,.T.);
#489=ORIENTED_EDGE('',*,*,#380,.F.);
#490=ORIENTED_EDGE('',*,*,#381,.F.);
#491=ORIENTED_EDGE('',*,*,#382,.T.);
#492=ORIENTED_EDGE('',*,*,#383,.F.);
#493=ORIENTED_EDGE('',*,*,#381,.T.);
#494=ORIENTED_EDGE('',*,*,#384,.T.);
#495=ORIENTED_EDGE('',*,*,#371,.T.);
#496=ORIENTED_EDGE('',*,*,#385,.T.);
#497=ORIENTED_EDGE('',*,*,#386,.F.);
#498=ORIENTED_EDGE('',*,*,#387,.F.);
#499=ORIENTED_EDGE('',*,*,#388,.F.);
#500=ORIENTED_EDGE('',*,*,#387,.T.);
#501=ORIENTED_EDGE('',*,*,#389,.T.);
#502=ORIENTED_EDGE('',*,*,#377,.T.);
#503=ORIENTED_EDGE('',*,*,#390,.T.);
#504=ORIENTED_EDGE('',*,*,#391,.F.);
#505=ORIENTED_EDGE('',*,*,#392,.F.);
#506=ORIENTED_EDGE('',*,*,#393,.F.);
#507=ORIENTED_EDGE('',*,*,#392,.T.);
#508=ORIENTED_EDGE('',*,*,#394,.T.);
#509=ORIENTED_EDGE('',*,*,#383,.T.);
#510=ORIENTED_EDGE('',*,*,#395,.T.);
#511=ORIENTED_EDGE('',*,*,#396,.F.);
#512=ORIENTED_EDGE('',*,*,#397,.F.);
#513=ORIENTED_EDGE('',*,*,#398,.F.);
#514=ORIENTED_EDGE('',*,*,#399,.F.);
#515=ORIENTED_EDGE('',*,*,#400,.F.);
#516=ORIENTED_EDGE('',*,*,#401,.F.);
#517=ORIENTED_EDGE('',*,*,#355,.T.);
#518=ORIENTED_EDGE('',*,*,#402,.T.);
#519=ORIENTED_EDGE('',*,*,#400,.T.);
#520=ORIENTED_EDGE('',*,*,#403,.T.);
#521=ORIENTED_EDGE('',*,*,#404,.T.);
#522=ORIENTED_EDGE('',*,*,#405,.T.);
#523=ORIENTED_EDGE('',*,*,#401,.T.);
#524=ORIENTED_EDGE('',*,*,#406,.T.);
#525=ORIENTED_EDGE('',*,*,#407,.T.);
#526=ORIENTED_EDGE('',*,*,#408,.F.);
#527=ORIENTED_EDGE('',*,*,#409,.F.);
#528=ORIENTED_EDGE('',*,*,#410,.F.);
#529=ORIENTED_EDGE('',*,*,#399,.T.);
#530=ORIENTED_EDGE('',*,*,#411,.T.);
#531=ORIENTED_EDGE('',*,*,#408,.T.);
#532=ORIENTED_EDGE('',*,*,#412,.T.);
#533=ORIENTED_EDGE('',*,*,#413,.T.);
#534=ORIENTED_EDGE('',*,*,#414,.T.);
#535=ORIENTED_EDGE('',*,*,#409,.T.);
#536=ORIENTED_EDGE('',*,*,#415,.T.);
#537=ORIENTED_EDGE('',*,*,#416,.T.);
#538=ORIENTED_EDGE('',*,*,#417,.T.);
#539=ORIENTED_EDGE('',*,*,#413,.F.);
#540=ORIENTED_EDGE('',*,*,#418,.T.);
#541=ORIENTED_EDGE('',*,*,#397,.T.);
#542=ORIENTED_EDGE('',*,*,#419,.T.);
#543=ORIENTED_EDGE('',*,*,#410,.T.);
#544=ORIENTED_EDGE('',*,*,#420,.T.);
#545=ORIENTED_EDGE('',*,*,#421,.T.);
#546=ORIENTED_EDGE('',*,*,#422,.T.);
#547=ORIENTED_EDGE('',*,*,#398,.T.);
#548=ORIENTED_EDGE('',*,*,#423,.T.);
#549=ORIENTED_EDGE('',*,*,#396,.T.);
#550=ORIENTED_EDGE('',*,*,#424,.T.);
#551=ORIENTED_EDGE('',*,*,#393,.T.);
#552=ORIENTED_EDGE('',*,*,#425,.T.);
#553=ORIENTED_EDGE('',*,*,#391,.T.);
#554=ORIENTED_EDGE('',*,*,#426,.T.);
#555=ORIENTED_EDGE('',*,*,#388,.T.);
#556=ORIENTED_EDGE('',*,*,#427,.T.);
#557=ORIENTED_EDGE('',*,*,#428,.T.);
#558=ORIENTED_EDGE('',*,*,#429,.T.);
#559=ORIENTED_EDGE('',*,*,#386,.T.);
#560=ORIENTED_EDGE('',*,*,#430,.T.);
#561=ORIENTED_EDGE('',*,*,#376,.T.);
#562=ORIENTED_EDGE('',*,*,#431,.T.);
#563=ORIENTED_EDGE('',*,*,#380,.T.);
#564=ORIENTED_EDGE('',*,*,#432,.T.);
#565=ORIENTED_EDGE('',*,*,#369,.T.);
#566=ORIENTED_EDGE('',*,*,#433,.T.);
#567=ORIENTED_EDGE('',*,*,#366,.T.);
#568=ORIENTED_EDGE('',*,*,#434,.T.);
#569=ORIENTED_EDGE('',*,*,#421,.F.);
#570=ORIENTED_EDGE('',*,*,#435,.T.);
#571=ORIENTED_EDGE('',*,*,#428,.F.);
#572=ORIENTED_EDGE('',*,*,#373,.F.);
#573=ORIENTED_EDGE('',*,*,#434,.F.);
#574=ORIENTED_EDGE('',*,*,#367,.F.);
#575=ORIENTED_EDGE('',*,*,#350,.F.);
#576=ORIENTED_EDGE('',*,*,#368,.F.);
#577=ORIENTED_EDGE('',*,*,#379,.F.);
#578=ORIENTED_EDGE('',*,*,#374,.F.);
#579=ORIENTED_EDGE('',*,*,#389,.F.);
#580=ORIENTED_EDGE('',*,*,#429,.F.);
#581=ORIENTED_EDGE('',*,*,#436,.F.);
#582=ORIENTED_EDGE('',*,*,#416,.F.);
#583=ORIENTED_EDGE('',*,*,#437,.F.);
#584=ORIENTED_EDGE('',*,*,#438,.F.);
#585=ORIENTED_EDGE('',*,*,#352,.F.);
#586=ORIENTED_EDGE('',*,*,#423,.F.);
#587=ORIENTED_EDGE('',*,*,#420,.F.);
#588=ORIENTED_EDGE('',*,*,#414,.F.);
#589=ORIENTED_EDGE('',*,*,#439,.F.);
#590=ORIENTED_EDGE('',*,*,#435,.F.);
#591=ORIENTED_EDGE('',*,*,#439,.T.);
#592=ORIENTED_EDGE('',*,*,#417,.F.);
#593=ORIENTED_EDGE('',*,*,#436,.T.);
#594=ORIENTED_EDGE('',*,*,#384,.F.);
#595=ORIENTED_EDGE('',*,*,#431,.F.);
#596=ORIENTED_EDGE('',*,*,#378,.F.);
#597=ORIENTED_EDGE('',*,*,#433,.F.);
#598=ORIENTED_EDGE('',*,*,#362,.T.);
#599=ORIENTED_EDGE('',*,*,#394,.F.);
#600=ORIENTED_EDGE('',*,*,#427,.F.);
#601=ORIENTED_EDGE('',*,*,#390,.F.);
#602=ORIENTED_EDGE('',*,*,#432,.F.);
#603=ORIENTED_EDGE('',*,*,#422,.F.);
#604=ORIENTED_EDGE('',*,*,#430,.F.);
#605=ORIENTED_EDGE('',*,*,#426,.F.);
#606=ORIENTED_EDGE('',*,*,#424,.F.);
#607=ORIENTED_EDGE('',*,*,#404,.F.);
#608=ORIENTED_EDGE('',*,*,#440,.T.);
#609=ORIENTED_EDGE('',*,*,#353,.T.);
#610=ORIENTED_EDGE('',*,*,#438,.T.);
#611=ORIENTED_EDGE('',*,*,#405,.F.);
#612=ORIENTED_EDGE('',*,*,#437,.T.);
#613=ORIENTED_EDGE('',*,*,#418,.F.);
#614=ORIENTED_EDGE('',*,*,#415,.F.);
#615=ORIENTED_EDGE('',*,*,#411,.F.);
#616=ORIENTED_EDGE('',*,*,#358,.T.);
#617=ORIENTED_EDGE('',*,*,#372,.F.);
#618=ORIENTED_EDGE('',*,*,#356,.T.);
#619=ORIENTED_EDGE('',*,*,#403,.F.);
#620=ORIENTED_EDGE('',*,*,#412,.F.);
#621=ORIENTED_EDGE('',*,*,#407,.F.);
#622=ORIENTED_EDGE('',*,*,#419,.F.);
#623=ORIENTED_EDGE('',*,*,#425,.F.);
#624=ORIENTED_EDGE('',*,*,#395,.F.);
#625=ORIENTED_EDGE('',*,*,#382,.F.);
#626=ORIENTED_EDGE('',*,*,#385,.F.);
#627=ORIENTED_EDGE('',*,*,#402,.F.);
#628=ORIENTED_EDGE('',*,*,#354,.T.);
#629=ORIENTED_EDGE('',*,*,#440,.F.);
#630=ORIENTED_EDGE('',*,*,#406,.F.);
#631=B_SPLINE_SURFACE_WITH_KNOTS('',3,3,((#994,#995,#996,#997,#998,#999,
#1000,#1001,#1002,#1003,#1004,#1005,#1006,#1007,#1008,#1009,#1010,#1011,
#1012),(#1013,#1014,#1015,#1016,#1017,#1018,#1019,#1020,#1021,#1022,#1023,
#1024,#1025,#1026,#1027,#1028,#1029,#1030,#1031),(#1032,#1033,#1034,#1035,
#1036,#1037,#1038,#1039,#1040,#1041,#1042,#1043,#1044,#1045,#1046,#1047,
#1048,#1049,#1050),(#1051,#1052,#1053,#1054,#1055,#1056,#1057,#1058,#1059,
#1060,#1061,#1062,#1063,#1064,#1065,#1066,#1067,#1068,#1069),(#1070,#1071,
#1072,#1073,#1074,#1075,#1076,#1077,#1078,#1079,#1080,#1081,#1082,#1083,
#1084,#1085,#1086,#1087,#1088)),.UNSPECIFIED.,.F.,.T.,.F.,(4,1,4),(4,1,
1,1,1,1,1,1,1,1,1,1,1,1,1,1,4),(0.,0.571428571428571,1.),(-3.14159265358979,
-2.91719317833338,-2.69279370307697,-2.24399475256414,-1.34639685153848,
-1.0471975511966,-0.747998250854713,-0.448798950512828,-0.149599650170943,
0.149599650170943,0.448798950512828,0.897597901025655,1.34639685153848,
2.24399475256414,2.69279370307697,2.91719317833338,3.14159265358979),
 .UNSPECIFIED.);
#632=B_SPLINE_SURFACE_WITH_KNOTS('',3,3,((#1188,#1189,#1190,#1191,#1192,
#1193,#1194,#1195,#1196,#1197,#1198,#1199,#1200,#1201,#1202,#1203,#1204,
#1205,#1206),(#1207,#1208,#1209,#1210,#1211,#1212,#1213,#1214,#1215,#1216,
#1217,#1218,#1219,#1220,#1221,#1222,#1223,#1224,#1225),(#1226,#1227,#1228,
#1229,#1230,#1231,#1232,#1233,#1234,#1235,#1236,#1237,#1238,#1239,#1240,
#1241,#1242,#1243,#1244),(#1245,#1246,#1247,#1248,#1249,#1250,#1251,#1252,
#1253,#1254,#1255,#1256,#1257,#1258,#1259,#1260,#1261,#1262,#1263),(#1264,
#1265,#1266,#1267,#1268,#1269,#1270,#1271,#1272,#1273,#1274,#1275,#1276,
#1277,#1278,#1279,#1280,#1281,#1282)),.UNSPECIFIED.,.F.,.T.,.F.,(4,1,4),
(4,1,1,1,1,1,1,1,1,1,1,1,1,1,1,1,4),(0.,0.571428571428571,1.),(-3.14159265358979,
-2.91719317833338,-2.69279370307697,-2.24399475256414,-1.34639685153848,
-1.0471975511966,-0.747998250854713,-0.448798950512828,-0.149599650170943,
0.149599650170943,0.448798950512828,0.897597901025655,1.34639685153848,
2.24399475256414,2.69279370307697,2.91719317833338,3.14159265358979),
 .UNSPECIFIED.);
#633=ADVANCED_FACE('',(#154),#631,.F.);
#634=ADVANCED_FACE('',(#155,#50,#51),#144,.F.);
#635=ADVANCED_FACE('',(#156),#48,.T.);
#636=ADVANCED_FACE('',(#157),#632,.F.);
#637=ADVANCED_FACE('',(#158),#49,.T.);
#638=ADVANCED_FACE('',(#159),#38,.T.);
#639=ADVANCED_FACE('',(#160),#19,.T.);
#640=ADVANCED_FACE('',(#161),#39,.T.);
#641=ADVANCED_FACE('',(#162),#20,.T.);
#642=ADVANCED_FACE('',(#163),#15,.T.);
#643=ADVANCED_FACE('',(#164),#21,.T.);
#644=ADVANCED_FACE('',(#165),#16,.T.);
#645=ADVANCED_FACE('',(#166),#22,.T.);
#646=ADVANCED_FACE('',(#167),#40,.T.);
#647=ADVANCED_FACE('',(#168),#23,.T.);
#648=ADVANCED_FACE('',(#169),#41,.T.);
#649=ADVANCED_FACE('',(#170),#24,.T.);
#650=ADVANCED_FACE('',(#171),#42,.T.);
#651=ADVANCED_FACE('',(#172),#43,.T.);
#652=ADVANCED_FACE('',(#173),#25,.T.);
#653=ADVANCED_FACE('',(#174),#26,.T.);
#654=ADVANCED_FACE('',(#175),#17,.T.);
#655=ADVANCED_FACE('',(#176),#27,.T.);
#656=ADVANCED_FACE('',(#177),#28,.F.);
#657=ADVANCED_FACE('',(#178),#18,.F.);
#658=ADVANCED_FACE('',(#179),#29,.T.);
#659=ADVANCED_FACE('',(#180),#30,.T.);
#660=ADVANCED_FACE('',(#181),#31,.T.);
#661=ADVANCED_FACE('',(#182),#32,.T.);
#662=ADVANCED_FACE('',(#183),#33,.T.);
#663=ADVANCED_FACE('',(#184),#34,.F.);
#664=ADVANCED_FACE('',(#185),#35,.T.);
#665=ADVANCED_FACE('',(#186),#44,.T.);
#666=ADVANCED_FACE('',(#187),#145,.T.);
#667=ADVANCED_FACE('',(#188),#146,.T.);
#668=ADVANCED_FACE('',(#189),#147,.T.);
#669=ADVANCED_FACE('',(#190),#36,.T.);
#670=ADVANCED_FACE('',(#191,#52),#148,.T.);
#671=ADVANCED_FACE('',(#192),#149,.T.);
#672=ADVANCED_FACE('',(#193),#150,.T.);
#673=ADVANCED_FACE('',(#194),#37,.T.);
#674=ADVANCED_FACE('',(#195,#53),#151,.T.);
#675=ADVANCED_FACE('',(#196),#152,.T.);
#676=ADVANCED_FACE('',(#197),#153,.T.);
#677=CLOSED_SHELL('',(#633,#634,#635,#636,#637,#638,#639,#640,#641,#642,
#643,#644,#645,#646,#647,#648,#649,#650,#651,#652,#653,#654,#655,#656,#657,
#658,#659,#660,#661,#662,#663,#664,#665,#666,#667,#668,#669,#670,#671,#672,
#673,#674,#675,#676));
#678=DERIVED_UNIT_ELEMENT(#680,1.);
#679=DERIVED_UNIT_ELEMENT(#1490,-3.);
#680=(
MASS_UNIT()
NAMED_UNIT(*)
SI_UNIT(.KILO.,.GRAM.)
);
#681=DERIVED_UNIT((#678,#679));
#682=MEASURE_REPRESENTATION_ITEM('density measure',
POSITIVE_RATIO_MEASURE(7850.),#681);
#683=PROPERTY_DEFINITION_REPRESENTATION(#688,#685);
#684=PROPERTY_DEFINITION_REPRESENTATION(#689,#686);
#685=REPRESENTATION('material name',(#687),#1487);
#686=REPRESENTATION('density',(#682),#1487);
#687=DESCRIPTIVE_REPRESENTATION_ITEM('Steel','Steel');
#688=PROPERTY_DEFINITION('material property','material name',#1497);
#689=PROPERTY_DEFINITION('material property','density of part',#1497);
#690=AXIS2_PLACEMENT_3D('',#993,#776,#777);
#691=AXIS2_PLACEMENT_3D('',#1091,#778,#779);
#692=AXIS2_PLACEMENT_3D('',#1130,#780,#781);
#693=AXIS2_PLACEMENT_3D('',#1133,#782,#783);
#694=AXIS2_PLACEMENT_3D('',#1137,#785,#786);
#695=AXIS2_PLACEMENT_3D('',#1141,#788,#789);
#696=AXIS2_PLACEMENT_3D('',#1145,#791,#792);
#697=AXIS2_PLACEMENT_3D('',#1186,#794,#795);
#698=AXIS2_PLACEMENT_3D('',#1284,#797,#798);
#699=AXIS2_PLACEMENT_3D('',#1323,#799,#800);
#700=AXIS2_PLACEMENT_3D('',#1325,#802,#803);
#701=AXIS2_PLACEMENT_3D('',#1328,#804,#805);
#702=AXIS2_PLACEMENT_3D('',#1330,#806,#807);
#703=AXIS2_PLACEMENT_3D('',#1331,#808,#809);
#704=AXIS2_PLACEMENT_3D('',#1332,#810,#811);
#705=AXIS2_PLACEMENT_3D('',#1335,#814,#815);
#706=AXIS2_PLACEMENT_3D('',#1338,#816,#817);
#707=AXIS2_PLACEMENT_3D('',#1340,#818,#819);
#708=AXIS2_PLACEMENT_3D('',#1341,#820,#821);
#709=AXIS2_PLACEMENT_3D('',#1342,#822,#823);
#710=AXIS2_PLACEMENT_3D('',#1345,#826,#827);
#711=AXIS2_PLACEMENT_3D('',#1348,#828,#829);
#712=AXIS2_PLACEMENT_3D('',#1350,#830,#831);
#713=AXIS2_PLACEMENT_3D('',#1352,#832,#833);
#714=AXIS2_PLACEMENT_3D('',#1353,#834,#835);
#715=AXIS2_PLACEMENT_3D('',#1354,#836,#837);
#716=AXIS2_PLACEMENT_3D('',#1357,#840,#841);
#717=AXIS2_PLACEMENT_3D('',#1360,#842,#843);
#718=AXIS2_PLACEMENT_3D('',#1362,#844,#845);
#719=AXIS2_PLACEMENT_3D('',#1364,#846,#847);
#720=AXIS2_PLACEMENT_3D('',#1365,#848,#849);
#721=AXIS2_PLACEMENT_3D('',#1366,#850,#851);
#722=AXIS2_PLACEMENT_3D('',#1369,#854,#855);
#723=AXIS2_PLACEMENT_3D('',#1372,#856,#857);
#724=AXIS2_PLACEMENT_3D('',#1374,#858,#859);
#725=AXIS2_PLACEMENT_3D('',#1375,#860,#861);
#726=AXIS2_PLACEMENT_3D('',#1376,#862,#863);
#727=AXIS2_PLACEMENT_3D('',#1379,#866,#867);
#728=AXIS2_PLACEMENT_3D('',#1382,#868,#869);
#729=AXIS2_PLACEMENT_3D('',#1384,#870,#871);
#730=AXIS2_PLACEMENT_3D('',#1385,#872,#873);
#731=AXIS2_PLACEMENT_3D('',#1386,#874,#875);
#732=AXIS2_PLACEMENT_3D('',#1389,#878,#879);
#733=AXIS2_PLACEMENT_3D('',#1392,#880,#881);
#734=AXIS2_PLACEMENT_3D('',#1394,#882,#883);
#735=AXIS2_PLACEMENT_3D('',#1395,#884,#885);
#736=AXIS2_PLACEMENT_3D('',#1396,#886,#887);
#737=AXIS2_PLACEMENT_3D('',#1399,#888,#889);
#738=AXIS2_PLACEMENT_3D('',#1401,#890,#891);
#739=AXIS2_PLACEMENT_3D('',#1402,#892,#893);
#740=AXIS2_PLACEMENT_3D('',#1403,#894,#895);
#741=AXIS2_PLACEMENT_3D('',#1406,#898,#899);
#742=AXIS2_PLACEMENT_3D('',#1409,#900,#901);
#743=AXIS2_PLACEMENT_3D('',#1412,#904,#905);
#744=AXIS2_PLACEMENT_3D('',#1415,#906,#907);
#745=AXIS2_PLACEMENT_3D('',#1417,#908,#909);
#746=AXIS2_PLACEMENT_3D('',#1419,#910,#911);
#747=AXIS2_PLACEMENT_3D('',#1420,#912,#913);
#748=AXIS2_PLACEMENT_3D('',#1421,#914,#915);
#749=AXIS2_PLACEMENT_3D('',#1424,#918,#919);
#750=AXIS2_PLACEMENT_3D('',#1427,#920,#921);
#751=AXIS2_PLACEMENT_3D('',#1430,#924,#925);
#752=AXIS2_PLACEMENT_3D('',#1439,#926,#927);
#753=AXIS2_PLACEMENT_3D('',#1440,#928,#929);
#754=AXIS2_PLACEMENT_3D('',#1441,#930,#931);
#755=AXIS2_PLACEMENT_3D('',#1444,#934,#935);
#756=AXIS2_PLACEMENT_3D('',#1447,#936,#937);
#757=AXIS2_PLACEMENT_3D('',#1450,#940,#941);
#758=AXIS2_PLACEMENT_3D('',#1453,#944,#945);
#759=AXIS2_PLACEMENT_3D('',#1456,#948,#949);
#760=AXIS2_PLACEMENT_3D('',#1458,#950,#951);
#761=AXIS2_PLACEMENT_3D('',#1461,#954,#955);
#762=AXIS2_PLACEMENT_3D('',#1464,#958,#959);
#763=AXIS2_PLACEMENT_3D('',#1467,#962,#963);
#764=AXIS2_PLACEMENT_3D('',#1468,#964,#965);
#765=AXIS2_PLACEMENT_3D('',#1469,#966,#967);
#766=AXIS2_PLACEMENT_3D('',#1470,#968,#969);
#767=AXIS2_PLACEMENT_3D('',#1474,#973,#974);
#768=AXIS2_PLACEMENT_3D('',#1476,#976,#977);
#769=AXIS2_PLACEMENT_3D('',#1477,#978,#979);
#770=AXIS2_PLACEMENT_3D('',#1478,#980,#981);
#771=AXIS2_PLACEMENT_3D('',#1479,#982,#983);
#772=AXIS2_PLACEMENT_3D('',#1480,#984,#985);
#773=AXIS2_PLACEMENT_3D('',#1482,#987,#988);
#774=AXIS2_PLACEMENT_3D('',#1483,#989,#990);
#775=AXIS2_PLACEMENT_3D('',#1484,#991,#992);
#776=DIRECTION('axis',(0.,0.,1.));
#777=DIRECTION('refdir',(1.,0.,0.));
#778=DIRECTION('center_axis',(0.,0.,1.));
#779=DIRECTION('ref_axis',(-1.,0.,0.));
#780=DIRECTION('center_axis',(0.,1.,0.));
#781=DIRECTION('ref_axis',(1.,0.,0.));
#782=DIRECTION('center_axis',(0.,1.,0.));
#783=DIRECTION('ref_axis',(-0.707106781186548,0.,0.707106781186547));
#784=DIRECTION('',(0.,0.,-1.));
#785=DIRECTION('center_axis',(0.,1.,0.));
#786=DIRECTION('ref_axis',(-0.70710678118655,0.,-0.707106781186545));
#787=DIRECTION('',(1.,0.,-1.99841717448867E-33));
#788=DIRECTION('center_axis',(0.,1.,0.));
#789=DIRECTION('ref_axis',(0.707106781186553,0.,-0.707106781186542));
#790=DIRECTION('',(0.,0.,-1.));
#791=DIRECTION('center_axis',(0.,1.,0.));
#792=DIRECTION('ref_axis',(0.707106781186552,0.,0.707106781186543));
#793=DIRECTION('',(1.,0.,0.));
#794=DIRECTION('center_axis',(0.,-1.,0.));
#795=DIRECTION('ref_axis',(-1.,0.,0.));
#796=DIRECTION('',(0.,-1.,0.));
#797=DIRECTION('center_axis',(0.,0.,-1.));
#798=DIRECTION('ref_axis',(1.,0.,0.));
#799=DIRECTION('center_axis',(0.,-1.,0.));
#800=DIRECTION('ref_axis',(1.,0.,0.));
#801=DIRECTION('',(0.,-1.,0.));
#802=DIRECTION('center_axis',(0.408248290463863,-0.408248290463861,-0.816496580927727));
#803=DIRECTION('ref_axis',(-0.577350269189628,0.577350269189624,-0.577350269189625));
#804=DIRECTION('center_axis',(-1.,0.,0.));
#805=DIRECTION('ref_axis',(0.,0.,-1.));
#806=DIRECTION('center_axis',(0.,1.,0.));
#807=DIRECTION('ref_axis',(-1.,0.,0.));
#808=DIRECTION('center_axis',(0.,0.,-1.));
#809=DIRECTION('ref_axis',(0.,1.,0.));
#810=DIRECTION('center_axis',(0.,1.,0.));
#811=DIRECTION('ref_axis',(-0.70710678118655,0.,-0.707106781186545));
#812=DIRECTION('',(0.,1.,0.));
#813=DIRECTION('',(0.,-1.,0.));
#814=DIRECTION('center_axis',(-0.408248290463863,0.408248290463862,-0.816496580927727));
#815=DIRECTION('ref_axis',(-0.577350269189628,0.577350269189625,0.577350269189625));
#816=DIRECTION('center_axis',(0.,0.,1.));
#817=DIRECTION('ref_axis',(-1.,0.,0.));
#818=DIRECTION('center_axis',(0.,1.,0.));
#819=DIRECTION('ref_axis',(0.,0.,1.));
#820=DIRECTION('center_axis',(-1.,0.,0.));
#821=DIRECTION('ref_axis',(0.,1.,0.));
#822=DIRECTION('center_axis',(0.,1.,0.));
#823=DIRECTION('ref_axis',(-0.707106781186548,0.,0.707106781186547));
#824=DIRECTION('',(0.,1.,0.));
#825=DIRECTION('',(0.,-1.,0.));
#826=DIRECTION('center_axis',(0.,0.,-1.));
#827=DIRECTION('ref_axis',(-1.,0.,0.));
#828=DIRECTION('center_axis',(-1.99841717448867E-33,0.,-1.));
#829=DIRECTION('ref_axis',(0.707106781186546,-0.707106781186549,-1.03036656673027E-31));
#830=DIRECTION('center_axis',(-1.,0.,0.));
#831=DIRECTION('ref_axis',(0.,1.,0.));
#832=DIRECTION('center_axis',(0.,0.,1.));
#833=DIRECTION('ref_axis',(1.,0.,0.));
#834=DIRECTION('center_axis',(0.,1.,0.));
#835=DIRECTION('ref_axis',(0.,0.,-1.));
#836=DIRECTION('center_axis',(-1.,0.,1.99841717448867E-33));
#837=DIRECTION('ref_axis',(0.,0.707106781186548,-0.707106781186547));
#838=DIRECTION('',(1.,0.,-1.99841717448867E-33));
#839=DIRECTION('',(-1.,0.,1.99841717448867E-33));
#840=DIRECTION('center_axis',(0.,0.,-1.));
#841=DIRECTION('ref_axis',(-1.,0.,0.));
#842=DIRECTION('center_axis',(0.,0.,-1.));
#843=DIRECTION('ref_axis',(0.,-1.,0.));
#844=DIRECTION('center_axis',(-1.,0.,0.));
#845=DIRECTION('ref_axis',(0.,0.,1.));
#846=DIRECTION('center_axis',(0.,0.,1.));
#847=DIRECTION('ref_axis',(0.707106781186547,-0.707106781186548,0.));
#848=DIRECTION('center_axis',(0.,1.,0.));
#849=DIRECTION('ref_axis',(-1.,0.,0.));
#850=DIRECTION('center_axis',(1.,0.,0.));
#851=DIRECTION('ref_axis',(0.,0.707106781186548,0.707106781186547));
#852=DIRECTION('',(-1.,0.,0.));
#853=DIRECTION('',(1.,0.,0.));
#854=DIRECTION('center_axis',(-0.408248290463861,-0.816496580927726,-0.408248290463865));
#855=DIRECTION('ref_axis',(-0.577350269189625,0.577350269189626,-0.577350269189627));
#856=DIRECTION('center_axis',(-1.,0.,0.));
#857=DIRECTION('ref_axis',(0.,0.,-1.));
#858=DIRECTION('center_axis',(0.,1.,0.));
#859=DIRECTION('ref_axis',(-1.,0.,0.));
#860=DIRECTION('center_axis',(0.,0.,-1.));
#861=DIRECTION('ref_axis',(0.,1.,0.));
#862=DIRECTION('center_axis',(0.,1.,0.));
#863=DIRECTION('ref_axis',(-0.707106781186546,0.,-0.707106781186549));
#864=DIRECTION('',(0.,-1.,0.));
#865=DIRECTION('',(0.,1.,0.));
#866=DIRECTION('center_axis',(-0.408248290463863,-0.816496580927725,0.408248290463865));
#867=DIRECTION('ref_axis',(-0.577350269189626,0.577350269189626,0.577350269189626));
#868=DIRECTION('center_axis',(0.,0.,1.));
#869=DIRECTION('ref_axis',(-1.,0.,0.));
#870=DIRECTION('center_axis',(0.,1.,0.));
#871=DIRECTION('ref_axis',(0.,0.,1.));
#872=DIRECTION('center_axis',(-1.,0.,-4.44089209850063E-15));
#873=DIRECTION('ref_axis',(0.,1.,0.));
#874=DIRECTION('center_axis',(0.,1.,0.));
#875=DIRECTION('ref_axis',(-0.707106781186548,0.,0.707106781186547));
#876=DIRECTION('',(0.,-1.,0.));
#877=DIRECTION('',(0.,1.,0.));
#878=DIRECTION('center_axis',(0.408248290463855,0.40824829046386,-0.816496580927732));
#879=DIRECTION('ref_axis',(0.577350269189639,0.577350269189619,0.577350269189619));
#880=DIRECTION('center_axis',(1.,0.,0.));
#881=DIRECTION('ref_axis',(0.,0.,1.));
#882=DIRECTION('center_axis',(0.,1.,0.));
#883=DIRECTION('ref_axis',(1.,0.,-3.33066907387542E-15));
#884=DIRECTION('center_axis',(4.44089209850056E-15,0.,1.));
#885=DIRECTION('ref_axis',(0.,1.,0.));
#886=DIRECTION('center_axis',(0.408248290463856,0.408248290463861,-0.816496580927731));
#887=DIRECTION('ref_axis',(0.577350269189639,0.577350269189619,0.577350269189619));
#888=DIRECTION('center_axis',(1.,0.,0.));
#889=DIRECTION('ref_axis',(0.,0.,1.));
#890=DIRECTION('center_axis',(0.,1.,0.));
#891=DIRECTION('ref_axis',(1.,0.,0.));
#892=DIRECTION('center_axis',(1.11022302462514E-15,0.,1.));
#893=DIRECTION('ref_axis',(0.,1.,0.));
#894=DIRECTION('center_axis',(0.,1.,0.));
#895=DIRECTION('ref_axis',(0.707106781186552,0.,0.707106781186543));
#896=DIRECTION('',(0.,1.,0.));
#897=DIRECTION('',(0.,-1.,0.));
#898=DIRECTION('center_axis',(0.,0.,-1.));
#899=DIRECTION('ref_axis',(0.707106781186553,0.707106781186543,0.));
#900=DIRECTION('center_axis',(0.,0.707106781186547,0.707106781186548));
#901=DIRECTION('ref_axis',(-4.9065389333868E-17,0.707106781186548,-0.707106781186547));
#902=DIRECTION('',(0.,0.,1.));
#903=DIRECTION('',(0.,0.,-1.));
#904=DIRECTION('center_axis',(0.,0.,1.));
#905=DIRECTION('ref_axis',(1.,0.,0.));
#906=DIRECTION('center_axis',(0.,0.,1.));
#907=DIRECTION('ref_axis',(-0.707106781186553,-0.707106781186542,0.));
#908=DIRECTION('center_axis',(1.,0.,0.));
#909=DIRECTION('ref_axis',(0.,1.,0.));
#910=DIRECTION('center_axis',(-3.33066907387542E-15,-7.7715611723761E-15,
-1.));
#911=DIRECTION('ref_axis',(-1.,0.,3.33066907387542E-15));
#912=DIRECTION('center_axis',(0.,1.,0.));
#913=DIRECTION('ref_axis',(0.,0.,1.));
#914=DIRECTION('center_axis',(1.,0.,0.));
#915=DIRECTION('ref_axis',(0.,0.707106781186548,0.707106781186547));
#916=DIRECTION('',(-1.,0.,0.));
#917=DIRECTION('',(1.,0.,0.));
#918=DIRECTION('center_axis',(3.53064713421168E-15,0.,1.));
#919=DIRECTION('ref_axis',(-0.707106781186553,-0.707106781186542,1.57009245868376E-15));
#920=DIRECTION('center_axis',(-3.19189119579728E-15,0.,-1.));
#921=DIRECTION('ref_axis',(0.,-1.,0.));
#922=DIRECTION('',(3.53064713421168E-15,0.,1.));
#923=DIRECTION('',(-3.53064713421168E-15,0.,-1.));
#924=DIRECTION('center_axis',(0.,1.,0.));
#925=DIRECTION('ref_axis',(0.,0.,1.));
#926=DIRECTION('center_axis',(0.,-1.,0.));
#927=DIRECTION('ref_axis',(0.707106781186546,0.,-0.707106781186549));
#928=DIRECTION('center_axis',(0.,1.,0.));
#929=DIRECTION('ref_axis',(0.707106781186546,0.,-0.707106781186549));
#930=DIRECTION('center_axis',(0.,1.,0.));
#931=DIRECTION('ref_axis',(0.707106781186554,0.,0.707106781186541));
#932=DIRECTION('',(0.,-1.,0.));
#933=DIRECTION('',(0.,1.,0.));
#934=DIRECTION('center_axis',(-3.53064713421168E-15,0.,-1.));
#935=DIRECTION('ref_axis',(0.707106781186552,0.707106781186543,-1.57009245868376E-15));
#936=DIRECTION('center_axis',(3.46944695195356E-15,0.,1.));
#937=DIRECTION('ref_axis',(1.,0.,-3.46944695195356E-15));
#938=DIRECTION('',(3.53064713421168E-15,0.,1.));
#939=DIRECTION('',(-3.53064713421168E-15,0.,-1.));
#940=DIRECTION('center_axis',(1.,0.,0.));
#941=DIRECTION('ref_axis',(0.,0.707106781186548,0.707106781186547));
#942=DIRECTION('',(-1.,0.,0.));
#943=DIRECTION('',(1.,0.,0.));
#944=DIRECTION('center_axis',(0.,0.,1.));
#945=DIRECTION('ref_axis',(-0.707106781186549,0.707106781186546,0.));
#946=DIRECTION('',(0.,0.,-1.));
#947=DIRECTION('',(0.,0.,1.));
#948=DIRECTION('center_axis',(-1.,0.,1.99841717448867E-33));
#949=DIRECTION('ref_axis',(0.,0.707106781186548,-0.707106781186547));
#950=DIRECTION('center_axis',(-1.,0.,0.));
#951=DIRECTION('ref_axis',(0.,1.,0.));
#952=DIRECTION('',(-1.,0.,1.99841717448867E-33));
#953=DIRECTION('',(1.,0.,-1.99841717448867E-33));
#954=DIRECTION('center_axis',(0.,0.,-1.));
#955=DIRECTION('ref_axis',(0.707106781186546,-0.707106781186549,0.));
#956=DIRECTION('',(0.,0.,1.));
#957=DIRECTION('',(0.,0.,-1.));
#958=DIRECTION('center_axis',(0.,0.,1.));
#959=DIRECTION('ref_axis',(-0.707106781186547,0.707106781186548,0.));
#960=DIRECTION('',(0.,0.,-1.));
#961=DIRECTION('',(0.,0.,1.));
#962=DIRECTION('center_axis',(-0.408248290463861,-0.40824829046386,-0.816496580927729));
#963=DIRECTION('ref_axis',(0.577350269189625,0.577350269189625,-0.577350269189627));
#964=DIRECTION('center_axis',(0.,1.,0.));
#965=DIRECTION('ref_axis',(0.707106781186549,0.,-0.707106781186546));
#966=DIRECTION('center_axis',(-1.,0.,0.));
#967=DIRECTION('ref_axis',(0.,0.,1.));
#968=DIRECTION('center_axis',(-1.99841717448867E-33,0.,-1.));
#969=DIRECTION('ref_axis',(-1.,0.,1.99841717448867E-33));
#970=DIRECTION('',(0.,1.,0.));
#971=DIRECTION('',(-1.,0.,1.99841717448867E-33));
#972=DIRECTION('',(0.,1.,0.));
#973=DIRECTION('center_axis',(1.,0.,-3.53064713421168E-15));
#974=DIRECTION('ref_axis',(-3.53064713421168E-15,0.,-1.));
#975=DIRECTION('',(0.,-1.,0.));
#976=DIRECTION('center_axis',(0.,1.,0.));
#977=DIRECTION('ref_axis',(0.707106781186551,0.,-0.707106781186544));
#978=DIRECTION('center_axis',(0.,1.,0.));
#979=DIRECTION('ref_axis',(1.,0.,0.));
#980=DIRECTION('center_axis',(-1.,0.,0.));
#981=DIRECTION('ref_axis',(0.,0.,1.));
#982=DIRECTION('center_axis',(0.,1.,0.));
#983=DIRECTION('ref_axis',(0.,0.,1.));
#984=DIRECTION('center_axis',(0.,1.,0.));
#985=DIRECTION('ref_axis',(0.707106781186553,0.,-0.707106781186542));
#986=DIRECTION('',(0.,-1.,0.));
#987=DIRECTION('center_axis',(0.,1.,0.));
#988=DIRECTION('ref_axis',(1.,0.,0.));
#989=DIRECTION('center_axis',(0.,0.,1.));
#990=DIRECTION('ref_axis',(1.,0.,0.));
#991=DIRECTION('center_axis',(1.,0.,0.));
#992=DIRECTION('ref_axis',(0.,0.,-1.));
#993=CARTESIAN_POINT('',(0.,0.,0.));
#994=CARTESIAN_POINT('Ctrl Pts',(212.9375,0.,5.03125));
#995=CARTESIAN_POINT('Ctrl Pts',(212.9375,0.,5.33675070370391));
#996=CARTESIAN_POINT('Ctrl Pts',(212.79304824246,0.,5.94536875836493));
#997=CARTESIAN_POINT('Ctrl Pts',(212.038730802199,0.,6.93838874818636));
#998=CARTESIAN_POINT('Ctrl Pts',(210.107232297824,0.,7.95011641115045));
#999=CARTESIAN_POINT('Ctrl Pts',(207.823797133871,0.,8.14775393283224));
#1000=CARTESIAN_POINT('Ctrl Pts',(205.813686059003,0.,7.80351776908973));
#1001=CARTESIAN_POINT('Ctrl Pts',(204.655971051353,0.,7.39038266240419));
#1002=CARTESIAN_POINT('Ctrl Pts',(203.623065544769,0.,6.71841665504785));
#1003=CARTESIAN_POINT('Ctrl Pts',(202.908893583833,0.,5.67509870874281));
#1004=CARTESIAN_POINT('Ctrl Pts',(202.910687264622,0.,4.38902130590847));
#1005=CARTESIAN_POINT('Ctrl Pts',(203.746061832218,0.,3.1725731213947));
#1006=CARTESIAN_POINT('Ctrl Pts',(205.213476177014,0.,2.39025129394156));
#1007=CARTESIAN_POINT('Ctrl Pts',(207.613216705937,0.,1.90132965183457));
#1008=CARTESIAN_POINT('Ctrl Pts',(210.109470438287,0.,2.10785767270915));
#1009=CARTESIAN_POINT('Ctrl Pts',(212.03883458713,0.,3.12353631865338));
#1010=CARTESIAN_POINT('Ctrl Pts',(212.793228539296,0.,4.11670880672745));
#1011=CARTESIAN_POINT('Ctrl Pts',(212.9375,0.,4.7257492962961));
#1012=CARTESIAN_POINT('Ctrl Pts',(212.9375,0.,5.03125));
#1013=CARTESIAN_POINT('Ctrl Pts',(212.638300699658,0.,5.03125));
#1014=CARTESIAN_POINT('Ctrl Pts',(212.638300699658,0.,5.29084988498963));
#1015=CARTESIAN_POINT('Ctrl Pts',(212.516635266976,3.3209467644146E-21,
5.80839401857936));
#1016=CARTESIAN_POINT('Ctrl Pts',(211.85516970129,7.9095376680048E-21,6.68915674537916));
#1017=CARTESIAN_POINT('Ctrl Pts',(210.044910175794,2.69996925647456E-20,
7.64982950929126));
#1018=CARTESIAN_POINT('Ctrl Pts',(207.823974943344,1.06124451114083E-19,
7.84453000373466));
#1019=CARTESIAN_POINT('Ctrl Pts',(205.888005689251,1.44499082387677E-19,
7.51142929490131));
#1020=CARTESIAN_POINT('Ctrl Pts',(204.785747603362,2.03044816255205E-19,
7.11762659245182));
#1021=CARTESIAN_POINT('Ctrl Pts',(203.828771077562,2.76238858316769E-19,
6.49036380922793));
#1022=CARTESIAN_POINT('Ctrl Pts',(203.21242358513,5.74233695059882E-19,
5.57224500518985));
#1023=CARTESIAN_POINT('Ctrl Pts',(203.212870611007,5.5739724234392E-19,
4.49104100747865));
#1024=CARTESIAN_POINT('Ctrl Pts',(203.934479988287,1.19858185681473E-18,
3.42023407048149));
#1025=CARTESIAN_POINT('Ctrl Pts',(205.310036309413,1.42191048037914E-18,
2.67734082670233));
#1026=CARTESIAN_POINT('Ctrl Pts',(207.618707532379,5.92152090262268E-18,
2.2055112416063));
#1027=CARTESIAN_POINT('Ctrl Pts',(210.047560870075,1.52776562951192E-17,
2.40841079033364));
#1028=CARTESIAN_POINT('Ctrl Pts',(211.855299264697,1.0304944127918E-18,
3.37298994163966));
#1029=CARTESIAN_POINT('Ctrl Pts',(212.516853262871,1.43352230497441E-18,
4.25372488308959));
#1030=CARTESIAN_POINT('Ctrl Pts',(212.638300699658,0.,4.77165011501025));
#1031=CARTESIAN_POINT('Ctrl Pts',(212.638300699658,0.,5.03125));
#1032=CARTESIAN_POINT('Ctrl Pts',(212.120515111155,0.251308401670167,5.03125));
#1033=CARTESIAN_POINT('Ctrl Pts',(212.120515111155,0.251308401670167,5.21200579068745));
#1034=CARTESIAN_POINT('Ctrl Pts',(212.038335493622,0.251308401670167,5.5725849112486));
#1035=CARTESIAN_POINT('Ctrl Pts',(211.536716045736,0.251308401670167,6.26011457315826));
#1036=CARTESIAN_POINT('Ctrl Pts',(209.93627034148,0.251308401670167,7.13176852778373));
#1037=CARTESIAN_POINT('Ctrl Pts',(207.824937739924,0.251308401670167,7.32088913058639));
#1038=CARTESIAN_POINT('Ctrl Pts',(206.016763784841,0.251308401670167,7.00722593818306));
#1039=CARTESIAN_POINT('Ctrl Pts',(205.010089631282,0.251308401670167,6.64687703013845));
#1040=CARTESIAN_POINT('Ctrl Pts',(204.184019195592,0.251308401670167,6.09713603493181));
#1041=CARTESIAN_POINT('Ctrl Pts',(203.736047410557,0.251308401670167,5.39531408477425));
#1042=CARTESIAN_POINT('Ctrl Pts',(203.734341978113,0.251308401670167,4.6666662979012));
#1043=CARTESIAN_POINT('Ctrl Pts',(204.260126891426,0.251308401670167,3.84674040341128));
#1044=CARTESIAN_POINT('Ctrl Pts',(205.477424537777,0.251308401670167,3.17259884852625));
#1045=CARTESIAN_POINT('Ctrl Pts',(207.628304646037,0.251308401670167,2.73027235323101));
#1046=CARTESIAN_POINT('Ctrl Pts',(209.939567246513,0.251308401670167,2.92723133095301));
#1047=CARTESIAN_POINT('Ctrl Pts',(211.536975505949,0.251308401670167,3.80243504192141));
#1048=CARTESIAN_POINT('Ctrl Pts',(212.03861781536,0.251308401670167,4.48963155376286));
#1049=CARTESIAN_POINT('Ctrl Pts',(212.120515111155,0.251308401670167,4.85049420931225));
#1050=CARTESIAN_POINT('Ctrl Pts',(212.120515111155,0.251308401670167,5.03125));
#1051=CARTESIAN_POINT('Ctrl Pts',(211.9375,0.775600524743586,5.03125));
#1052=CARTESIAN_POINT('Ctrl Pts',(211.9375,0.775600524743586,5.18387620483838));
#1053=CARTESIAN_POINT('Ctrl Pts',(211.869253694529,0.775600524743586,5.48868926125737));
#1054=CARTESIAN_POINT('Ctrl Pts',(211.424505371254,0.775600524743586,6.10746036503045));
#1055=CARTESIAN_POINT('Ctrl Pts',(209.898219378039,0.775600524743586,6.94794438178908));
#1056=CARTESIAN_POINT('Ctrl Pts',(207.824987888825,0.775600524743586,7.13531293862349));
#1057=CARTESIAN_POINT('Ctrl Pts',(206.062211066597,0.775600524743586,6.82844618757643));
#1058=CARTESIAN_POINT('Ctrl Pts',(205.089493701079,0.775600524743586,6.47992278749045));
#1059=CARTESIAN_POINT('Ctrl Pts',(204.309911964417,0.775600524743586,5.95751170388811));
#1060=CARTESIAN_POINT('Ctrl Pts',(203.921859740446,0.775600524743586,5.33230496298693));
#1061=CARTESIAN_POINT('Ctrl Pts',(203.919314653392,0.775600524743586,4.72915295682472));
#1062=CARTESIAN_POINT('Ctrl Pts',(204.375417008845,0.775600524743586,3.99841725246609));
#1063=CARTESIAN_POINT('Ctrl Pts',(205.536463306543,0.775600524743587,3.34834716569033));
#1064=CARTESIAN_POINT('Ctrl Pts',(207.631654804245,0.775600524743586,2.916482383794));
#1065=CARTESIAN_POINT('Ctrl Pts',(209.901774696544,0.775600524743586,3.11119157645164));
#1066=CARTESIAN_POINT('Ctrl Pts',(211.424772968762,0.775600524743586,3.95522307562892));
#1067=CARTESIAN_POINT('Ctrl Pts',(211.869559158013,0.775600524743586,4.57355015980889));
#1068=CARTESIAN_POINT('Ctrl Pts',(211.9375,0.775600524743586,4.87862379516125));
#1069=CARTESIAN_POINT('Ctrl Pts',(211.9375,0.775600524743586,5.03125));
#1070=CARTESIAN_POINT('Ctrl Pts',(211.9375,1.,5.03125));
#1071=CARTESIAN_POINT('Ctrl Pts',(211.9375,1.,5.18400035185162));
#1072=CARTESIAN_POINT('Ctrl Pts',(211.869264724439,1.,5.48894897834235));
#1073=CARTESIAN_POINT('Ctrl Pts',(211.424339674088,1.,6.10793789951499));
#1074=CARTESIAN_POINT('Ctrl Pts',(209.898053928547,1.,6.94828217756076));
#1075=CARTESIAN_POINT('Ctrl Pts',(207.825125608393,1.,7.13554621604327));
#1076=CARTESIAN_POINT('Ctrl Pts',(206.06224106869,1.,6.82871453642148));
#1077=CARTESIAN_POINT('Ctrl Pts',(205.089442091209,1.,6.48019065261538));
#1078=CARTESIAN_POINT('Ctrl Pts',(204.309756417895,1.,5.95781314118328));
#1079=CARTESIAN_POINT('Ctrl Pts',(203.921511523606,1.,5.33252879691096));
#1080=CARTESIAN_POINT('Ctrl Pts',(203.919003862718,1.,4.72895806540002));
#1081=CARTESIAN_POINT('Ctrl Pts',(204.375327856731,1.,3.99797818628028));
#1082=CARTESIAN_POINT('Ctrl Pts',(205.536523028669,1.,3.34801694301499));
#1083=CARTESIAN_POINT('Ctrl Pts',(207.631674744608,1.,2.91613619909066));
#1084=CARTESIAN_POINT('Ctrl Pts',(209.901595005356,1.,3.11091660923664));
#1085=CARTESIAN_POINT('Ctrl Pts',(211.424625201275,1.,3.95474961935311));
#1086=CARTESIAN_POINT('Ctrl Pts',(211.869569995551,1.,4.57329591452274));
#1087=CARTESIAN_POINT('Ctrl Pts',(211.9375,1.,4.87849964814801));
#1088=CARTESIAN_POINT('Ctrl Pts',(211.9375,1.,5.03125));
#1089=CARTESIAN_POINT('',(211.9375,1.,5.03125));
#1090=CARTESIAN_POINT('',(212.9375,0.,5.03125));
#1091=CARTESIAN_POINT('Origin',(212.9375,1.,5.03125));
#1092=CARTESIAN_POINT('Ctrl Pts',(212.9375,0.,5.03125));
#1093=CARTESIAN_POINT('Ctrl Pts',(212.9375,0.,5.33675070370391));
#1094=CARTESIAN_POINT('Ctrl Pts',(212.79304824246,0.,5.94536875836493));
#1095=CARTESIAN_POINT('Ctrl Pts',(212.038730802199,0.,6.93838874818636));
#1096=CARTESIAN_POINT('Ctrl Pts',(210.107232297824,0.,7.95011641115045));
#1097=CARTESIAN_POINT('Ctrl Pts',(207.823797133871,0.,8.14775393283224));
#1098=CARTESIAN_POINT('Ctrl Pts',(205.813686059003,0.,7.80351776908973));
#1099=CARTESIAN_POINT('Ctrl Pts',(204.655971051353,0.,7.39038266240419));
#1100=CARTESIAN_POINT('Ctrl Pts',(203.623065544769,0.,6.71841665504785));
#1101=CARTESIAN_POINT('Ctrl Pts',(202.908893583833,0.,5.67509870874281));
#1102=CARTESIAN_POINT('Ctrl Pts',(202.910687264622,0.,4.38902130590847));
#1103=CARTESIAN_POINT('Ctrl Pts',(203.746061832218,0.,3.1725731213947));
#1104=CARTESIAN_POINT('Ctrl Pts',(205.213476177014,0.,2.39025129394156));
#1105=CARTESIAN_POINT('Ctrl Pts',(207.613216705937,0.,1.90132965183457));
#1106=CARTESIAN_POINT('Ctrl Pts',(210.109470438287,0.,2.10785767270915));
#1107=CARTESIAN_POINT('Ctrl Pts',(212.03883458713,0.,3.12353631865338));
#1108=CARTESIAN_POINT('Ctrl Pts',(212.793228539296,0.,4.11670880672745));
#1109=CARTESIAN_POINT('Ctrl Pts',(212.9375,0.,4.7257492962961));
#1110=CARTESIAN_POINT('Ctrl Pts',(212.9375,0.,5.03125));
#1111=CARTESIAN_POINT('Ctrl Pts',(211.9375,1.,5.03125));
#1112=CARTESIAN_POINT('Ctrl Pts',(211.9375,1.,4.87849964814801));
#1113=CARTESIAN_POINT('Ctrl Pts',(211.869569995551,1.,4.57329591452274));
#1114=CARTESIAN_POINT('Ctrl Pts',(211.424625201275,1.,3.95474961935311));
#1115=CARTESIAN_POINT('Ctrl Pts',(209.901595005356,1.,3.11091660923664));
#1116=CARTESIAN_POINT('Ctrl Pts',(207.631674744608,1.,2.91613619909066));
#1117=CARTESIAN_POINT('Ctrl Pts',(205.536523028669,1.,3.34801694301499));
#1118=CARTESIAN_POINT('Ctrl Pts',(204.375327856731,1.,3.99797818628028));
#1119=CARTESIAN_POINT('Ctrl Pts',(203.919003862718,1.,4.72895806540002));
#1120=CARTESIAN_POINT('Ctrl Pts',(203.921511523606,1.,5.33252879691096));
#1121=CARTESIAN_POINT('Ctrl Pts',(204.309756417895,1.,5.95781314118328));
#1122=CARTESIAN_POINT('Ctrl Pts',(205.089442091209,1.,6.48019065261538));
#1123=CARTESIAN_POINT('Ctrl Pts',(206.06224106869,1.,6.82871453642148));
#1124=CARTESIAN_POINT('Ctrl Pts',(207.825125608393,1.,7.13554621604327));
#1125=CARTESIAN_POINT('Ctrl Pts',(209.898053928547,1.,6.94828217756076));
#1126=CARTESIAN_POINT('Ctrl Pts',(211.424339674088,1.,6.10793789951499));
#1127=CARTESIAN_POINT('Ctrl Pts',(211.869264724439,1.,5.48894897834235));
#1128=CARTESIAN_POINT('Ctrl Pts',(211.9375,1.,5.18400035185162));
#1129=CARTESIAN_POINT('Ctrl Pts',(211.9375,1.,5.03125));
#1130=CARTESIAN_POINT('Origin',(107.9375,0.,5.03125));
#1131=CARTESIAN_POINT('',(2.,0.,9.0625));
#1132=CARTESIAN_POINT('',(3.,0.,10.0625));
#1133=CARTESIAN_POINT('Origin',(3.,0.,9.0625));
#1134=CARTESIAN_POINT('',(2.,0.,1.));
#1135=CARTESIAN_POINT('',(2.,0.,10.0625));
#1136=CARTESIAN_POINT('',(3.00000000000001,0.,-5.99525152346601E-33));
#1137=CARTESIAN_POINT('Origin',(3.00000000000001,0.,1.));
#1138=CARTESIAN_POINT('',(212.875,0.,-4.25413056019275E-31));
#1139=CARTESIAN_POINT('',(0.,0.,0.));
#1140=CARTESIAN_POINT('',(213.875,0.,1.));
#1141=CARTESIAN_POINT('Origin',(212.875,0.,1.));
#1142=CARTESIAN_POINT('',(213.875,0.,9.0625));
#1143=CARTESIAN_POINT('',(213.875,0.,10.0625));
#1144=CARTESIAN_POINT('',(212.875,0.,10.0625));
#1145=CARTESIAN_POINT('Origin',(212.875,0.,9.0625));
#1146=CARTESIAN_POINT('',(0.,0.,10.0625));
#1147=CARTESIAN_POINT('',(2.9375,0.,5.03125));
#1148=CARTESIAN_POINT('Ctrl Pts',(2.9375,0.,5.03125));
#1149=CARTESIAN_POINT('Ctrl Pts',(2.9375,0.,4.72574929629609));
#1150=CARTESIAN_POINT('Ctrl Pts',(3.08149911359576,0.,4.11754340583366));
#1151=CARTESIAN_POINT('Ctrl Pts',(3.83663326636208,0.,3.12262256125283));
#1152=CARTESIAN_POINT('Ctrl Pts',(5.76776038963855,0.,2.10957959427819));
#1153=CARTESIAN_POINT('Ctrl Pts',(8.05277609324791,0.,1.92069565380217));
#1154=CARTESIAN_POINT('Ctrl Pts',(10.0613952426481,0.,2.25782821659646));
#1155=CARTESIAN_POINT('Ctrl Pts',(11.2193065445967,0.,2.67316809410614));
#1156=CARTESIAN_POINT('Ctrl Pts',(12.2519341295692,0.,3.34447364700189));
#1157=CARTESIAN_POINT('Ctrl Pts',(12.9661136520051,0.,4.38794926082151));
#1158=CARTESIAN_POINT('Ctrl Pts',(12.9655782192667,0.,5.67476021654585));
#1159=CARTESIAN_POINT('Ctrl Pts',(12.1293390562578,0.,6.88932261362778));
#1160=CARTESIAN_POINT('Ctrl Pts',(10.6601916613977,0.,7.67384793190447));
#1161=CARTESIAN_POINT('Ctrl Pts',(8.26070072129321,0.,8.16122816596139));
#1162=CARTESIAN_POINT('Ctrl Pts',(5.76662611705005,0.,7.95181135132741));
#1163=CARTESIAN_POINT('Ctrl Pts',(3.83672310912538,0.,6.94055051893164));
#1164=CARTESIAN_POINT('Ctrl Pts',(3.08142976449737,0.,5.94472048445598));
#1165=CARTESIAN_POINT('Ctrl Pts',(2.9375,0.,5.3367507037039));
#1166=CARTESIAN_POINT('Ctrl Pts',(2.9375,0.,5.03125));
#1167=CARTESIAN_POINT('Ctrl Pts',(211.9375,1.,5.03125));
#1168=CARTESIAN_POINT('Ctrl Pts',(211.9375,1.,3.03125));
#1169=CARTESIAN_POINT('Ctrl Pts',(207.9375,1.,3.03125));
#1170=CARTESIAN_POINT('Ctrl Pts',(203.9375,1.,3.03125));
#1171=CARTESIAN_POINT('Ctrl Pts',(203.9375,1.,5.03125));
#1172=CARTESIAN_POINT('Ctrl Pts',(203.9375,1.,7.03125));
#1173=CARTESIAN_POINT('Ctrl Pts',(207.9375,1.,7.03125));
#1174=CARTESIAN_POINT('Ctrl Pts',(211.9375,1.,7.03125));
#1175=CARTESIAN_POINT('Ctrl Pts',(211.9375,1.,5.03125));
#1176=CARTESIAN_POINT('Ctrl Pts',(211.9375,3.,5.03125));
#1177=CARTESIAN_POINT('Ctrl Pts',(211.9375,3.,3.03125));
#1178=CARTESIAN_POINT('Ctrl Pts',(207.9375,3.,3.03125));
#1179=CARTESIAN_POINT('Ctrl Pts',(203.9375,3.,3.03125));
#1180=CARTESIAN_POINT('Ctrl Pts',(203.9375,3.,5.03125));
#1181=CARTESIAN_POINT('Ctrl Pts',(203.9375,3.,7.03125));
#1182=CARTESIAN_POINT('Ctrl Pts',(207.9375,3.,7.03125));
#1183=CARTESIAN_POINT('Ctrl Pts',(211.9375,3.,7.03125));
#1184=CARTESIAN_POINT('Ctrl Pts',(211.9375,3.,5.03125));
#1185=CARTESIAN_POINT('',(211.9375,3.,5.03125));
#1186=CARTESIAN_POINT('Origin',(207.9375,3.,5.03125));
#1187=CARTESIAN_POINT('',(211.9375,0.,5.03125));
#1188=CARTESIAN_POINT('Ctrl Pts',(2.9375,0.,5.03125));
#1189=CARTESIAN_POINT('Ctrl Pts',(2.9375,0.,4.72574929629609));
#1190=CARTESIAN_POINT('Ctrl Pts',(3.08149911359576,0.,4.11754340583366));
#1191=CARTESIAN_POINT('Ctrl Pts',(3.83663326636208,0.,3.12262256125283));
#1192=CARTESIAN_POINT('Ctrl Pts',(5.76776038963855,0.,2.10957959427819));
#1193=CARTESIAN_POINT('Ctrl Pts',(8.05277609324791,0.,1.92069565380217));
#1194=CARTESIAN_POINT('Ctrl Pts',(10.0613952426481,0.,2.25782821659646));
#1195=CARTESIAN_POINT('Ctrl Pts',(11.2193065445967,0.,2.67316809410614));
#1196=CARTESIAN_POINT('Ctrl Pts',(12.2519341295692,0.,3.34447364700189));
#1197=CARTESIAN_POINT('Ctrl Pts',(12.9661136520051,0.,4.38794926082151));
#1198=CARTESIAN_POINT('Ctrl Pts',(12.9655782192667,0.,5.67476021654585));
#1199=CARTESIAN_POINT('Ctrl Pts',(12.1293390562578,0.,6.88932261362778));
#1200=CARTESIAN_POINT('Ctrl Pts',(10.6601916613977,0.,7.67384793190447));
#1201=CARTESIAN_POINT('Ctrl Pts',(8.26070072129321,0.,8.16122816596139));
#1202=CARTESIAN_POINT('Ctrl Pts',(5.76662611705005,0.,7.95181135132741));
#1203=CARTESIAN_POINT('Ctrl Pts',(3.83672310912538,0.,6.94055051893164));
#1204=CARTESIAN_POINT('Ctrl Pts',(3.08142976449737,0.,5.94472048445598));
#1205=CARTESIAN_POINT('Ctrl Pts',(2.9375,0.,5.3367507037039));
#1206=CARTESIAN_POINT('Ctrl Pts',(2.9375,0.,5.03125));
#1207=CARTESIAN_POINT('Ctrl Pts',(3.23669930034189,0.,5.03125));
#1208=CARTESIAN_POINT('Ctrl Pts',(3.23669930034189,0.,4.77165011501026));
#1209=CARTESIAN_POINT('Ctrl Pts',(3.35813212668416,-3.2490365472745E-16,
4.25414395761119));
#1210=CARTESIAN_POINT('Ctrl Pts',(4.02006344550773,3.01711190364404E-17,
3.37139300810136));
#1211=CARTESIAN_POINT('Ctrl Pts',(5.82975414400453,-3.38231695189747E-17,
2.40948867424056));
#1212=CARTESIAN_POINT('Ctrl Pts',(8.05323453107811,-9.30514413033355E-17,
2.22273542949032));
#1213=CARTESIAN_POINT('Ctrl Pts',(9.98693910426602,6.48823051940152E-17,
2.54953199778567));
#1214=CARTESIAN_POINT('Ctrl Pts',(11.0898057840158,5.83970558718838E-17,
2.9453320834128));
#1215=CARTESIAN_POINT('Ctrl Pts',(12.0465712559216,-2.46988138357693E-16,
3.57180735001795));
#1216=CARTESIAN_POINT('Ctrl Pts',(12.6632031952404,1.26948232668798E-16,
4.4904463053247));
#1217=CARTESIAN_POINT('Ctrl Pts',(12.6633948323907,2.08169986987946E-17,
5.57238606733895));
#1218=CARTESIAN_POINT('Ctrl Pts',(11.9410149815535,-1.21783032627118E-16,
6.64233285601824));
#1219=CARTESIAN_POINT('Ctrl Pts',(10.5631569659554,2.60964885775763E-18,
7.38750561140749));
#1220=CARTESIAN_POINT('Ctrl Pts',(8.25511992005232,-4.1152196610916E-17,
7.85800133948738));
#1221=CARTESIAN_POINT('Ctrl Pts',(5.82900317616514,-2.20828686409736E-17,
7.65225373271609));
#1222=CARTESIAN_POINT('Ctrl Pts',(4.02002828560992,3.7891588852783E-16,
6.69159852762521));
#1223=CARTESIAN_POINT('Ctrl Pts',(3.35810819134957,1.85933731815858E-16,
5.80818049156122));
#1224=CARTESIAN_POINT('Ctrl Pts',(3.23669930034189,8.9060343345093E-16,
5.29084988498971));
#1225=CARTESIAN_POINT('Ctrl Pts',(3.23669930034189,6.64355904382597E-16,
5.03125));
#1226=CARTESIAN_POINT('Ctrl Pts',(3.75485084597859,0.251003401547326,5.03125));
#1227=CARTESIAN_POINT('Ctrl Pts',(3.75485084597859,0.251003401547326,4.85049420931228));
#1228=CARTESIAN_POINT('Ctrl Pts',(3.83710293223448,0.251003401547326,4.49039331953025));
#1229=CARTESIAN_POINT('Ctrl Pts',(4.33798235707728,0.251003401547326,3.80150272200258));
#1230=CARTESIAN_POINT('Ctrl Pts',(5.93723576497092,0.251003401547326,2.92905486252131));
#1231=CARTESIAN_POINT('Ctrl Pts',(8.05395958237778,0.251003401547326,2.7456732758504));
#1232=CARTESIAN_POINT('Ctrl Pts',(9.8578725974475,0.251003401547326,3.05464399945706));
#1233=CARTESIAN_POINT('Ctrl Pts',(10.8656067467889,0.251003401547326,3.41652746073432));
#1234=CARTESIAN_POINT('Ctrl Pts',(11.6908969578663,0.251003401547326,3.96527071162433));
#1235=CARTESIAN_POINT('Ctrl Pts',(12.1390891808501,0.251003401547326,4.66722588143964));
#1236=CARTESIAN_POINT('Ctrl Pts',(12.1403250363154,0.251003401547326,5.39537170790537));
#1237=CARTESIAN_POINT('Ctrl Pts',(11.6146990049925,0.251003401547326,6.21533390043937));
#1238=CARTESIAN_POINT('Ctrl Pts',(10.3950651697402,0.251003401547326,6.89149087478906));
#1239=CARTESIAN_POINT('Ctrl Pts',(8.24544893663567,0.251003401547326,7.33316919851384));
#1240=CARTESIAN_POINT('Ctrl Pts',(5.93709825851734,0.251003401547326,7.13321066067325));
#1241=CARTESIAN_POINT('Ctrl Pts',(4.33768994589294,0.251003401547327,6.26117442115674));
#1242=CARTESIAN_POINT('Ctrl Pts',(3.83716716798061,0.251003401547326,5.57203375299914));
#1243=CARTESIAN_POINT('Ctrl Pts',(3.75485084597859,0.251003401547328,5.21200579068765));
#1244=CARTESIAN_POINT('Ctrl Pts',(3.75485084597859,0.251003401547327,5.03125));
#1245=CARTESIAN_POINT('Ctrl Pts',(3.9375,0.775600524743586,5.03125));
#1246=CARTESIAN_POINT('Ctrl Pts',(3.9375,0.775600524743586,4.87862379516129));
#1247=CARTESIAN_POINT('Ctrl Pts',(4.00599322463111,0.775600524743586,4.57383549579025));
#1248=CARTESIAN_POINT('Ctrl Pts',(4.44991603246611,0.775600524743586,3.95348664659986));
#1249=CARTESIAN_POINT('Ctrl Pts',(5.97506003463623,0.775600524743587,3.11210605534367));
#1250=CARTESIAN_POINT('Ctrl Pts',(8.05425104636637,0.775600524743585,2.93007880907832));
#1251=CARTESIAN_POINT('Ctrl Pts',(9.81244098184517,0.775600524743586,3.23272735769603));
#1252=CARTESIAN_POINT('Ctrl Pts',(10.7865400051787,0.775600524743586,3.5826956605111));
#1253=CARTESIAN_POINT('Ctrl Pts',(11.5655359103174,0.775600524743586,4.10408786540814));
#1254=CARTESIAN_POINT('Ctrl Pts',(11.954096236584,0.775600524743587,4.72991825392742));
#1255=CARTESIAN_POINT('Ctrl Pts',(11.9558121579883,0.775600524743586,5.33282979219283));
#1256=CARTESIAN_POINT('Ctrl Pts',(11.4997646320383,0.775600524743586,6.06443246971973));
#1257=CARTESIAN_POINT('Ctrl Pts',(10.3358374239278,0.775600524743586,6.716712101839));
#1258=CARTESIAN_POINT('Ctrl Pts',(8.24204312406519,0.775600524743587,7.14801181292862));
#1259=CARTESIAN_POINT('Ctrl Pts',(5.97516500449159,0.775600524743586,6.9503884369629));
#1260=CARTESIAN_POINT('Ctrl Pts',(4.44955418337172,0.775600524743587,6.10907967011269));
#1261=CARTESIAN_POINT('Ctrl Pts',(4.00608357865319,0.775600524743586,5.48862892504928));
#1262=CARTESIAN_POINT('Ctrl Pts',(3.9375,0.775600524743587,5.18387620483863));
#1263=CARTESIAN_POINT('Ctrl Pts',(3.9375,0.775600524743587,5.03125));
#1264=CARTESIAN_POINT('Ctrl Pts',(3.9375,1.,5.03125));
#1265=CARTESIAN_POINT('Ctrl Pts',(3.9375,1.,4.87849964814804));
#1266=CARTESIAN_POINT('Ctrl Pts',(4.00597391534216,1.,4.5737750892202));
#1267=CARTESIAN_POINT('Ctrl Pts',(4.44996510874843,1.,3.95335044707405));
#1268=CARTESIAN_POINT('Ctrl Pts',(5.9750833046393,1.,3.1121416581116));
#1269=CARTESIAN_POINT('Ctrl Pts',(8.05423782499015,1.,2.93005331082395));
#1270=CARTESIAN_POINT('Ctrl Pts',(9.81241721186912,1.,3.23271605986447));
#1271=CARTESIAN_POINT('Ctrl Pts',(10.786553366916,1.,3.5826694399928));
#1272=CARTESIAN_POINT('Ctrl Pts',(11.5655305136116,1.,4.1040433691745));
#1273=CARTESIAN_POINT('Ctrl Pts',(11.9541854092103,1.,4.72977922444407));
#1274=CARTESIAN_POINT('Ctrl Pts',(11.9558600708994,1.,5.33288288907936));
#1275=CARTESIAN_POINT('Ctrl Pts',(11.4997305597183,1.,6.06457384721527));
#1276=CARTESIAN_POINT('Ctrl Pts',(10.3358282673949,1.,6.71668736884582));
#1277=CARTESIAN_POINT('Ctrl Pts',(8.24204193658317,1.,7.1480683030202));
#1278=CARTESIAN_POINT('Ctrl Pts',(5.97517860956443,1.,6.950336411778));
#1279=CARTESIAN_POINT('Ctrl Pts',(4.44959543217001,1.,6.10921587060435));
#1280=CARTESIAN_POINT('Ctrl Pts',(4.00606609774131,1.,5.48868889925173));
#1281=CARTESIAN_POINT('Ctrl Pts',(3.9375,1.,5.18400035185188));
#1282=CARTESIAN_POINT('Ctrl Pts',(3.9375,1.,5.03125));
#1283=CARTESIAN_POINT('',(3.9375,1.,5.03125));
#1284=CARTESIAN_POINT('Origin',(2.9375,1.,5.03125));
#1285=CARTESIAN_POINT('Ctrl Pts',(3.9375,1.,5.03125));
#1286=CARTESIAN_POINT('Ctrl Pts',(3.9375,1.,5.18400035185188));
#1287=CARTESIAN_POINT('Ctrl Pts',(4.00606609774131,1.,5.48868889925173));
#1288=CARTESIAN_POINT('Ctrl Pts',(4.44959543217001,1.,6.10921587060435));
#1289=CARTESIAN_POINT('Ctrl Pts',(5.97517860956443,1.,6.950336411778));
#1290=CARTESIAN_POINT('Ctrl Pts',(8.24204193658317,1.,7.1480683030202));
#1291=CARTESIAN_POINT('Ctrl Pts',(10.3358282673949,1.,6.71668736884582));
#1292=CARTESIAN_POINT('Ctrl Pts',(11.4997305597183,1.,6.06457384721527));
#1293=CARTESIAN_POINT('Ctrl Pts',(11.9558600708994,1.,5.33288288907936));
#1294=CARTESIAN_POINT('Ctrl Pts',(11.9541854092103,1.,4.72977922444407));
#1295=CARTESIAN_POINT('Ctrl Pts',(11.5655305136116,1.,4.1040433691745));
#1296=CARTESIAN_POINT('Ctrl Pts',(10.786553366916,1.,3.5826694399928));
#1297=CARTESIAN_POINT('Ctrl Pts',(9.81241721186912,1.,3.23271605986447));
#1298=CARTESIAN_POINT('Ctrl Pts',(8.05423782499015,1.,2.93005331082395));
#1299=CARTESIAN_POINT('Ctrl Pts',(5.9750833046393,1.,3.1121416581116));
#1300=CARTESIAN_POINT('Ctrl Pts',(4.44996510874843,1.,3.95335044707405));
#1301=CARTESIAN_POINT('Ctrl Pts',(4.00597391534216,1.,4.5737750892202));
#1302=CARTESIAN_POINT('Ctrl Pts',(3.9375,1.,4.87849964814804));
#1303=CARTESIAN_POINT('Ctrl Pts',(3.9375,1.,5.03125));
#1304=CARTESIAN_POINT('Ctrl Pts',(3.9375,1.,5.03125));
#1305=CARTESIAN_POINT('Ctrl Pts',(3.9375,1.,7.03125));
#1306=CARTESIAN_POINT('Ctrl Pts',(7.9375,1.,7.03125));
#1307=CARTESIAN_POINT('Ctrl Pts',(11.9375,1.,7.03125));
#1308=CARTESIAN_POINT('Ctrl Pts',(11.9375,1.,5.03125));
#1309=CARTESIAN_POINT('Ctrl Pts',(11.9375,1.,3.03125));
#1310=CARTESIAN_POINT('Ctrl Pts',(7.9375,1.,3.03125));
#1311=CARTESIAN_POINT('Ctrl Pts',(3.9375,1.,3.03125));
#1312=CARTESIAN_POINT('Ctrl Pts',(3.9375,1.,5.03125));
#1313=CARTESIAN_POINT('Ctrl Pts',(3.9375,3.,5.03125));
#1314=CARTESIAN_POINT('Ctrl Pts',(3.9375,3.,7.03125));
#1315=CARTESIAN_POINT('Ctrl Pts',(7.9375,3.,7.03125));
#1316=CARTESIAN_POINT('Ctrl Pts',(11.9375,3.,7.03125));
#1317=CARTESIAN_POINT('Ctrl Pts',(11.9375,3.,5.03125));
#1318=CARTESIAN_POINT('Ctrl Pts',(11.9375,3.,3.03125));
#1319=CARTESIAN_POINT('Ctrl Pts',(7.9375,3.,3.03125));
#1320=CARTESIAN_POINT('Ctrl Pts',(3.9375,3.,3.03125));
#1321=CARTESIAN_POINT('Ctrl Pts',(3.9375,3.,5.03125));
#1322=CARTESIAN_POINT('',(3.93750000000001,3.,5.03125));
#1323=CARTESIAN_POINT('Origin',(7.9375,3.,5.03125));
#1324=CARTESIAN_POINT('',(3.9375,0.,5.03125));
#1325=CARTESIAN_POINT('Origin',(3.00000000000001,2.,1.));
#1326=CARTESIAN_POINT('',(3.00000000000001,2.,0.));
#1327=CARTESIAN_POINT('',(3.00000000000001,3.,1.));
#1328=CARTESIAN_POINT('Origin',(3.00000000000001,2.,1.));
#1329=CARTESIAN_POINT('',(2.,2.,1.));
#1330=CARTESIAN_POINT('Origin',(3.00000000000001,2.,1.));
#1331=CARTESIAN_POINT('Origin',(3.,2.,1.));
#1332=CARTESIAN_POINT('Origin',(3.00000000000001,0.,1.));
#1333=CARTESIAN_POINT('',(2.,0.,1.));
#1334=CARTESIAN_POINT('',(3.00000000000001,0.,0.));
#1335=CARTESIAN_POINT('Origin',(3.,2.,9.0625));
#1336=CARTESIAN_POINT('',(2.,2.,9.0625));
#1337=CARTESIAN_POINT('',(3.,3.,9.0625));
#1338=CARTESIAN_POINT('Origin',(3.,2.,9.0625));
#1339=CARTESIAN_POINT('',(3.,2.,10.0625));
#1340=CARTESIAN_POINT('Origin',(3.,2.,9.0625));
#1341=CARTESIAN_POINT('Origin',(3.,2.,9.0625));
#1342=CARTESIAN_POINT('Origin',(3.,0.,9.0625));
#1343=CARTESIAN_POINT('',(3.,0.,10.0625));
#1344=CARTESIAN_POINT('',(2.,0.,9.0625));
#1345=CARTESIAN_POINT('Origin',(15.075,4.,1.));
#1346=CARTESIAN_POINT('',(17.075,4.,0.));
#1347=CARTESIAN_POINT('',(15.075,2.,2.9143167457715E-31));
#1348=CARTESIAN_POINT('Origin',(15.075,4.,2.9143167457715E-31));
#1349=CARTESIAN_POINT('',(15.075,3.,1.));
#1350=CARTESIAN_POINT('Origin',(15.075,2.,1.));
#1351=CARTESIAN_POINT('',(16.075,4.,1.));
#1352=CARTESIAN_POINT('Origin',(15.075,4.,1.));
#1353=CARTESIAN_POINT('Origin',(17.075,4.,1.));
#1354=CARTESIAN_POINT('Origin',(160.90625,2.,1.));
#1355=CARTESIAN_POINT('',(160.90625,3.,1.));
#1356=CARTESIAN_POINT('',(160.90625,2.,0.));
#1357=CARTESIAN_POINT('Origin',(15.075,4.,9.0625));
#1358=CARTESIAN_POINT('',(15.075,3.,9.0625));
#1359=CARTESIAN_POINT('',(16.075,4.,9.0625));
#1360=CARTESIAN_POINT('Origin',(15.075,4.,9.0625));
#1361=CARTESIAN_POINT('',(15.075,2.,10.0625));
#1362=CARTESIAN_POINT('Origin',(15.075,2.,9.0625));
#1363=CARTESIAN_POINT('',(17.075,4.,10.0625));
#1364=CARTESIAN_POINT('Origin',(15.075,4.,10.0625));
#1365=CARTESIAN_POINT('Origin',(17.075,4.,9.0625));
#1366=CARTESIAN_POINT('Origin',(54.96875,2.,9.0625));
#1367=CARTESIAN_POINT('',(54.96875,3.,9.0625));
#1368=CARTESIAN_POINT('',(54.96875,2.,10.0625));
#1369=CARTESIAN_POINT('Origin',(17.075,6.,1.));
#1370=CARTESIAN_POINT('',(17.075,6.,0.));
#1371=CARTESIAN_POINT('',(17.075,7.,1.));
#1372=CARTESIAN_POINT('Origin',(17.075,6.,1.));
#1373=CARTESIAN_POINT('',(16.075,6.,1.));
#1374=CARTESIAN_POINT('Origin',(17.075,6.,1.));
#1375=CARTESIAN_POINT('Origin',(17.075,6.,1.));
#1376=CARTESIAN_POINT('Origin',(17.075,0.,1.));
#1377=CARTESIAN_POINT('',(17.075,0.,0.));
#1378=CARTESIAN_POINT('',(16.075,0.,1.));
#1379=CARTESIAN_POINT('Origin',(17.075,6.,9.0625));
#1380=CARTESIAN_POINT('',(16.075,6.,9.0625));
#1381=CARTESIAN_POINT('',(17.075,7.,9.0625));
#1382=CARTESIAN_POINT('Origin',(17.075,6.,9.0625));
#1383=CARTESIAN_POINT('',(17.075,6.,10.0625));
#1384=CARTESIAN_POINT('Origin',(17.075,6.,9.0625));
#1385=CARTESIAN_POINT('Origin',(17.075,6.,9.0625));
#1386=CARTESIAN_POINT('Origin',(17.075,0.,9.0625));
#1387=CARTESIAN_POINT('',(16.075,0.,9.0625));
#1388=CARTESIAN_POINT('',(17.075,0.,10.0625));
#1389=CARTESIAN_POINT('Origin',(198.8,6.,9.0625));
#1390=CARTESIAN_POINT('',(198.8,6.,10.0625));
#1391=CARTESIAN_POINT('',(198.8,7.,9.0625));
#1392=CARTESIAN_POINT('Origin',(198.8,6.,9.0625));
#1393=CARTESIAN_POINT('',(199.8,6.,9.0625));
#1394=CARTESIAN_POINT('Origin',(198.8,6.,9.0625));
#1395=CARTESIAN_POINT('Origin',(198.8,6.,9.0625));
#1396=CARTESIAN_POINT('Origin',(212.875,2.,9.0625));
#1397=CARTESIAN_POINT('',(212.875,2.,10.0625));
#1398=CARTESIAN_POINT('',(212.875,3.,9.0625));
#1399=CARTESIAN_POINT('Origin',(212.875,2.,9.0625));
#1400=CARTESIAN_POINT('',(213.875,2.,9.0625));
#1401=CARTESIAN_POINT('Origin',(212.875,2.,9.0625));
#1402=CARTESIAN_POINT('Origin',(212.875,2.,9.0625));
#1403=CARTESIAN_POINT('Origin',(212.875,0.,9.0625));
#1404=CARTESIAN_POINT('',(213.875,0.,9.0625));
#1405=CARTESIAN_POINT('',(212.875,0.,10.0625));
#1406=CARTESIAN_POINT('Origin',(212.875,2.,7.546875));
#1407=CARTESIAN_POINT('',(213.875,2.,1.));
#1408=CARTESIAN_POINT('',(212.875,3.,-4.25413056019275E-31));
#1409=CARTESIAN_POINT('Origin',(212.875,2.,1.));
#1410=CARTESIAN_POINT('',(212.875,3.,7.546875));
#1411=CARTESIAN_POINT('',(213.875,2.,7.546875));
#1412=CARTESIAN_POINT('Origin',(200.8,4.,9.0625));
#1413=CARTESIAN_POINT('',(198.8,4.,10.0625));
#1414=CARTESIAN_POINT('',(200.8,2.,10.0625));
#1415=CARTESIAN_POINT('Origin',(200.8,4.,10.0625));
#1416=CARTESIAN_POINT('',(200.8,3.,9.0625));
#1417=CARTESIAN_POINT('Origin',(200.8,2.,9.0625));
#1418=CARTESIAN_POINT('',(199.8,4.,9.0625));
#1419=CARTESIAN_POINT('Origin',(200.8,4.,9.06249999999999));
#1420=CARTESIAN_POINT('Origin',(198.8,4.,9.0625));
#1421=CARTESIAN_POINT('Origin',(54.96875,2.,9.0625));
#1422=CARTESIAN_POINT('',(54.96875,3.,9.0625));
#1423=CARTESIAN_POINT('',(54.96875,2.,10.0625));
#1424=CARTESIAN_POINT('Origin',(200.8,4.,7.54687499999983));
#1425=CARTESIAN_POINT('',(200.8,3.,0.999999999999993));
#1426=CARTESIAN_POINT('',(199.8,4.,0.999999999999996));
#1427=CARTESIAN_POINT('Origin',(200.8,4.,0.999999999999993));
#1428=CARTESIAN_POINT('',(199.8,4.,7.54687499999984));
#1429=CARTESIAN_POINT('',(200.8,3.,7.54687499999983));
#1430=CARTESIAN_POINT('Origin',(198.8,4.,1.));
#1431=CARTESIAN_POINT('',(200.532050807569,3.,-3.46136008093261E-33));
#1432=CARTESIAN_POINT('',(198.8,4.,0.));
#1433=CARTESIAN_POINT('Ctrl Pts',(200.532050807569,3.,-3.46136008093261E-33));
#1434=CARTESIAN_POINT('Ctrl Pts',(200.277173385693,3.00000000000001,1.11992974762714E-18));
#1435=CARTESIAN_POINT('Ctrl Pts',(199.984730473151,3.08957199989777,-2.36758572468479E-33));
#1436=CARTESIAN_POINT('Ctrl Pts',(199.415223272204,3.39608728381128,-1.22947275331761E-33));
#1437=CARTESIAN_POINT('Ctrl Pts',(199.077098222081,3.72290177791905,0.));
#1438=CARTESIAN_POINT('Ctrl Pts',(198.8,4.,0.));
#1439=CARTESIAN_POINT('Origin',(198.8,4.,1.));
#1440=CARTESIAN_POINT('Origin',(198.8,3.,1.));
#1441=CARTESIAN_POINT('Origin',(198.8,0.,9.0625));
#1442=CARTESIAN_POINT('',(198.8,0.,10.0625));
#1443=CARTESIAN_POINT('',(199.8,0.,9.0625));
#1444=CARTESIAN_POINT('Origin',(198.8,6.,7.54687499999984));
#1445=CARTESIAN_POINT('',(199.8,6.,0.999999999999996));
#1446=CARTESIAN_POINT('',(198.8,7.,1.));
#1447=CARTESIAN_POINT('Origin',(198.8,6.,1.));
#1448=CARTESIAN_POINT('',(198.8,7.,7.54687499999984));
#1449=CARTESIAN_POINT('',(199.8,6.,7.54687499999984));
#1450=CARTESIAN_POINT('Origin',(54.96875,6.,9.0625));
#1451=CARTESIAN_POINT('',(54.96875,7.,9.0625));
#1452=CARTESIAN_POINT('',(54.96875,6.,10.0625));
#1453=CARTESIAN_POINT('Origin',(17.075,6.,2.515625));
#1454=CARTESIAN_POINT('',(17.075,7.,2.515625));
#1455=CARTESIAN_POINT('',(16.075,6.,2.515625));
#1456=CARTESIAN_POINT('Origin',(160.90625,6.,1.));
#1457=CARTESIAN_POINT('',(198.8,6.,0.));
#1458=CARTESIAN_POINT('Origin',(198.8,6.,1.));
#1459=CARTESIAN_POINT('',(160.90625,6.,0.));
#1460=CARTESIAN_POINT('',(160.90625,7.,1.));
#1461=CARTESIAN_POINT('Origin',(15.075,4.,2.515625));
#1462=CARTESIAN_POINT('',(15.075,3.,2.515625));
#1463=CARTESIAN_POINT('',(16.075,4.,2.515625));
#1464=CARTESIAN_POINT('Origin',(3.,2.,2.515625));
#1465=CARTESIAN_POINT('',(3.,3.,2.515625));
#1466=CARTESIAN_POINT('',(2.,2.,2.515625));
#1467=CARTESIAN_POINT('Origin',(198.8,6.,1.));
#1468=CARTESIAN_POINT('Origin',(198.8,6.,1.));
#1469=CARTESIAN_POINT('Origin',(2.,0.,0.));
#1470=CARTESIAN_POINT('Origin',(213.875,0.,-4.27411473193763E-31));
#1471=CARTESIAN_POINT('',(198.8,0.,0.));
#1472=CARTESIAN_POINT('',(0.,3.,0.));
#1473=CARTESIAN_POINT('',(212.875,0.,0.));
#1474=CARTESIAN_POINT('Origin',(199.8,0.,10.0625));
#1475=CARTESIAN_POINT('',(199.8,0.,0.999999999999996));
#1476=CARTESIAN_POINT('Origin',(198.8,0.,1.));
#1477=CARTESIAN_POINT('Origin',(107.9375,3.,5.03125));
#1478=CARTESIAN_POINT('Origin',(16.075,0.,0.));
#1479=CARTESIAN_POINT('Origin',(107.9375,7.,5.03125));
#1480=CARTESIAN_POINT('Origin',(212.875,0.,1.));
#1481=CARTESIAN_POINT('',(213.875,0.,1.));
#1482=CARTESIAN_POINT('Origin',(107.9375,3.,5.03125));
#1483=CARTESIAN_POINT('Origin',(2.,0.,10.0625));
#1484=CARTESIAN_POINT('Origin',(213.875,0.,10.0625));
#1485=UNCERTAINTY_MEASURE_WITH_UNIT(LENGTH_MEASURE(0.01),#1489,
'DISTANCE_ACCURACY_VALUE',
'Maximum model space distance between geometric entities at asserted c
onnectivities');
#1486=UNCERTAINTY_MEASURE_WITH_UNIT(LENGTH_MEASURE(0.01),#1489,
'DISTANCE_ACCURACY_VALUE',
'Maximum model space distance between geometric entities at asserted c
onnectivities');
#1487=(
GEOMETRIC_REPRESENTATION_CONTEXT(3)
GLOBAL_UNCERTAINTY_ASSIGNED_CONTEXT((#1485))
GLOBAL_UNIT_ASSIGNED_CONTEXT((#1489,#1491,#1492))
REPRESENTATION_CONTEXT('','3D')
);
#1488=(
GEOMETRIC_REPRESENTATION_CONTEXT(3)
GLOBAL_UNCERTAINTY_ASSIGNED_CONTEXT((#1486))
GLOBAL_UNIT_ASSIGNED_CONTEXT((#1489,#1491,#1492))
REPRESENTATION_CONTEXT('','3D')
);
#1489=(
LENGTH_UNIT()
NAMED_UNIT(*)
SI_UNIT(.MILLI.,.METRE.)
);
#1490=(
LENGTH_UNIT()
NAMED_UNIT(*)
SI_UNIT($,.METRE.)
);
#1491=(
NAMED_UNIT(*)
PLANE_ANGLE_UNIT()
SI_UNIT($,.RADIAN.)
);
#1492=(
NAMED_UNIT(*)
SI_UNIT($,.STERADIAN.)
SOLID_ANGLE_UNIT()
);
#1493=SHAPE_DEFINITION_REPRESENTATION(#1494,#1495);
#1494=PRODUCT_DEFINITION_SHAPE('',$,#1497);
#1495=SHAPE_REPRESENTATION('',(#690),#1487);
#1496=PRODUCT_DEFINITION_CONTEXT('part definition',#1501,'design');
#1497=PRODUCT_DEFINITION('2026-09-08-14-17-47-759','side brace frame',#1498,
#1496);
#1498=PRODUCT_DEFINITION_FORMATION('',$,#1503);
#1499=PRODUCT_RELATED_PRODUCT_CATEGORY('side brace frame',
'side brace frame',(#1503));
#1500=APPLICATION_PROTOCOL_DEFINITION('international standard',
'automotive_design',2009,#1501);
#1501=APPLICATION_CONTEXT(
'Core Data for Automotive Mechanical Design Process');
#1502=PRODUCT_CONTEXT('part definition',#1501,'mechanical');
#1503=PRODUCT('2026-09-08-14-17-47-759','side brace frame',$,(#1502));
#1504=PRESENTATION_STYLE_ASSIGNMENT((#1505));
#1505=SURFACE_STYLE_USAGE(.BOTH.,#1506);
#1506=SURFACE_SIDE_STYLE('',(#1507));
#1507=SURFACE_STYLE_FILL_AREA(#1508);
#1508=FILL_AREA_STYLE('Steel - Satin',(#1509));
#1509=FILL_AREA_STYLE_COLOUR('Steel - Satin',#1510);
#1510=COLOUR_RGB('Steel - Satin',0.627450980392157,0.627450980392157,0.627450980392157);
ENDSEC;
END-ISO-10303-21;
